{"glyphs":{"0":{"ha":824,"x_min":67,"x_max":817,"o":"m 354 -17 q 140 76 214 -17 q 67 333 67 169 q 99 578 67 456 q 190 801 132 700 q 337 965 247 901 q 529 1028 426 1028 q 743 935 669 1028 q 817 678 817 842 q 763 356 817 513 q 600 91 708 199 q 354 -17 492 -17 m 351 3 q 497 78 428 3 q 610 269 565 154 q 680 510 654 383 q 706 746 706 638 q 663 938 706 868 q 532 1008 619 1008 q 387 933 456 1008 q 274 743 318 857 q 203 502 229 629 q 178 267 178 375 q 221 74 178 144 q 351 3 264 3 z "},"1":{"ha":435,"x_min":-33,"x_max":433,"o":"m 433 1025 l 247 149 q 253 39 231 69 q 346 8 275 8 l 343 0 l -33 0 l -31 8 q 80 40 42 8 q 135 149 118 71 l 276 817 q 100 764 192 775 l 103 772 q 288 870 215 810 q 425 1025 361 931 l 433 1025 z "},"2":{"ha":693,"x_min":-58,"x_max":697,"o":"m 76 100 l 374 100 q 530 124 478 100 q 631 217 582 147 l 639 217 l 531 0 l -58 0 l -57 6 l 138 175 q 284 307 225 250 q 417 449 343 364 q 531 617 492 533 q 571 776 571 700 q 524 906 571 858 q 400 954 476 954 q 242 892 314 954 q 126 711 171 831 l 118 711 q 251 946 157 864 q 461 1028 344 1028 q 633 967 568 1028 q 697 808 697 906 q 686 731 697 771 q 660 658 675 692 q 613 582 644 624 q 558 510 582 540 q 488 438 533 481 q 414 368 443 394 q 330 297 385 342 q 248 232 275 253 q 162 165 221 211 q 81 103 103 119 l 76 100 z "},"3":{"ha":664,"x_min":-32,"x_max":654,"o":"m 415 583 l 399 575 q 549 475 494 543 q 603 322 603 407 q 493 85 603 188 q 231 -17 383 -17 q 85 8 158 -17 q -32 67 13 33 l 22 242 l 31 242 q 86 67 33 131 q 231 3 139 3 q 415 85 339 3 q 490 275 490 168 q 435 424 490 363 q 278 508 381 486 l 251 514 l 250 522 l 297 546 q 549 826 549 667 q 510 928 549 892 q 403 964 471 964 q 257 911 321 964 q 165 788 193 858 l 157 789 q 270 961 190 894 q 458 1028 350 1028 q 603 983 551 1028 q 654 861 654 938 q 415 583 654 703 z "},"4":{"ha":739,"x_min":-8,"x_max":738,"o":"m 682 285 l 513 285 l 486 163 q 478 45 467 82 q 547 8 490 8 l 546 0 l 246 0 l 249 8 q 331 42 306 8 q 374 163 356 76 l 400 285 l 6 285 l -8 324 l 661 1025 l 669 1025 l 532 376 l 640 376 q 729 401 704 376 l 738 401 l 682 285 m 76 376 l 419 376 l 518 840 l 76 376 z "},"5":{"ha":638,"x_min":-36,"x_max":733,"o":"m 635 923 q 605 906 635 923 q 489 889 575 889 q 261 918 403 889 l 179 663 l 265 646 q 502 537 418 615 q 586 344 586 458 q 475 90 586 196 q 197 -17 364 -17 q 64 -3 136 -17 q -36 29 -8 11 l 17 197 l 25 197 q 66 56 18 108 q 206 3 114 3 q 404 85 322 3 q 486 279 486 167 q 415 446 486 376 q 214 542 344 515 l 121 560 l 271 1028 q 538 997 408 997 q 725 1036 668 997 l 733 1036 q 635 923 694 957 z "},"6":{"ha":701,"x_min":46,"x_max":668,"o":"m 444 613 q 606 547 543 613 q 668 372 668 481 q 560 101 668 219 q 301 -17 451 -17 q 116 57 186 -17 q 46 275 46 131 q 213 735 46 519 q 646 1028 381 950 l 649 1019 q 364 811 483 961 q 194 469 244 661 q 302 570 236 528 q 444 613 368 613 m 308 3 q 476 117 408 3 q 543 356 543 232 q 499 497 543 447 q 378 546 454 546 q 189 447 274 546 q 164 235 164 342 q 202 61 164 119 q 308 3 240 3 z "},"7":{"ha":631,"x_min":100,"x_max":764,"o":"m 110 803 l 181 1011 l 764 1011 l 764 1006 q 239 0 319 454 l 100 0 q 664 906 215 383 l 364 906 q 206 888 249 906 q 118 803 164 869 l 110 803 z "},"8":{"ha":733,"x_min":18,"x_max":733,"o":"m 475 551 l 488 544 q 667 300 667 446 q 562 78 667 172 q 303 -17 457 -17 q 99 44 179 -17 q 18 213 18 106 q 99 392 18 319 q 308 507 179 465 q 174 731 174 599 q 267 940 174 853 q 493 1028 361 1028 q 665 972 597 1028 q 733 822 733 917 q 660 656 733 725 q 475 551 588 588 m 493 1008 q 336 941 399 1008 q 274 785 274 874 q 425 581 274 663 l 458 561 q 599 684 546 610 q 651 843 651 758 q 610 964 651 919 q 493 1008 569 1008 m 307 3 q 493 73 421 3 q 565 240 565 143 q 536 340 565 294 q 478 406 507 385 q 406 451 449 428 l 343 486 l 326 496 q 165 368 226 447 q 103 193 103 289 q 158 51 103 100 q 307 3 214 3 z "},"9":{"ha":700,"x_min":92,"x_max":714,"o":"m 458 1028 q 644 954 574 1028 q 714 736 714 881 q 547 276 714 492 q 114 -17 379 61 l 111 -8 q 397 200 278 50 q 565 542 515 350 q 459 441 525 483 q 315 399 393 399 q 154 465 217 399 q 92 639 92 531 q 200 910 92 792 q 458 1028 308 1028 m 571 564 q 596 776 596 669 q 558 950 596 892 q 451 1008 519 1008 q 284 894 351 1008 q 217 656 217 779 q 262 515 217 564 q 382 465 307 465 q 571 564 486 465 z "},"ʺ":{"ha":944,"x_min":-26,"x_max":971,"o":"m -26 -317 l 271 1081 l 971 1081 l 674 -317 l -26 -317 m 11 -289 l 649 -289 l 933 1053 l 296 1053 l 11 -289 z "},"ˈ":{"ha":944,"x_min":-26,"x_max":971,"o":"m -26 -317 l 271 1081 l 971 1081 l 674 -317 l -26 -317 m 11 -289 l 649 -289 l 933 1053 l 296 1053 l 11 -289 z "},"̉":{"ha":944,"x_min":-26,"x_max":971,"o":"m -26 -317 l 271 1081 l 971 1081 l 674 -317 l -26 -317 m 11 -289 l 649 -289 l 933 1053 l 296 1053 l 11 -289 z "},"‖":{"ha":944,"x_min":-26,"x_max":971,"o":"m -26 -317 l 271 1081 l 971 1081 l 674 -317 l -26 -317 m 11 -289 l 649 -289 l 933 1053 l 296 1053 l 11 -289 z "},"‗":{"ha":944,"x_min":-26,"x_max":971,"o":"m -26 -317 l 271 1081 l 971 1081 l 674 -317 l -26 -317 m 11 -289 l 649 -289 l 933 1053 l 296 1053 l 11 -289 z "},"‛":{"ha":944,"x_min":-26,"x_max":971,"o":"m -26 -317 l 271 1081 l 971 1081 l 674 -317 l -26 -317 m 11 -289 l 649 -289 l 933 1053 l 296 1053 l 11 -289 z "},"‟":{"ha":944,"x_min":-26,"x_max":971,"o":"m -26 -317 l 271 1081 l 971 1081 l 674 -317 l -26 -317 m 11 -289 l 649 -289 l 933 1053 l 296 1053 l 11 -289 z "},"‣":{"ha":944,"x_min":-26,"x_max":971,"o":"m -26 -317 l 271 1081 l 971 1081 l 674 -317 l -26 -317 m 11 -289 l 649 -289 l 933 1053 l 296 1053 l 11 -289 z "},"․":{"ha":944,"x_min":-26,"x_max":971,"o":"m -26 -317 l 271 1081 l 971 1081 l 674 -317 l -26 -317 m 11 -289 l 649 -289 l 933 1053 l 296 1053 l 11 -289 z "},"‥":{"ha":944,"x_min":-26,"x_max":971,"o":"m -26 -317 l 271 1081 l 971 1081 l 674 -317 l -26 -317 m 11 -289 l 649 -289 l 933 1053 l 296 1053 l 11 -289 z "},"‱":{"ha":944,"x_min":-26,"x_max":971,"o":"m -26 -317 l 271 1081 l 971 1081 l 674 -317 l -26 -317 m 11 -289 l 649 -289 l 933 1053 l 296 1053 l 11 -289 z "},"₵":{"ha":944,"x_min":-26,"x_max":971,"o":"m -26 -317 l 271 1081 l 971 1081 l 674 -317 l -26 -317 m 11 -289 l 649 -289 l 933 1053 l 296 1053 l 11 -289 z "},"₶":{"ha":944,"x_min":-26,"x_max":971,"o":"m -26 -317 l 271 1081 l 971 1081 l 674 -317 l -26 -317 m 11 -289 l 649 -289 l 933 1053 l 296 1053 l 11 -289 z "},"₷":{"ha":944,"x_min":-26,"x_max":971,"o":"m -26 -317 l 271 1081 l 971 1081 l 674 -317 l -26 -317 m 11 -289 l 649 -289 l 933 1053 l 296 1053 l 11 -289 z "},"₻":{"ha":944,"x_min":-26,"x_max":971,"o":"m -26 -317 l 271 1081 l 971 1081 l 674 -317 l -26 -317 m 11 -289 l 649 -289 l 933 1053 l 296 1053 l 11 -289 z "},"₼":{"ha":944,"x_min":-26,"x_max":971,"o":"m -26 -317 l 271 1081 l 971 1081 l 674 -317 l -26 -317 m 11 -289 l 649 -289 l 933 1053 l 296 1053 l 11 -289 z "},"℔":{"ha":944,"x_min":-26,"x_max":971,"o":"m -26 -317 l 271 1081 l 971 1081 l 674 -317 l -26 -317 m 11 -289 l 649 -289 l 933 1053 l 296 1053 l 11 -289 z "},"ℕ":{"ha":944,"x_min":-26,"x_max":971,"o":"m -26 -317 l 271 1081 l 971 1081 l 674 -317 l -26 -317 m 11 -289 l 649 -289 l 933 1053 l 296 1053 l 11 -289 z "},"℣":{"ha":944,"x_min":-26,"x_max":971,"o":"m -26 -317 l 271 1081 l 971 1081 l 674 -317 l -26 -317 m 11 -289 l 649 -289 l 933 1053 l 296 1053 l 11 -289 z "},"ℤ":{"ha":944,"x_min":-26,"x_max":971,"o":"m -26 -317 l 271 1081 l 971 1081 l 674 -317 l -26 -317 m 11 -289 l 649 -289 l 933 1053 l 296 1053 l 11 -289 z "},"℥":{"ha":944,"x_min":-26,"x_max":971,"o":"m -26 -317 l 271 1081 l 971 1081 l 674 -317 l -26 -317 m 11 -289 l 649 -289 l 933 1053 l 296 1053 l 11 -289 z "},"∃":{"ha":944,"x_min":-26,"x_max":971,"o":"m -26 -317 l 271 1081 l 971 1081 l 674 -317 l -26 -317 m 11 -289 l 649 -289 l 933 1053 l 296 1053 l 11 -289 z "},"∄":{"ha":944,"x_min":-26,"x_max":971,"o":"m -26 -317 l 271 1081 l 971 1081 l 674 -317 l -26 -317 m 11 -289 l 649 -289 l 933 1053 l 296 1053 l 11 -289 z "},"∅":{"ha":944,"x_min":-26,"x_max":971,"o":"m -26 -317 l 271 1081 l 971 1081 l 674 -317 l -26 -317 m 11 -289 l 649 -289 l 933 1053 l 296 1053 l 11 -289 z "},"∐":{"ha":944,"x_min":-26,"x_max":971,"o":"m -26 -317 l 271 1081 l 971 1081 l 674 -317 l -26 -317 m 11 -289 l 649 -289 l 933 1053 l 296 1053 l 11 -289 z "},"∓":{"ha":944,"x_min":-26,"x_max":971,"o":"m -26 -317 l 271 1081 l 971 1081 l 674 -317 l -26 -317 m 11 -289 l 649 -289 l 933 1053 l 296 1053 l 11 -289 z "},"∔":{"ha":944,"x_min":-26,"x_max":971,"o":"m -26 -317 l 271 1081 l 971 1081 l 674 -317 l -26 -317 m 11 -289 l 649 -289 l 933 1053 l 296 1053 l 11 -289 z "},"∖":{"ha":944,"x_min":-26,"x_max":971,"o":"m -26 -317 l 271 1081 l 971 1081 l 674 -317 l -26 -317 m 11 -289 l 649 -289 l 933 1053 l 296 1053 l 11 -289 z "},"∗":{"ha":944,"x_min":-26,"x_max":971,"o":"m -26 -317 l 271 1081 l 971 1081 l 674 -317 l -26 -317 m 11 -289 l 649 -289 l 933 1053 l 296 1053 l 11 -289 z "},"∘":{"ha":944,"x_min":-26,"x_max":971,"o":"m -26 -317 l 271 1081 l 971 1081 l 674 -317 l -26 -317 m 11 -289 l 649 -289 l 933 1053 l 296 1053 l 11 -289 z "},"∛":{"ha":944,"x_min":-26,"x_max":971,"o":"m -26 -317 l 271 1081 l 971 1081 l 674 -317 l -26 -317 m 11 -289 l 649 -289 l 933 1053 l 296 1053 l 11 -289 z "},"∜":{"ha":944,"x_min":-26,"x_max":971,"o":"m -26 -317 l 271 1081 l 971 1081 l 674 -317 l -26 -317 m 11 -289 l 649 -289 l 933 1053 l 296 1053 l 11 -289 z "},"∝":{"ha":944,"x_min":-26,"x_max":971,"o":"m -26 -317 l 271 1081 l 971 1081 l 674 -317 l -26 -317 m 11 -289 l 649 -289 l 933 1053 l 296 1053 l 11 -289 z "},"≡":{"ha":944,"x_min":-26,"x_max":971,"o":"m -26 -317 l 271 1081 l 971 1081 l 674 -317 l -26 -317 m 11 -289 l 649 -289 l 933 1053 l 296 1053 l 11 -289 z "},"≢":{"ha":944,"x_min":-26,"x_max":971,"o":"m -26 -317 l 271 1081 l 971 1081 l 674 -317 l -26 -317 m 11 -289 l 649 -289 l 933 1053 l 296 1053 l 11 -289 z "},"≣":{"ha":944,"x_min":-26,"x_max":971,"o":"m -26 -317 l 271 1081 l 971 1081 l 674 -317 l -26 -317 m 11 -289 l 649 -289 l 933 1053 l 296 1053 l 11 -289 z "},"\u0000":{"ha":0,"x_min":0,"x_max":0,"o":""},"\r":{"ha":300,"x_min":0,"x_max":0,"o":""}," ":{"ha":289,"x_min":0,"x_max":0,"o":""},"!":{"ha":279,"x_min":-6,"x_max":349,"o":"m 124 265 l 113 265 q 149 553 126 365 q 189 872 172 742 q 208 1015 206 1003 q 278 1072 221 1072 q 328 1048 308 1072 q 343 994 349 1024 q 302 854 340 981 q 209 548 264 728 q 124 265 154 368 m 75 -17 q 18 7 42 -17 q -6 63 -6 31 q 18 119 -6 96 q 75 143 42 143 q 131 119 107 143 q 154 63 154 96 q 131 7 154 31 q 75 -17 107 -17 z "},"\"":{"ha":406,"x_min":149,"x_max":501,"o":"m 157 628 l 149 628 q 160 830 156 689 q 167 982 165 971 q 225 1042 174 1042 q 274 1020 257 1042 q 285 968 292 999 q 228 819 282 953 q 157 628 175 685 m 367 628 l 358 628 q 370 830 365 689 q 376 982 375 971 q 394 1026 378 1010 q 435 1042 411 1042 q 484 1020 467 1042 q 494 968 501 999 q 438 819 492 953 q 367 628 385 685 z "},"#":{"ha":733,"x_min":22,"x_max":771,"o":"m 771 693 l 765 668 l 617 668 l 503 343 l 642 343 l 636 318 l 494 318 l 383 0 l 356 0 l 467 318 l 196 318 l 85 0 l 57 0 l 168 318 l 22 318 l 28 343 l 176 343 l 290 668 l 151 668 l 157 693 l 299 693 l 410 1011 l 438 1011 l 326 693 l 597 693 l 708 1011 l 736 1011 l 625 693 l 771 693 m 204 343 l 475 343 l 589 668 l 318 668 l 204 343 z "},"$":{"ha":672,"x_min":-10,"x_max":718,"o":"m 585 1151 l 544 1018 q 718 949 644 999 l 683 785 l 675 785 q 535 989 647 943 l 410 574 l 425 561 q 493 500 476 517 q 546 441 510 483 q 596 357 582 399 q 610 267 610 315 q 510 62 610 139 q 271 -15 411 -15 q 232 -14 246 -15 l 194 -140 l 171 -140 l 208 -11 q -10 65 81 4 l 26 278 l 35 278 q 217 15 64 60 l 350 457 q 342 464 347 458 l 292 506 q 150 763 150 625 q 241 956 150 886 q 456 1026 332 1026 q 522 1021 493 1026 l 560 1151 l 585 1151 m 375 603 l 390 590 l 514 996 q 443 1006 485 1006 q 300 962 358 1006 q 242 832 242 918 q 267 730 242 779 q 316 658 293 681 q 375 603 339 635 m 517 201 q 493 299 517 251 q 444 372 469 346 q 369 440 418 399 l 239 10 q 288 6 264 6 q 447 54 376 6 q 517 201 517 103 z "},"%":{"ha":913,"x_min":57,"x_max":914,"o":"m 283 528 q 160 577 204 528 q 115 711 115 626 q 184 926 115 833 q 361 1019 253 1019 q 486 970 442 1019 q 531 836 531 921 q 461 621 531 714 q 283 528 392 528 m 89 0 l 57 0 l 882 1011 l 914 1011 l 89 0 m 283 544 q 408 651 358 544 q 458 869 458 758 q 434 967 458 931 q 363 1003 410 1003 q 268 949 310 1003 q 207 822 226 894 q 188 679 188 749 q 212 581 188 618 q 283 544 236 544 m 610 -8 q 485 41 529 -8 q 440 175 440 90 q 510 390 440 297 q 688 483 581 483 q 812 434 768 483 q 856 300 856 385 q 787 85 856 178 q 610 -8 718 -8 m 608 8 q 703 63 661 8 q 765 190 744 117 q 785 332 785 263 q 760 430 785 393 q 689 467 736 467 q 595 412 638 467 q 533 283 553 357 q 513 142 513 210 q 537 44 513 81 q 608 8 561 8 z "},"&":{"ha":915,"x_min":38,"x_max":949,"o":"m 872 888 q 949 742 949 824 q 892 599 949 660 q 735 515 835 538 q 804 340 804 446 q 694 92 804 200 q 406 -17 585 -17 q 140 74 243 -17 q 38 299 38 164 q 108 501 38 410 q 290 639 179 593 q 215 703 243 660 q 188 804 188 747 q 265 965 188 901 q 453 1028 342 1028 q 679 957 575 1028 l 643 790 l 635 790 q 578 949 624 890 q 450 1007 532 1007 q 328 957 374 1007 q 283 826 283 907 q 319 711 283 751 q 401 665 354 671 l 396 654 q 221 530 286 622 q 156 326 156 438 q 244 115 156 196 q 457 35 332 35 q 686 125 592 35 q 781 329 781 215 q 739 450 781 403 q 631 497 697 497 q 511 445 561 497 q 461 317 461 393 q 513 192 461 243 l 508 185 q 381 364 381 232 q 619 594 381 543 q 792 647 744 621 q 882 799 882 699 q 864 885 882 836 l 872 888 z "},"'":{"ha":197,"x_min":149,"x_max":292,"o":"m 157 628 l 149 628 q 160 830 156 689 q 167 982 165 971 q 225 1042 174 1042 q 274 1020 257 1042 q 285 968 292 999 q 228 819 282 953 q 157 628 175 685 z "},"(":{"ha":344,"x_min":36,"x_max":503,"o":"m 225 -224 l 215 -231 q 85 -15 133 -139 q 36 249 36 108 q 163 703 36 481 q 493 1086 290 925 l 503 1079 q 217 674 324 921 q 110 179 110 428 q 225 -224 110 -74 z "},")":{"ha":344,"x_min":-133,"x_max":335,"o":"m -124 -231 l -133 -224 q 153 181 47 -67 q 260 676 260 428 q 144 1079 260 932 l 154 1086 q 335 607 335 886 q 207 153 335 375 q -124 -231 79 -68 z "},"*":{"ha":628,"x_min":136,"x_max":650,"o":"m 410 753 l 650 654 l 607 582 l 401 740 l 435 478 l 351 478 l 385 739 l 179 582 l 136 654 l 378 753 l 138 851 l 179 925 l 385 767 l 351 1028 l 435 1028 l 401 767 l 607 925 l 649 851 l 410 753 z "},"+":{"ha":706,"x_min":99,"x_max":665,"o":"m 397 519 l 665 519 l 665 492 l 397 492 l 397 214 l 367 214 l 367 492 l 99 492 l 99 519 l 367 519 l 367 797 l 397 797 l 397 519 z "},",":{"ha":258,"x_min":-39,"x_max":164,"o":"m -37 -187 l -39 -179 q 58 -128 11 -168 q 107 -44 106 -89 q 96 -14 107 -26 q 73 3 85 -1 q 42 13 61 8 q -18 83 -18 28 q 3 134 -18 114 q 56 154 24 154 q 132 119 100 154 q 164 26 164 83 q 106 -115 164 -56 q -37 -187 47 -175 z "},"-":{"ha":326,"x_min":26,"x_max":319,"o":"m 306 382 l 26 382 l 42 444 l 319 444 l 306 382 z "},".":{"ha":232,"x_min":-18,"x_max":142,"o":"m 63 -17 q 6 7 29 -17 q -18 63 -18 31 q 6 119 -18 96 q 63 143 29 143 q 118 119 94 143 q 142 63 142 96 q 118 7 142 31 q 63 -17 94 -17 z "},"/":{"ha":494,"x_min":-68,"x_max":619,"o":"m -36 -89 l -68 -89 l 588 1086 l 619 1086 l -36 -89 z "},":":{"ha":292,"x_min":0,"x_max":281,"o":"m 192 524 q 138 551 160 525 q 119 610 117 578 q 148 663 122 642 q 206 681 174 683 q 259 653 238 679 q 278 594 281 628 q 249 542 275 563 q 192 524 224 521 m 75 -19 q 22 9 43 -17 q 3 67 0 35 q 31 120 6 99 q 89 139 57 142 q 142 110 121 136 q 161 53 164 85 q 134 -1 160 21 q 75 -19 108 -22 z "},";":{"ha":308,"x_min":-15,"x_max":279,"o":"m 255 548 q 243 536 255 548 q 199 524 231 524 q 143 548 167 524 q 119 604 119 572 q 143 660 119 636 q 199 683 167 683 q 255 660 231 683 q 279 604 279 636 q 255 548 279 572 m -14 -187 l -15 -179 q 81 -128 35 -168 q 129 -44 128 -89 q 119 -14 131 -26 q 97 3 108 -1 q 65 13 85 8 q 6 83 6 26 q 26 134 6 114 q 79 154 47 154 q 154 119 122 154 q 186 26 186 83 q 128 -115 186 -56 q -14 -187 71 -175 z "},"<":{"ha":706,"x_min":74,"x_max":640,"o":"m 626 781 l 640 756 l 114 506 l 640 256 l 626 231 l 74 493 l 74 518 l 626 781 z "},"=":{"ha":706,"x_min":97,"x_max":664,"o":"m 664 592 l 97 592 l 97 619 l 664 619 l 664 592 m 664 392 l 97 392 l 97 419 l 664 419 l 664 392 z "},">":{"ha":706,"x_min":122,"x_max":689,"o":"m 122 756 l 136 781 l 689 518 l 689 493 l 136 231 l 122 256 l 649 506 l 122 756 z "},"?":{"ha":585,"x_min":106,"x_max":657,"o":"m 244 265 q 188 318 188 265 q 225 397 188 350 q 315 497 263 443 q 421 610 368 550 q 511 749 474 671 q 549 901 549 826 q 513 1012 549 972 q 407 1051 476 1051 q 139 800 247 1051 l 131 800 l 176 1021 q 413 1074 311 1074 q 590 1021 522 1074 q 657 881 657 968 q 613 738 657 811 q 505 607 568 665 q 378 496 442 549 q 271 395 315 443 q 226 314 226 347 q 263 278 226 278 q 294 283 278 278 l 296 276 q 244 265 271 265 m 245 8 q 233 -5 245 8 q 188 -17 221 -17 q 130 8 154 -17 q 106 65 106 32 q 130 123 106 99 q 188 147 154 147 q 245 123 221 147 q 269 65 269 99 q 245 8 269 32 z "},"@":{"ha":1090,"x_min":46,"x_max":1115,"o":"m 775 197 q 684 234 715 197 q 663 333 653 271 q 469 188 576 188 q 392 226 419 188 q 365 335 365 264 q 406 517 365 426 q 522 672 446 608 q 686 735 597 735 q 803 674 776 735 l 865 728 l 874 728 l 771 418 q 789 218 703 218 q 978 353 892 218 q 1065 649 1065 489 q 968 908 1065 808 q 711 1007 871 1007 q 408 908 547 1007 q 191 644 269 808 q 113 292 113 481 q 213 1 113 111 q 488 -110 313 -108 q 893 56 718 -110 l 901 47 q 474 -144 700 -144 q 162 -27 278 -144 q 46 288 46 90 q 136 657 46 486 q 381 928 226 828 q 714 1029 535 1029 q 1005 925 894 1029 q 1115 649 1115 821 q 1073 443 1115 546 q 951 269 1031 340 q 775 197 871 197 m 515 239 q 639 335 574 239 q 732 565 704 431 q 738 619 738 599 q 672 715 738 715 q 521 597 589 715 q 453 353 453 478 q 515 239 453 239 z "},"A":{"ha":824,"x_min":-99,"x_max":767,"o":"m 560 1028 l 676 178 q 708 49 690 85 q 767 8 725 13 l 765 0 l 449 0 l 450 8 q 557 146 575 17 l 529 354 l 201 354 l 149 260 q 92 151 111 192 q 67 77 74 111 q 77 28 61 43 q 132 8 93 13 l 131 0 l -99 0 l -97 8 q -3 74 -50 17 q 121 267 43 132 l 549 1028 l 560 1028 m 467 829 l 219 388 l 525 388 l 467 829 z "},"B":{"ha":815,"x_min":-50,"x_max":815,"o":"m 528 528 l 528 525 q 696 446 631 510 q 761 293 761 382 q 638 75 761 150 q 324 0 515 0 l -50 0 l -49 8 q 41 44 17 8 q 85 168 65 79 l 228 843 q 238 963 250 922 q 163 1003 226 1003 l 164 1011 l 514 1011 q 739 954 663 1011 q 815 803 815 897 q 734 624 815 693 q 528 528 653 554 m 494 989 l 435 989 q 371 939 381 989 l 286 538 l 397 538 q 610 608 532 538 q 689 803 689 678 q 638 939 689 889 q 494 989 588 989 m 303 22 q 542 101 453 22 q 632 314 632 181 q 570 460 632 406 q 397 515 508 515 l 282 515 l 196 111 q 192 69 193 89 q 217 35 190 49 q 303 22 244 22 z "},"C":{"ha":842,"x_min":58,"x_max":922,"o":"m 442 -17 q 158 90 258 -17 q 58 381 58 197 q 98 613 58 499 q 208 819 138 726 q 390 970 279 913 q 632 1028 501 1028 q 922 944 794 1028 l 896 785 l 888 785 q 636 1008 822 1008 q 397 899 503 1008 q 240 637 292 789 q 188 333 188 485 q 251 93 188 183 q 435 3 314 3 q 782 251 626 3 l 790 251 l 726 54 q 442 -17 569 -17 z "},"D":{"ha":969,"x_min":-50,"x_max":969,"o":"m 354 0 l -50 0 l -49 8 q 41 44 17 8 q 85 168 65 79 l 228 843 q 238 963 250 922 q 163 1003 226 1003 l 164 1011 l 550 1011 q 860 908 751 1011 q 969 625 969 806 q 798 182 969 364 q 354 0 626 0 m 344 22 q 523 58 440 22 q 663 156 606 94 q 760 298 719 217 q 819 468 800 379 q 839 649 839 557 q 763 901 839 814 q 543 989 686 989 l 435 989 q 371 939 381 989 l 196 111 q 216 44 186 67 q 344 22 246 22 z "},"E":{"ha":775,"x_min":-50,"x_max":843,"o":"m 163 1003 l 164 1011 l 843 1011 l 818 803 l 810 803 q 739 955 782 921 q 581 989 696 989 l 382 989 l 286 538 l 442 538 q 572 565 532 538 q 647 674 611 593 l 656 674 l 592 369 l 583 369 q 552 483 581 450 q 436 515 524 515 l 281 515 l 190 88 q 192 38 183 54 q 232 22 201 22 l 396 22 q 573 60 511 22 q 724 233 635 99 l 732 233 l 650 0 l -50 0 l -49 8 q 42 47 17 8 q 86 174 68 85 l 228 838 q 238 894 235 874 q 241 939 242 915 q 233 974 240 963 q 208 994 225 986 q 163 1003 190 1003 z "},"F":{"ha":728,"x_min":-50,"x_max":825,"o":"m 163 1003 l 164 1011 l 825 1011 l 799 803 l 790 803 q 719 955 763 921 q 563 989 676 989 l 382 989 l 279 510 l 436 510 q 566 538 526 510 q 642 646 606 565 l 650 646 l 585 342 l 576 342 q 547 455 574 422 q 431 488 519 488 l 275 488 l 208 174 q 198 117 201 138 q 195 72 194 96 q 203 37 196 49 q 228 17 211 25 q 274 8 246 8 l 272 0 l -50 0 l -49 8 q 42 47 17 8 q 86 174 68 85 l 228 838 q 238 894 235 874 q 241 939 242 915 q 233 974 240 963 q 208 994 225 986 q 163 1003 190 1003 z "},"G":{"ha":913,"x_min":61,"x_max":953,"o":"m 432 -17 q 160 91 260 -17 q 61 383 61 199 q 131 696 61 550 q 335 935 200 842 q 640 1028 469 1028 q 953 950 818 1028 l 924 790 l 915 790 q 639 1008 853 1008 q 484 966 557 1008 q 358 854 411 924 q 267 697 306 785 q 208 516 228 610 q 189 335 189 422 q 253 93 189 183 q 438 3 317 3 q 599 40 531 3 q 679 133 668 76 l 711 286 q 724 401 732 361 q 657 446 715 442 l 658 454 l 913 454 l 911 446 q 867 408 882 442 q 833 286 853 375 l 789 83 q 432 -17 622 -17 z "},"H":{"ha":925,"x_min":-50,"x_max":1035,"o":"m 711 1003 l 713 1011 l 1035 1011 l 1033 1003 q 943 965 968 1003 q 899 838 918 928 l 758 174 q 747 53 736 97 q 822 8 757 8 l 821 0 l 499 0 l 500 8 q 591 47 565 8 q 635 174 617 85 l 707 511 l 281 511 l 208 174 q 198 117 201 138 q 195 72 194 96 q 203 37 196 49 q 228 17 211 25 q 274 8 246 8 l 272 0 l -50 0 l -49 8 q 42 47 17 8 q 86 174 68 85 l 228 838 q 238 894 235 874 q 241 939 242 915 q 233 974 240 963 q 208 994 225 986 q 163 1003 190 1003 l 164 1011 l 486 1011 l 485 1003 q 394 965 419 1003 q 350 838 368 926 l 286 536 l 713 536 l 776 838 q 788 958 799 914 q 711 1003 776 1003 z "},"I":{"ha":376,"x_min":-50,"x_max":486,"o":"m 272 0 l -50 0 l -49 8 q 42 47 17 8 q 86 174 68 85 l 228 838 q 238 894 235 874 q 241 939 242 915 q 233 974 240 963 q 208 994 225 986 q 163 1003 190 1003 l 164 1011 l 486 1011 l 485 1003 q 394 965 419 1003 q 350 838 368 926 l 208 174 q 198 117 201 138 q 195 72 194 96 q 203 37 196 49 q 228 17 211 25 q 274 8 246 8 l 272 0 z "},"J":{"ha":365,"x_min":-124,"x_max":482,"o":"m -119 -222 l -124 -215 q 6 -81 -32 -144 q 69 111 43 -17 l 224 838 q 235 958 246 914 q 158 1003 224 1003 l 160 1011 l 482 1011 l 481 1003 q 390 965 415 1003 q 346 838 365 928 l 214 214 q 106 -63 175 31 q -119 -222 38 -157 z "},"K":{"ha":853,"x_min":-50,"x_max":975,"o":"m 350 843 l 208 168 q 198 50 186 92 q 274 8 210 8 l 272 0 l -50 0 l -49 8 q 41 44 17 8 q 85 168 65 79 l 228 843 q 238 961 250 919 q 163 1003 226 1003 l 164 1011 l 486 1011 l 485 1003 q 394 967 419 1003 q 350 843 369 932 m 975 1011 l 974 1003 q 663 783 875 979 l 425 565 q 640 158 536 300 q 806 8 744 17 l 804 0 q 690 -6 758 -6 q 585 31 632 -6 q 474 178 539 68 q 319 500 410 289 l 643 801 q 744 901 717 869 q 772 963 771 933 q 759 991 774 982 q 719 1003 744 1000 l 721 1011 l 975 1011 z "},"L":{"ha":717,"x_min":-50,"x_max":676,"o":"m 590 0 l -50 0 l -49 8 q 42 47 17 8 q 86 174 68 85 l 228 838 q 238 894 235 874 q 241 939 242 915 q 233 974 240 963 q 208 994 225 986 q 163 1003 190 1003 l 164 1011 l 486 1011 l 485 1003 q 394 965 419 1003 q 350 838 368 926 l 190 88 q 231 22 175 22 l 328 22 q 509 65 443 22 q 668 246 575 107 l 676 246 l 590 0 z "},"M":{"ha":1128,"x_min":-74,"x_max":1208,"o":"m 1208 1011 l 1207 1003 q 1115 965 1139 997 q 1076 839 1092 932 l 971 165 q 965 49 953 89 q 1038 8 976 8 l 1036 0 l 718 0 l 719 8 q 810 44 785 8 q 849 165 835 79 l 967 913 l 450 0 l 439 0 l 299 914 l 118 232 q 188 8 60 10 l 186 0 l -74 0 l -72 8 q 27 68 -8 14 q 92 232 63 122 l 256 850 q 255 961 276 929 q 176 1003 233 993 l 178 1011 l 407 1011 l 529 192 l 992 1011 l 1208 1011 z "},"N":{"ha":896,"x_min":-64,"x_max":1015,"o":"m 756 1003 l 757 1011 l 1015 1011 l 1014 1003 q 915 944 949 1003 q 854 760 881 885 l 690 -17 l 682 -17 l 278 911 l 135 238 q 124 73 108 138 q 210 8 139 8 l 207 0 l -64 0 l -61 8 q 46 68 7 8 q 108 238 85 128 l 240 854 q 235 960 256 926 q 150 1003 214 994 l 151 1011 l 365 1011 l 714 210 l 829 760 q 844 936 858 869 q 756 1003 829 1003 z "},"O":{"ha":985,"x_min":61,"x_max":985,"o":"m 444 -17 q 162 90 263 -17 q 61 381 61 197 q 128 694 61 547 q 319 935 194 842 q 599 1028 444 1028 q 883 921 781 1028 q 985 631 985 814 q 918 317 985 464 q 726 76 851 169 q 444 -17 600 -17 m 439 3 q 657 113 558 3 q 806 376 756 222 q 856 679 856 529 q 792 918 856 828 q 607 1008 728 1008 q 388 899 486 1008 q 239 637 289 790 q 189 332 189 483 q 253 93 189 183 q 439 3 318 3 z "},"P":{"ha":732,"x_min":-50,"x_max":788,"o":"m 164 1011 l 496 1011 q 710 946 632 1011 q 788 767 788 881 q 681 524 788 622 q 413 426 575 426 q 267 449 331 426 l 208 174 q 200 52 186 96 q 279 8 214 8 l 278 0 l -50 0 l -49 8 q 42 46 17 8 q 86 174 67 83 l 228 838 q 238 960 250 917 q 163 1003 226 1003 l 164 1011 m 378 456 q 587 554 510 456 q 664 788 664 653 q 617 936 664 883 q 481 989 569 989 l 435 989 q 371 939 381 989 l 282 519 q 281 499 278 510 q 290 478 283 488 q 319 462 297 468 q 378 456 342 456 z "},"Q":{"ha":985,"x_min":61,"x_max":1107,"o":"m 1104 -94 l 1107 -101 q 828 -208 975 -208 q 428 -17 589 -208 q 158 95 254 -11 q 61 381 61 201 q 128 694 61 547 q 319 935 194 842 q 599 1028 444 1028 q 883 921 781 1028 q 985 631 985 814 q 869 231 985 411 q 569 0 754 51 q 712 -117 628 -78 q 889 -157 796 -157 q 1104 -94 1008 -157 m 189 332 q 253 93 189 183 q 439 3 318 3 q 657 113 558 3 q 806 376 756 222 q 856 679 856 529 q 792 918 856 828 q 607 1008 728 1008 q 388 899 486 1008 q 239 637 289 790 q 189 332 189 483 z "},"R":{"ha":792,"x_min":-51,"x_max":792,"o":"m 497 482 q 631 151 564 279 q 747 8 697 22 l 746 0 q 646 -6 710 -6 q 510 101 569 -6 q 378 472 451 207 q 275 485 318 474 l 207 168 q 196 48 185 88 q 271 8 207 8 l 269 0 l -51 0 l -50 8 q 40 44 15 8 q 85 168 65 79 l 229 843 q 238 963 250 924 q 163 1003 226 1003 l 164 1011 l 497 1011 q 715 947 638 1011 q 792 782 792 883 q 706 583 792 663 q 497 482 621 503 m 371 939 l 289 550 q 304 511 283 525 q 390 497 325 497 q 594 581 524 497 q 665 803 665 665 q 619 938 665 886 q 479 989 574 989 l 433 989 q 371 939 381 989 z "},"S":{"ha":656,"x_min":-18,"x_max":710,"o":"m 250 -17 q -18 65 101 -17 l 18 263 l 26 263 q 119 74 51 138 q 282 10 186 10 q 444 67 381 10 q 507 217 507 125 q 504 250 507 233 q 498 279 501 267 q 485 308 494 292 q 472 333 476 324 q 452 358 467 342 q 432 379 438 374 q 408 401 426 385 q 384 422 389 418 q 357 443 379 425 q 332 464 335 461 l 282 503 q 142 750 142 618 q 236 949 142 869 q 463 1028 331 1028 q 710 949 592 1028 l 675 785 l 667 785 q 582 942 646 882 q 428 1001 518 1001 q 290 951 344 1001 q 236 817 236 900 q 368 601 236 704 l 418 563 q 508 485 476 515 q 571 399 540 456 q 601 282 601 343 q 497 69 601 154 q 250 -17 393 -17 z "},"T":{"ha":764,"x_min":110,"x_max":867,"o":"m 867 1011 l 842 803 l 833 803 q 765 955 806 921 q 617 989 724 989 l 576 989 l 403 174 q 392 53 381 97 q 468 8 403 8 l 467 0 l 143 0 l 144 8 q 235 47 210 8 q 281 174 261 85 l 453 989 l 411 989 q 251 954 306 989 q 118 803 196 919 l 110 803 l 171 1011 l 867 1011 z "},"U":{"ha":894,"x_min":75,"x_max":1022,"o":"m 403 -17 q 149 77 222 -17 q 114 349 75 171 l 218 838 q 229 958 240 914 q 153 1003 218 1003 l 156 1011 l 478 1011 l 475 1003 q 385 965 410 1003 q 340 838 360 928 l 238 353 q 247 101 201 186 q 428 17 292 17 q 740 315 676 17 l 835 760 q 850 856 846 814 q 849 932 854 897 q 824 985 843 967 q 769 1003 804 1003 l 772 1011 l 1022 1011 l 1019 1003 q 942 968 975 1003 q 893 885 910 933 q 860 760 876 838 l 765 315 q 403 -17 694 -17 z "},"V":{"ha":824,"x_min":117,"x_max":982,"o":"m 751 1003 l 753 1011 l 982 1011 l 981 1003 q 885 936 933 994 q 763 744 838 878 l 336 -17 l 325 -17 l 207 833 q 176 963 193 926 q 117 1003 158 999 l 118 1011 l 435 1011 l 433 1003 q 326 865 308 994 l 419 185 l 735 751 q 791 860 772 819 q 817 934 810 900 q 807 983 824 968 q 751 1003 790 999 z "},"W":{"ha":1250,"x_min":115,"x_max":1404,"o":"m 1174 1003 l 1175 1011 l 1404 1011 l 1403 1003 q 1307 935 1354 994 q 1190 743 1260 876 l 796 -17 l 785 -17 l 704 682 l 308 -17 l 297 -17 l 206 833 q 177 961 196 924 q 115 1003 158 999 l 117 1011 l 440 1011 l 439 1003 q 345 967 372 999 q 325 871 318 935 l 396 192 l 700 726 l 688 833 q 659 962 678 925 q 596 1003 640 999 l 597 1011 l 921 1011 l 919 1003 q 826 967 851 999 q 807 871 800 936 l 882 207 l 1163 751 q 1201 828 1188 799 q 1228 888 1215 857 q 1242 937 1240 919 q 1238 970 1243 954 q 1216 993 1232 986 q 1174 1003 1200 1000 z "},"X":{"ha":797,"x_min":-87,"x_max":932,"o":"m 683 1003 l 685 1011 l 932 1011 l 931 1003 q 814 943 872 996 q 674 789 756 890 l 481 544 l 632 158 q 742 8 686 22 l 740 0 l 464 0 l 465 8 q 527 42 513 13 q 522 119 542 72 l 390 454 l 196 208 q 138 128 158 163 q 113 69 118 94 q 122 28 108 43 q 169 8 136 14 l 168 0 l -87 0 l -86 8 q 35 69 -26 15 q 175 222 96 124 l 379 481 l 233 853 q 124 1003 179 989 l 125 1011 l 401 1011 l 400 1003 q 339 969 354 999 q 343 892 324 939 l 469 571 l 653 803 q 710 883 690 850 q 737 942 731 915 q 730 983 743 968 q 683 1003 717 997 z "},"Y":{"ha":790,"x_min":135,"x_max":954,"o":"m 724 1003 l 725 1011 l 954 1011 l 953 1003 q 835 931 899 994 q 679 740 772 868 l 478 458 l 417 174 q 406 53 394 97 q 482 8 417 8 l 481 0 l 157 0 l 158 8 q 249 47 224 8 q 294 174 275 85 l 351 440 l 240 833 q 191 963 213 929 q 135 1003 169 997 l 136 1011 l 447 1011 l 446 1003 q 354 871 318 994 l 467 485 l 656 751 q 709 828 689 797 q 746 888 729 858 q 768 935 763 917 q 772 967 774 953 q 758 990 769 982 q 724 1003 746 999 z "},"Z":{"ha":726,"x_min":-67,"x_max":832,"o":"m 204 1011 l 832 1011 l 832 1006 l 90 22 l 343 22 q 519 60 457 22 q 671 233 581 99 l 679 233 l 597 0 l -67 0 l -67 6 l 678 989 l 449 989 q 274 954 333 989 q 132 803 214 919 l 124 803 l 204 1011 z "},"[":{"ha":375,"x_min":-24,"x_max":529,"o":"m 525 1067 l 308 1067 q 204 428 260 692 q 36 -211 149 165 l 253 -211 l 249 -231 l -24 -231 l 257 1086 l 529 1086 l 525 1067 z "},"\\":{"ha":478,"x_min":175,"x_max":358,"o":"m 358 -89 l 331 -89 l 175 1086 l 203 1086 l 358 -89 z "},"]":{"ha":375,"x_min":-128,"x_max":425,"o":"m 149 1067 l 153 1086 l 425 1086 l 144 -231 l -128 -231 l -124 -211 l 94 -211 q 197 428 146 182 q 367 1067 249 675 l 149 1067 z "},"^":{"ha":706,"x_min":82,"x_max":679,"o":"m 497 1028 l 679 497 l 654 483 l 486 975 l 107 483 l 82 497 l 492 1028 l 497 1028 z "},"_":{"ha":525,"x_min":-104,"x_max":429,"o":"m 424 -119 l -104 -119 l -99 -89 l 429 -89 l 424 -119 z "},"`":{"ha":833,"x_min":269,"x_max":421,"o":"m 421 817 l 415 814 q 342 934 396 850 q 278 1039 288 1018 q 269 1068 269 1056 q 285 1103 269 1089 q 319 1117 300 1117 q 365 1082 353 1117 q 390 965 369 1071 q 421 817 410 860 z "},"a":{"ha":710,"x_min":13,"x_max":701,"o":"m 694 201 l 701 196 q 489 -17 590 -17 q 439 131 406 -17 l 474 292 q 328 65 414 146 q 156 -17 242 -17 q 50 36 88 -17 q 13 189 13 89 q 68 442 13 315 q 228 657 124 569 q 456 744 333 744 q 599 688 556 744 l 674 736 l 681 736 l 556 143 q 564 78 540 78 q 694 201 604 78 m 219 51 q 390 187 299 51 q 519 511 481 322 q 526 586 526 550 q 433 725 526 725 q 288 644 360 725 q 174 444 217 564 q 131 213 131 325 q 154 93 131 135 q 219 51 178 51 z "},"b":{"ha":671,"x_min":32,"x_max":657,"o":"m 514 744 q 619 692 582 744 q 657 539 657 639 q 601 285 657 413 q 441 71 546 158 q 214 -17 336 -17 q 81 26 129 -17 q 32 154 32 69 q 42 233 32 193 l 185 908 q 188 1002 197 974 q 142 1039 178 1031 l 143 1047 l 329 1086 l 335 1086 l 199 439 q 343 664 258 583 q 514 744 428 744 m 236 3 q 383 83 311 3 q 497 283 454 164 q 539 515 539 403 q 450 676 539 676 q 281 541 372 676 q 150 217 190 406 q 143 142 143 178 q 236 3 143 3 z "},"c":{"ha":563,"x_min":18,"x_max":596,"o":"m 208 -17 q 69 41 121 -17 q 18 215 18 99 q 74 461 18 339 q 227 664 129 583 q 435 744 325 744 q 553 706 511 744 q 596 607 596 668 l 521 532 l 513 532 q 500 676 524 626 q 425 725 476 725 q 228 569 321 725 q 136 239 136 413 q 260 53 136 53 q 503 214 372 53 l 511 208 q 363 38 436 92 q 208 -17 290 -17 z "},"d":{"ha":710,"x_min":13,"x_max":754,"o":"m 564 78 q 619 113 582 78 q 694 201 656 149 l 701 196 q 489 -17 589 -17 q 439 131 406 -17 l 474 293 q 328 65 414 146 q 156 -17 242 -17 q 50 36 88 -17 q 13 189 13 89 q 68 442 13 315 q 228 657 124 569 q 454 744 332 744 q 564 718 521 744 l 604 908 q 607 1003 617 975 q 563 1039 597 1031 l 564 1047 l 749 1086 l 754 1086 l 554 143 q 564 78 539 78 m 218 51 q 389 187 297 51 q 519 511 481 322 q 526 586 526 550 q 433 725 526 725 q 287 644 358 725 q 173 444 215 564 q 131 213 131 325 q 218 51 131 51 z "},"e":{"ha":576,"x_min":17,"x_max":600,"o":"m 600 638 q 490 487 600 550 q 147 354 379 424 q 135 238 135 297 q 258 51 135 51 q 515 214 381 51 l 524 208 q 207 -18 378 -18 q 69 40 121 -18 q 17 211 17 99 q 47 388 17 296 q 129 560 76 479 q 266 692 182 640 q 449 744 350 744 q 562 716 524 744 q 600 638 600 688 m 426 724 q 266 621 346 724 q 153 378 186 518 q 415 501 333 442 q 496 643 496 560 q 426 724 496 724 z "},"f":{"ha":389,"x_min":-197,"x_max":610,"o":"m 532 1089 q 610 1082 568 1089 l 576 979 l 568 979 q 446 1044 490 1044 q 308 857 350 1044 l 281 728 l 467 728 l 436 678 l 271 678 l 124 -18 q -197 -317 67 -283 l -197 -308 q -67 -225 -114 -289 q 4 -49 -19 -161 l 158 678 l 86 678 l 89 692 l 169 728 q 301 996 206 903 q 532 1089 396 1089 z "},"g":{"ha":631,"x_min":-72,"x_max":696,"o":"m 481 707 l 696 738 l 663 667 l 510 681 q 561 542 561 626 q 480 338 561 424 q 279 251 399 253 q 198 222 219 235 q 176 188 176 208 q 218 149 176 161 l 363 110 q 531 43 475 78 q 586 -58 586 8 q 458 -253 586 -172 q 163 -333 329 -333 q -13 -288 46 -333 q -72 -168 -72 -243 q -22 -45 -72 -100 q 119 36 29 10 l 142 40 l 147 39 q 18 -135 18 -25 q 74 -245 18 -203 q 239 -287 131 -287 q 432 -240 353 -287 q 511 -124 511 -193 q 483 -59 511 -86 q 422 -20 454 -32 q 338 6 390 -8 l 167 51 q 82 139 82 75 q 229 256 82 222 q 106 322 151 268 q 61 456 61 375 q 144 659 61 574 q 346 744 226 744 q 481 707 425 744 m 271 271 q 405 374 353 271 q 457 585 457 476 q 354 725 457 725 q 218 623 271 725 q 165 413 165 521 q 271 271 165 271 z "},"h":{"ha":708,"x_min":0,"x_max":703,"o":"m 696 201 l 703 196 q 593 39 649 94 q 489 -17 538 -17 q 439 131 404 -17 l 519 489 q 538 610 540 557 q 490 663 535 663 q 284 462 400 663 q 113 0 168 261 l 0 0 l 192 908 q 194 1002 204 974 q 149 1039 185 1031 l 151 1047 l 336 1086 l 342 1086 l 169 271 q 352 614 247 483 q 560 744 457 744 q 624 724 601 744 q 651 665 647 704 q 651 581 656 625 q 632 478 646 538 l 556 143 q 561 72 538 72 q 696 201 599 72 z "},"i":{"ha":331,"x_min":25,"x_max":349,"o":"m 271 860 q 215 883 238 860 q 192 938 192 906 q 215 992 192 969 q 271 1015 238 1015 q 326 992 303 1015 q 349 938 349 969 q 326 883 349 906 q 271 860 303 860 m 108 -17 q 58 131 25 -17 l 156 585 q 147 656 171 656 q 42 554 119 656 l 35 560 q 130 696 79 647 q 224 744 181 744 q 271 597 301 744 l 175 143 q 183 78 161 78 q 315 201 222 78 l 322 196 q 108 -17 210 -17 z "},"j":{"ha":303,"x_min":-175,"x_max":354,"o":"m 331 883 q 320 871 331 883 q 276 860 308 860 q 222 883 244 860 q 199 938 199 906 q 222 992 199 969 q 276 1015 244 1015 q 331 992 308 1015 q 354 938 354 969 q 331 883 354 906 m -175 -317 l -175 -308 q -44 -225 -92 -289 q 26 -49 3 -161 l 161 585 q 153 656 179 656 q 47 554 126 656 l 40 560 q 135 696 85 647 q 229 744 186 744 q 276 597 308 744 l 146 -18 q -175 -317 89 -283 z "},"k":{"ha":663,"x_min":0,"x_max":671,"o":"m 503 83 q 633 207 551 83 l 640 201 q 442 -17 531 -17 q 339 72 382 -17 q 250 360 296 161 q 485 503 436 463 q 550 615 550 557 q 494 672 550 672 q 298 534 400 672 q 167 256 196 396 l 113 0 l 0 0 l 192 908 q 194 1002 204 974 q 149 1039 185 1031 l 151 1047 l 336 1086 l 342 1086 l 199 401 q 360 645 260 546 q 567 744 460 744 q 642 721 613 744 q 671 650 671 697 q 596 524 671 582 q 358 393 521 467 q 429 155 397 226 q 503 83 461 83 z "},"l":{"ha":303,"x_min":-3,"x_max":346,"o":"m 81 -17 q 31 131 -3 -17 l 196 908 q 199 1003 208 975 q 154 1039 189 1031 l 156 1047 l 340 1086 l 346 1086 l 146 143 q 156 78 131 78 q 213 115 175 78 q 289 203 250 151 l 296 197 q 81 -17 182 -17 z "},"m":{"ha":1158,"x_min":32,"x_max":1151,"o":"m 1144 201 l 1151 196 q 1042 40 1099 96 q 939 -17 986 -17 q 888 131 853 -17 l 969 489 q 987 610 990 557 q 939 663 983 663 q 733 463 849 663 q 561 0 618 263 l 450 0 l 551 489 q 569 610 571 557 q 522 663 567 663 q 316 462 432 663 q 143 0 200 261 l 32 0 l 156 585 q 147 656 171 656 q 42 554 119 656 l 35 560 q 130 696 79 647 q 224 744 181 744 q 271 597 301 744 l 201 272 q 384 615 279 485 q 590 744 489 744 q 655 724 632 744 q 682 664 678 704 q 681 581 686 624 q 664 478 676 539 l 617 267 q 800 613 694 481 q 1008 744 906 744 q 1073 724 1050 744 q 1100 665 1096 704 q 1099 582 1104 625 q 1081 478 1094 539 l 1004 143 q 1010 72 986 72 q 1144 201 1049 72 z "},"n":{"ha":740,"x_min":32,"x_max":733,"o":"m 726 201 l 733 196 q 625 40 681 96 q 521 -17 569 -17 q 469 131 435 -17 l 551 489 q 569 610 572 557 q 522 663 567 663 q 316 462 432 663 q 143 0 200 261 l 32 0 l 156 585 q 147 656 171 656 q 42 554 119 656 l 35 560 q 130 696 79 647 q 224 744 181 744 q 271 597 301 744 l 199 265 q 382 613 276 481 q 590 744 488 744 q 655 724 632 744 q 683 665 678 704 q 683 581 688 625 q 664 478 678 538 l 586 143 q 585 74 574 82 q 593 72 589 72 q 726 201 631 72 z "},"o":{"ha":683,"x_min":26,"x_max":654,"o":"m 279 -17 q 96 60 165 -17 q 26 268 26 138 q 137 596 26 447 q 403 744 247 744 q 586 667 518 744 q 654 458 654 590 q 606 233 654 342 q 470 53 558 124 q 279 -17 382 -17 m 276 3 q 416 90 353 3 q 510 292 479 176 q 540 514 540 407 q 507 668 540 611 q 406 725 474 725 q 266 638 329 725 q 172 436 203 551 q 142 214 142 321 q 176 60 142 117 q 276 3 210 3 z "},"p":{"ha":700,"x_min":-106,"x_max":676,"o":"m 438 744 q 616 669 556 744 q 676 472 676 594 q 553 134 676 285 q 250 -17 431 -17 q 138 7 181 -17 l 100 -172 q 89 -231 92 -211 q 88 -272 86 -251 q 100 -300 89 -292 q 132 -308 111 -308 l 131 -317 l -106 -317 l -104 -308 q -46 -276 -64 -308 q -14 -172 -28 -244 l 154 618 q 18 543 88 585 l 13 551 q 163 660 88 617 l 188 776 l 307 849 l 314 849 l 286 717 q 438 744 367 744 m 274 3 q 415 69 349 3 q 521 239 482 135 q 560 453 560 343 q 517 625 560 563 q 386 688 475 688 q 276 668 339 688 l 181 213 q 172 132 172 165 q 274 3 172 3 z "},"q":{"ha":681,"x_min":13,"x_max":681,"o":"m 681 736 l 489 -172 q 478 -231 481 -210 q 476 -273 475 -253 q 489 -301 478 -293 q 521 -308 500 -308 l 519 -317 l 285 -317 l 286 -308 q 342 -278 325 -308 q 376 -172 360 -249 l 476 297 q 330 66 417 149 q 156 -17 243 -17 q 50 36 88 -17 q 13 189 13 89 q 68 442 13 315 q 228 657 124 569 q 456 744 333 744 q 599 688 556 744 l 672 736 l 681 736 m 219 51 q 390 187 299 51 q 519 511 481 322 q 526 586 526 550 q 433 725 526 725 q 288 644 360 725 q 174 444 217 564 q 131 213 131 325 q 154 93 131 135 q 219 51 178 51 z "},"r":{"ha":499,"x_min":32,"x_max":571,"o":"m 513 744 q 571 733 549 744 l 518 614 l 510 614 q 463 625 488 625 q 363 572 411 625 q 274 428 314 519 q 201 231 233 336 q 143 0 169 125 l 32 0 l 156 585 q 161 611 160 604 q 163 632 163 618 q 160 651 164 646 q 147 656 156 656 q 42 554 119 656 l 35 560 q 130 696 79 647 q 224 744 181 744 q 271 597 301 744 l 213 329 q 513 744 347 744 z "},"s":{"ha":481,"x_min":-32,"x_max":488,"o":"m 164 -17 q 51 4 104 -17 q -32 57 -3 25 l 4 167 l 13 167 q 84 55 31 100 q 203 10 138 10 q 297 50 260 10 q 335 149 335 90 q 317 213 335 182 q 281 261 300 243 q 219 315 263 279 l 181 347 q 131 390 149 372 q 99 444 114 408 q 83 524 83 479 q 148 681 83 617 q 310 744 213 744 q 488 688 396 744 l 461 582 l 453 582 q 386 678 432 638 q 282 718 340 718 q 197 678 229 718 q 164 589 164 639 q 178 528 164 557 q 208 484 192 500 q 253 443 224 468 l 292 411 q 388 316 358 357 q 417 211 417 275 q 345 48 417 113 q 164 -17 274 -17 z "},"t":{"ha":422,"x_min":32,"x_max":517,"o":"m 486 678 l 271 678 l 164 171 q 192 68 144 68 q 396 246 263 68 l 403 240 q 263 55 342 126 q 119 -17 185 -17 q 49 32 67 -17 q 49 160 32 81 l 160 678 l 86 678 l 90 692 l 111 700 q 215 772 167 724 q 313 910 264 819 l 321 910 l 283 728 l 517 728 l 486 678 z "},"u":{"ha":740,"x_min":33,"x_max":732,"o":"m 725 201 l 732 196 q 624 39 679 94 q 518 -17 568 -17 q 468 131 438 -17 l 539 457 q 356 114 460 244 q 149 -17 251 -17 q 84 3 107 -17 q 57 63 61 24 q 58 146 53 103 q 76 250 63 189 l 153 585 q 147 656 168 656 q 40 554 118 656 l 33 560 q 127 696 78 647 q 218 744 176 744 q 269 597 304 744 l 188 239 q 169 118 167 171 q 217 65 172 65 q 419 258 303 65 q 592 713 535 450 l 701 731 l 708 731 l 583 143 q 592 72 568 72 q 725 201 629 72 z "},"v":{"ha":625,"x_min":24,"x_max":625,"o":"m 178 -17 q 82 250 24 -17 l 154 585 q 147 656 168 656 q 38 551 118 656 l 31 557 q 224 744 129 744 q 271 597 304 744 l 193 239 q 254 57 156 57 q 390 140 324 57 q 495 336 457 224 q 533 543 533 449 q 469 719 533 675 l 469 728 l 569 744 q 625 607 625 701 q 555 353 625 500 q 377 94 485 206 q 178 -17 269 -17 z "},"w":{"ha":975,"x_min":31,"x_max":972,"o":"m 819 728 l 917 744 q 972 607 972 701 q 906 353 972 500 q 735 94 840 206 q 538 -17 631 -17 q 443 71 465 -17 q 443 260 421 158 q 324 63 396 143 q 176 -17 253 -17 q 94 22 122 -17 q 67 120 67 61 q 81 250 68 179 l 154 585 q 146 656 167 656 q 38 551 118 656 l 31 557 q 224 744 129 744 q 269 597 304 744 l 193 239 q 250 57 156 57 q 394 214 322 57 q 507 553 467 371 l 540 706 l 650 731 l 656 731 q 633 638 650 706 q 610 542 617 569 q 592 459 604 514 q 574 375 579 404 q 561 306 568 346 q 551 235 554 265 q 549 181 549 206 q 622 57 549 57 q 749 140 688 57 q 846 336 811 224 q 881 543 881 449 q 819 719 881 672 l 819 728 z "},"x":{"ha":663,"x_min":-43,"x_max":671,"o":"m 572 661 q 520 635 544 661 q 467 561 496 608 l 372 406 l 450 160 q 475 99 463 119 q 507 79 488 79 q 626 211 551 79 l 633 206 q 549 39 589 94 q 458 -17 508 -17 q 417 -7 435 -17 q 386 24 399 3 q 367 60 374 46 q 351 103 361 75 l 288 306 l 172 113 q 101 17 136 51 q 22 -17 67 -17 q -43 56 -33 -17 l 18 154 l 24 154 q 69 65 24 65 q 171 163 113 65 l 278 336 l 204 568 q 190 610 196 596 q 172 638 183 625 q 144 651 160 651 q 61 544 114 651 l 54 547 q 113 697 81 649 q 192 744 144 744 q 249 723 225 744 q 281 681 272 701 q 301 625 290 661 l 363 435 l 468 615 q 610 744 543 744 q 660 708 650 744 q 649 629 671 672 l 621 571 l 615 571 q 572 661 615 661 z "},"y":{"ha":640,"x_min":-144,"x_max":622,"o":"m 464 728 l 564 744 q 622 592 622 697 q 518 215 622 432 q 258 -164 414 -3 q -28 -325 101 -325 q -144 -281 -99 -325 l -101 -189 l -93 -189 q 39 -269 -36 -269 q 189 -185 124 -269 q 254 76 254 -101 q 205 451 254 256 q 101 646 156 646 q 38 538 68 646 l 31 540 q 144 744 54 744 q 253 649 204 744 q 327 414 301 554 q 353 129 353 274 q 338 -36 353 33 q 536 517 536 238 q 464 719 536 665 l 464 728 z "},"z":{"ha":558,"x_min":-31,"x_max":601,"o":"m 593 756 l 601 756 q 549 660 601 707 l 63 149 q 200 117 90 147 q 361 88 310 88 q 444 117 413 88 q 513 232 476 147 l 521 232 l 507 169 q 492 113 499 133 q 473 64 486 92 q 444 21 460 36 q 401 -6 428 6 q 340 -17 375 -17 q 163 17 285 -17 q 17 51 42 51 q 1 -17 1 36 l -7 -17 q -31 49 -31 19 q 11 129 -31 92 l 474 614 q 348 629 428 615 q 229 643 268 643 q 134 617 169 643 q 64 531 99 592 l 56 531 l 76 592 q 257 744 131 744 q 382 731 297 744 q 494 717 467 717 q 593 756 565 717 z "},"{":{"ha":350,"x_min":-32,"x_max":496,"o":"m 454 1086 l 496 1086 l 492 1067 l 457 1067 q 318 1012 368 1067 q 268 861 268 957 q 279 755 268 825 q 290 653 290 685 q 235 508 290 568 q 93 428 179 447 q 183 378 150 413 q 217 294 217 343 q 140 95 217 232 q 63 -103 63 -42 q 185 -211 63 -211 l 219 -211 l 215 -231 l 174 -231 q 26 -192 83 -231 q -32 -82 -32 -153 q 53 128 -32 -19 q 138 332 138 276 q 43 419 138 410 l 46 436 q 193 604 193 450 q 181 722 193 642 q 168 842 168 803 q 251 1022 168 957 q 454 1086 333 1086 z "},"|":{"ha":238,"x_min":7,"x_max":286,"o":"m 36 -89 l 7 -89 l 257 1086 l 286 1086 l 36 -89 z "},"}":{"ha":350,"x_min":-121,"x_max":407,"o":"m 238 524 q 332 436 238 446 l 329 419 q 182 251 182 406 q 194 133 182 214 q 207 14 207 53 q 125 -166 207 -101 q -79 -231 43 -231 l -121 -231 l -117 -211 l -82 -211 q 58 -156 7 -211 q 108 -6 108 -101 q 97 101 108 31 q 86 203 86 171 q 141 348 86 288 q 282 428 196 408 q 192 478 226 443 q 158 561 158 514 q 236 760 158 624 q 314 958 314 897 q 190 1067 314 1067 l 156 1067 l 160 1086 l 201 1086 q 349 1047 292 1086 q 407 938 407 1008 q 322 727 407 875 q 238 524 238 579 z "},"~":{"ha":706,"x_min":90,"x_max":679,"o":"m 106 442 l 90 446 q 258 597 151 597 q 396 537 306 597 q 532 476 486 476 q 664 599 614 476 l 679 594 q 511 443 618 443 q 374 503 464 443 q 238 564 283 564 q 106 442 156 564 z "}," ":{"ha":289,"x_min":0,"x_max":0,"o":""},"¡":{"ha":267,"x_min":-74,"x_max":281,"o":"m 144 732 q 156 744 144 732 q 200 756 168 756 q 256 732 232 756 q 281 676 281 708 q 256 619 281 643 q 200 596 232 596 q 144 619 168 596 q 121 676 121 643 q 144 732 121 708 m 151 474 l 163 474 q 126 185 149 374 q 86 -133 103 -3 q 67 -276 69 -264 q -4 -333 54 -333 q -54 -309 -35 -333 q -68 -256 -74 -285 q -27 -116 -65 -242 q 67 191 11 10 q 151 474 122 372 z "},"¢":{"ha":604,"x_min":38,"x_max":615,"o":"m 514 867 l 476 743 q 579 701 543 738 q 615 607 615 664 l 540 532 l 532 532 q 469 721 553 699 l 267 53 l 279 53 q 522 214 392 53 l 531 208 q 246 -17 392 -7 l 208 -139 l 183 -139 l 219 -17 q 86 44 135 -14 q 38 215 38 101 q 92 460 38 339 q 244 663 147 582 q 451 744 342 744 l 489 867 l 514 867 m 243 58 l 446 725 l 444 725 q 308 652 375 725 q 198 465 240 579 q 156 239 156 351 q 243 58 156 82 z "},"£":{"ha":718,"x_min":-39,"x_max":701,"o":"m 486 1008 q 315 713 315 1008 q 319 593 315 675 q 322 483 322 511 l 610 483 l 581 442 l 322 442 q 190 122 321 253 q 249 108 196 121 q 322 92 301 96 q 381 83 342 89 q 451 78 421 78 q 561 105 522 78 q 646 206 600 132 l 654 206 q 565 40 614 96 q 426 -17 517 -17 q 329 4 378 -17 q 231 57 281 25 q 164 97 182 89 q -31 -17 81 26 l -39 -17 l -26 42 q 9 116 -15 93 q 83 139 33 139 q 168 128 117 139 q 246 369 246 226 q 240 442 246 408 l 75 442 l 104 483 l 235 483 q 210 701 210 669 q 281 940 210 851 q 492 1028 353 1028 q 701 968 599 1028 l 661 778 l 653 778 q 606 954 647 900 q 486 1008 564 1008 z "},"¤":{"ha":735,"x_min":106,"x_max":667,"o":"m 568 624 q 631 461 631 554 q 568 299 631 368 l 667 200 l 647 181 l 549 279 q 386 218 478 218 q 224 279 294 218 l 125 181 l 106 200 l 204 299 q 142 461 142 368 q 204 624 142 554 l 106 722 l 125 742 l 224 643 q 386 704 294 704 q 549 643 478 704 l 647 742 l 667 722 l 568 624 m 235 309 q 266 277 235 309 q 386 246 297 246 q 538 309 475 246 q 600 461 600 372 q 538 613 600 550 q 386 676 475 676 q 235 613 297 676 q 172 461 172 550 q 235 309 172 372 z "},"¥":{"ha":865,"x_min":113,"x_max":978,"o":"m 747 1003 l 749 1011 l 978 1011 l 976 1003 q 860 932 922 994 q 704 740 797 869 l 504 463 l 729 463 l 724 435 l 496 435 l 469 310 l 697 310 l 690 282 l 464 282 l 440 174 q 429 53 418 97 q 506 8 440 8 l 504 0 l 182 0 l 183 8 q 274 46 249 8 q 318 174 299 83 l 342 282 l 113 282 l 118 310 l 347 310 l 374 435 l 144 435 l 150 463 l 368 463 l 264 833 q 216 963 238 929 q 160 1003 194 997 l 161 1011 l 471 1011 l 469 1003 q 379 871 343 994 l 490 486 l 679 751 q 754 861 729 821 q 791 933 779 901 q 792 981 803 965 q 747 1003 781 996 z "},"¦":{"ha":238,"x_min":7,"x_max":286,"o":"m 176 568 l 147 568 l 257 1086 l 286 1086 l 176 568 m 36 -89 l 7 -89 l 117 429 l 146 429 l 36 -89 z "},"§":{"ha":653,"x_min":21,"x_max":663,"o":"m 451 1028 q 663 925 586 1028 l 618 782 l 610 782 q 569 950 608 893 q 457 1007 529 1007 q 349 953 393 1007 q 304 826 304 899 q 348 690 304 763 q 443 559 392 617 q 538 415 494 501 q 582 240 582 329 q 478 -32 582 86 q 231 -150 375 -150 q 21 -47 101 -150 l 65 96 l 74 96 q 226 -129 78 -129 q 335 -75 290 -129 q 379 51 379 -21 q 351 160 379 104 q 281 268 322 217 q 199 373 240 319 q 130 495 158 426 q 101 636 101 564 q 204 909 101 790 q 451 1028 307 1028 m 531 236 q 503 365 531 301 q 435 480 475 428 q 354 583 394 532 q 286 694 314 633 q 258 818 258 756 q 290 943 258 882 q 153 642 153 831 q 181 513 153 576 q 249 398 208 450 q 329 295 289 346 q 397 183 369 244 q 425 60 425 122 q 393 -65 425 -4 q 531 236 531 47 z "},"¨":{"ha":833,"x_min":221,"x_max":606,"o":"m 349 876 q 339 865 349 876 q 296 854 328 854 q 242 876 264 854 q 221 929 221 897 q 242 983 221 961 q 296 1004 264 1004 q 349 983 328 1004 q 371 929 371 961 q 349 876 371 897 m 532 854 q 478 876 500 854 q 456 929 456 897 q 478 983 456 961 q 532 1004 500 1004 q 584 982 563 1004 q 606 929 606 960 q 584 876 606 899 q 532 854 563 854 z "},"©":{"ha":1115,"x_min":101,"x_max":1074,"o":"m 935 133 q 866 58 935 133 q 588 -17 797 -17 q 240 133 378 -17 q 101 507 101 282 q 240 879 101 731 q 588 1028 379 1028 q 935 879 796 1028 q 1074 507 1074 731 q 935 133 1074 282 m 260 151 q 325 80 260 151 q 588 8 390 8 q 915 151 785 8 q 1046 507 1046 293 q 915 862 1046 721 q 588 1003 785 1003 q 260 862 390 1003 q 129 507 129 721 q 260 151 129 293 m 606 188 q 399 275 479 188 q 319 504 319 363 q 399 734 319 644 q 606 824 479 824 q 794 778 703 824 l 799 669 l 790 669 q 603 804 728 804 q 467 720 521 804 q 414 506 414 636 q 467 292 414 376 q 603 207 521 207 q 794 357 744 207 l 803 357 l 789 231 q 606 188 703 188 z "},"ª":{"ha":503,"x_min":113,"x_max":551,"o":"m 546 686 l 551 682 q 414 547 481 547 q 382 639 363 547 l 403 733 q 312 596 365 644 q 204 547 258 547 q 137 581 161 547 q 113 676 113 614 q 194 915 113 803 q 393 1028 276 1028 q 485 992 456 1028 l 533 1022 l 539 1022 l 458 649 q 464 607 449 607 q 546 686 488 607 m 244 590 q 351 676 294 590 q 433 881 408 763 q 439 928 439 911 q 379 1015 439 1015 q 249 909 308 1015 q 190 693 190 803 q 244 590 190 590 z "},"«":{"ha":528,"x_min":47,"x_max":553,"o":"m 353 728 l 361 728 l 154 369 l 211 28 l 203 28 l 47 378 l 353 728 m 544 728 l 553 728 l 371 368 l 403 28 l 394 28 l 264 378 l 544 728 z "},"¬":{"ha":706,"x_min":68,"x_max":635,"o":"m 68 492 l 68 519 l 635 519 l 635 214 l 604 214 l 604 492 l 68 492 z "},"­":{"ha":326,"x_min":26,"x_max":319,"o":"m 306 382 l 26 382 l 42 444 l 319 444 l 306 382 z "},"®":{"ha":829,"x_min":131,"x_max":821,"o":"m 476 1028 q 722 921 624 1028 q 821 654 821 814 q 722 386 821 493 q 476 279 624 279 q 229 386 328 279 q 131 654 131 493 q 229 921 131 814 q 476 1028 328 1028 m 249 404 q 295 354 249 404 q 476 304 340 304 q 703 403 613 304 q 793 654 793 503 q 703 903 793 804 q 476 1003 613 1003 q 249 903 340 1003 q 158 654 158 804 q 249 404 158 504 m 576 583 q 640 471 621 497 q 679 440 658 444 l 679 432 q 626 429 654 429 q 568 459 590 429 q 488 614 546 489 q 453 638 476 638 l 426 638 l 426 513 q 433 456 426 472 q 468 440 440 440 l 468 432 l 318 432 l 318 440 q 351 456 344 440 q 357 513 357 471 l 357 794 q 351 851 357 836 q 318 867 344 867 l 318 875 l 475 875 q 588 845 547 875 q 629 761 629 815 q 602 689 629 719 q 529 644 575 658 q 576 583 554 629 m 426 840 l 426 653 l 469 653 q 561 754 561 653 q 536 832 561 804 q 465 860 511 860 l 443 860 q 426 840 426 860 z "},"¯":{"ha":833,"x_min":218,"x_max":604,"o":"m 590 875 l 218 875 l 232 928 l 604 928 l 590 875 z "},"°":{"ha":446,"x_min":129,"x_max":514,"o":"m 294 644 q 174 689 218 644 q 129 803 129 733 q 192 961 129 894 q 346 1028 254 1028 q 467 983 421 1028 q 514 868 514 939 q 450 711 514 778 q 294 644 386 644 m 290 661 q 400 731 354 661 q 446 883 446 801 q 421 976 446 940 q 351 1011 396 1011 q 241 940 286 1011 q 196 788 196 869 q 221 696 196 731 q 290 661 246 661 z "},"±":{"ha":706,"x_min":90,"x_max":657,"o":"m 389 797 l 389 519 l 657 519 l 657 492 l 389 492 l 389 214 l 358 214 l 358 492 l 90 492 l 90 519 l 358 519 l 358 797 l 389 797 m 657 0 l 90 0 l 90 28 l 657 28 l 657 0 z "},"²":{"ha":418,"x_min":38,"x_max":465,"o":"m 122 508 l 282 508 q 371 520 342 508 q 426 572 400 532 l 435 572 l 372 444 l 38 444 l 39 450 l 149 549 q 260 653 218 611 q 343 760 303 696 q 383 878 383 825 q 360 947 383 922 q 296 972 336 972 q 146 839 194 972 l 138 839 q 209 972 156 925 q 332 1019 263 1019 q 429 985 393 1019 q 465 897 465 951 q 460 855 465 876 q 441 810 454 833 q 415 769 428 788 q 377 726 401 750 q 335 684 353 701 q 285 640 318 667 q 234 598 253 613 q 178 553 215 583 q 122 508 140 522 z "},"³":{"ha":393,"x_min":53,"x_max":438,"o":"m 304 768 l 299 765 q 380 709 351 746 q 408 624 408 672 q 347 491 408 549 q 200 433 285 433 q 53 481 114 433 l 83 578 l 92 578 q 122 484 93 518 q 200 450 150 450 q 301 494 260 450 q 343 597 343 538 q 225 725 343 700 l 211 728 l 211 736 l 238 750 q 280 774 264 764 q 322 804 296 783 q 361 851 347 825 q 375 907 375 878 q 297 979 375 979 q 217 951 254 979 q 167 885 181 922 l 158 885 q 221 982 176 944 q 328 1019 265 1019 q 409 994 381 1019 q 438 926 438 969 q 304 768 438 836 z "},"´":{"ha":833,"x_min":376,"x_max":640,"o":"m 382 814 l 376 818 q 437 915 394 846 q 512 1038 479 985 q 554 1100 544 1090 q 592 1117 574 1117 q 626 1103 611 1117 q 640 1071 640 1090 q 619 1029 640 1050 q 382 814 578 988 z "},"µ":{"ha":714,"x_min":-72,"x_max":706,"o":"m 699 201 l 706 196 q 490 -17 593 -17 q 442 132 408 -17 l 514 463 q 331 116 436 249 q 122 -17 225 -17 q 106 -15 111 -17 l 47 -287 l -67 -317 l -72 -317 l 49 249 l 151 731 l 261 742 l 267 742 l 160 239 q 143 118 140 171 q 189 65 146 65 q 392 261 275 65 q 569 731 508 457 l 678 742 l 683 742 l 557 143 q 565 72 539 72 q 699 201 601 72 z "},"¶":{"ha":674,"x_min":64,"x_max":779,"o":"m 472 1056 l 779 1056 l 778 1047 q 686 1007 713 1047 q 640 875 660 967 l 460 18 q 372 -157 439 -82 q 228 -268 306 -232 q 64 -317 150 -304 l 64 -308 q 253 -49 206 -271 l 361 460 q 178 542 243 474 q 114 717 114 610 q 212 967 114 879 q 472 1056 310 1056 m 435 21 l 649 1033 l 508 1033 l 278 -51 q 157 -276 243 -215 q 335 -167 261 -242 q 435 21 410 -93 z "},"·":{"ha":251,"x_min":50,"x_max":210,"o":"m 131 307 q 74 331 97 307 q 50 386 50 354 q 74 443 50 419 q 131 467 97 467 q 186 443 163 467 q 210 386 210 419 q 186 331 210 354 q 131 307 163 307 z "},"¸":{"ha":833,"x_min":193,"x_max":461,"o":"m 372 0 l 329 -67 q 424 -94 388 -69 q 461 -167 461 -118 q 417 -258 461 -221 q 301 -294 372 -294 q 193 -251 243 -294 l 199 -244 q 297 -274 239 -274 q 360 -251 335 -274 q 385 -196 385 -228 q 365 -155 385 -169 q 322 -137 344 -140 q 264 -135 300 -135 l 350 0 l 372 0 z "},"¹":{"ha":278,"x_min":53,"x_max":322,"o":"m 322 1021 l 218 531 q 220 467 208 485 q 274 450 232 450 l 272 442 l 53 442 l 54 450 q 117 468 97 450 q 149 531 138 486 l 226 894 q 126 865 171 871 l 128 874 q 314 1021 238 908 l 322 1021 z "},"º":{"ha":460,"x_min":119,"x_max":518,"o":"m 281 547 q 163 595 207 547 q 119 726 119 643 q 190 935 119 840 q 358 1029 261 1029 q 474 981 431 1029 q 518 850 518 933 q 448 642 518 736 q 281 547 378 547 m 279 564 q 396 673 347 564 q 444 890 444 782 q 358 1013 444 1013 q 274 957 313 1013 q 215 827 235 901 q 194 686 194 753 q 279 564 194 564 z "},"»":{"ha":524,"x_min":-21,"x_max":483,"o":"m 129 728 l 138 728 l 267 378 l -12 28 l -21 28 l 161 388 l 129 728 m 319 728 l 328 728 l 483 378 l 178 28 l 169 28 l 376 386 l 319 728 z "},"¼":{"ha":889,"x_min":11,"x_max":868,"o":"m 338 450 l 336 442 l 118 442 l 119 450 q 182 468 161 450 q 213 531 203 486 l 290 894 q 190 865 232 871 l 193 874 q 378 1021 301 908 l 386 1021 l 283 531 q 284 467 272 485 q 338 450 296 450 m 11 0 l 836 1011 l 868 1011 l 43 0 l 11 0 m 700 215 l 760 215 q 807 229 794 215 l 815 229 l 782 158 l 688 158 l 674 93 q 670 26 663 44 q 710 8 678 8 l 708 0 l 532 0 l 533 8 q 580 26 565 8 q 604 93 594 43 l 618 158 l 399 158 l 389 183 l 768 578 l 776 578 l 700 215 m 444 215 l 629 215 l 682 464 l 444 215 z "},"½":{"ha":938,"x_min":7,"x_max":864,"o":"m 333 450 l 332 442 l 114 442 l 115 450 q 178 468 157 450 q 208 531 199 486 l 286 894 q 186 865 228 871 l 189 874 q 374 1021 297 908 l 382 1021 l 279 531 q 280 467 268 485 q 333 450 292 450 m 7 0 l 832 1011 l 864 1011 l 39 0 l 7 0 m 833 456 q 828 413 833 435 q 809 369 822 392 q 783 327 796 346 q 745 284 769 308 q 703 242 721 260 q 653 198 686 225 q 602 156 621 171 q 546 111 583 142 q 490 67 508 81 l 651 67 q 739 78 710 67 q 794 131 768 90 l 803 131 l 740 3 l 406 3 l 407 8 l 517 107 q 628 212 586 169 q 711 319 671 254 q 751 436 751 383 q 728 506 751 481 q 664 531 704 531 q 514 397 563 531 l 506 397 q 578 531 525 483 q 701 578 631 578 q 797 544 761 578 q 833 456 833 510 z "},"¾":{"ha":979,"x_min":65,"x_max":957,"o":"m 421 624 q 359 491 421 549 q 213 433 297 433 q 65 481 126 433 l 96 578 l 104 578 q 134 484 106 518 q 213 450 163 450 q 314 494 272 450 q 356 597 356 538 q 238 725 356 700 l 224 728 l 224 736 l 250 750 q 292 774 276 764 q 334 804 308 783 q 374 851 360 825 q 388 907 388 878 q 310 979 388 979 q 230 951 267 979 q 179 885 193 922 l 171 885 q 233 982 189 944 q 340 1019 278 1019 q 422 994 393 1019 q 450 926 450 969 q 317 768 450 836 l 311 765 q 392 709 364 746 q 421 624 421 672 m 100 0 l 925 1011 l 957 1011 l 132 0 l 100 0 m 790 215 l 849 215 q 896 229 886 215 l 904 229 l 871 158 l 778 158 l 764 93 q 760 26 753 44 q 799 8 768 8 l 797 0 l 621 0 l 622 8 q 669 26 654 8 q 693 93 683 43 l 707 158 l 489 158 l 479 183 l 858 578 l 867 578 l 790 215 m 533 215 l 719 215 l 772 464 l 533 215 z "},"¿":{"ha":579,"x_min":-74,"x_max":478,"o":"m 338 733 q 350 745 338 733 q 396 757 363 757 q 453 733 429 757 q 478 675 478 708 q 453 617 478 642 q 396 593 429 593 q 338 617 363 593 q 314 675 314 642 q 338 733 314 708 m 339 475 q 381 460 367 475 q 396 422 396 444 q 358 344 396 390 q 268 244 321 297 q 163 130 215 190 q 72 -8 110 69 q 35 -161 35 -86 q 72 -272 35 -232 q 176 -312 108 -312 q 444 -60 336 -312 l 453 -60 l 407 -282 q 171 -333 268 -333 q -6 -281 61 -333 q -74 -142 -74 -229 q -29 1 -74 -71 q 78 133 15 74 q 205 244 142 192 q 313 344 268 296 q 357 425 357 392 q 321 463 357 463 q 289 457 306 463 l 288 464 q 339 475 313 475 z "},"À":{"ha":824,"x_min":-99,"x_max":767,"o":"m 586 1089 l 579 1086 q 505 1209 560 1125 q 442 1311 450 1293 q 433 1340 433 1328 q 449 1375 433 1361 q 483 1389 464 1389 q 531 1354 518 1389 q 555 1238 535 1343 q 586 1089 575 1132 m 560 1028 l 676 178 q 708 49 690 85 q 767 8 725 13 l 765 0 l 449 0 l 450 8 q 557 146 575 17 l 529 354 l 201 354 l 149 260 q 92 151 111 192 q 67 77 74 111 q 77 28 61 43 q 132 8 93 13 l 131 0 l -99 0 l -97 8 q -3 74 -50 17 q 121 267 43 132 l 549 1028 l 560 1028 m 467 829 l 219 388 l 525 388 l 467 829 z "},"Á":{"ha":824,"x_min":-99,"x_max":767,"o":"m 721 1301 q 483 1086 689 1269 l 478 1090 q 538 1188 496 1118 q 613 1310 581 1257 q 656 1372 646 1363 q 693 1389 675 1389 q 727 1376 713 1389 q 742 1343 742 1363 q 721 1301 742 1325 m 560 1028 l 676 178 q 708 49 690 85 q 767 8 725 13 l 765 0 l 449 0 l 450 8 q 557 146 575 17 l 529 354 l 201 354 l 149 260 q 92 151 111 192 q 67 77 74 111 q 77 28 61 43 q 132 8 93 13 l 131 0 l -99 0 l -97 8 q -3 74 -50 17 q 121 267 43 132 l 549 1028 l 560 1028 m 467 829 l 219 388 l 525 388 l 467 829 z "},"Â":{"ha":824,"x_min":-99,"x_max":767,"o":"m 738 1086 l 567 1244 l 324 1086 l 321 1093 l 586 1368 l 594 1368 l 743 1093 l 738 1086 m 560 1028 l 676 178 q 708 49 690 85 q 767 8 725 13 l 765 0 l 449 0 l 450 8 q 557 146 575 17 l 529 354 l 201 354 l 149 260 q 92 151 111 192 q 67 77 74 111 q 77 28 61 43 q 132 8 93 13 l 131 0 l -99 0 l -97 8 q -3 74 -50 17 q 121 267 43 132 l 549 1028 l 560 1028 m 467 829 l 219 388 l 525 388 l 467 829 z "},"Ã":{"ha":824,"x_min":-99,"x_max":775,"o":"m 536 1158 q 499 1178 536 1158 q 431 1199 461 1199 q 379 1179 400 1199 q 336 1111 358 1160 l 328 1113 q 457 1274 374 1274 q 567 1233 492 1274 q 672 1192 642 1192 q 724 1212 703 1192 q 767 1281 744 1232 l 775 1279 q 646 1117 729 1117 q 536 1158 611 1117 m 560 1028 l 676 178 q 708 49 690 85 q 767 8 725 13 l 765 0 l 449 0 l 450 8 q 557 146 575 17 l 529 354 l 201 354 l 149 260 q 92 151 111 192 q 67 77 74 111 q 77 28 61 43 q 132 8 93 13 l 131 0 l -99 0 l -97 8 q -3 74 -50 17 q 121 267 43 132 l 549 1028 l 560 1028 m 467 829 l 219 388 l 525 388 l 467 829 z "},"Ä":{"ha":824,"x_min":-99,"x_max":767,"o":"m 481 1148 q 469 1137 481 1148 q 428 1126 458 1126 q 375 1148 397 1126 q 353 1201 353 1169 q 375 1255 353 1233 q 428 1276 397 1276 q 481 1255 458 1276 q 503 1201 503 1233 q 481 1148 503 1169 m 682 1126 q 628 1148 650 1126 q 606 1201 606 1169 q 628 1255 606 1233 q 682 1276 650 1276 q 734 1254 713 1276 q 756 1201 756 1232 q 734 1149 756 1171 q 682 1126 713 1126 m 560 1028 l 676 178 q 708 49 690 85 q 767 8 725 13 l 765 0 l 449 0 l 450 8 q 557 146 575 17 l 529 354 l 201 354 l 149 260 q 92 151 111 192 q 67 77 74 111 q 77 28 61 43 q 132 8 93 13 l 131 0 l -99 0 l -97 8 q -3 74 -50 17 q 121 267 43 132 l 549 1028 l 560 1028 m 467 829 l 219 388 l 525 388 l 467 829 z "},"Å":{"ha":824,"x_min":-99,"x_max":767,"o":"m 563 1006 l 676 178 q 707 49 689 86 q 767 8 725 13 l 765 0 l 449 0 l 450 8 q 557 146 575 17 l 529 354 l 201 354 l 149 260 q 92 151 111 192 q 67 77 74 111 q 77 28 61 43 q 132 8 93 13 l 131 0 l -99 0 l -97 8 q -3 75 -50 17 q 121 267 44 133 l 536 1007 q 460 1044 488 1014 q 432 1119 432 1074 q 478 1233 432 1186 q 593 1281 525 1281 q 686 1249 651 1281 q 721 1165 721 1218 q 676 1053 721 1099 q 563 1006 631 1007 m 488 1101 q 558 1025 488 1025 q 637 1074 608 1025 q 665 1185 665 1124 q 594 1261 665 1261 q 516 1212 544 1261 q 488 1101 488 1163 m 467 829 l 219 388 l 525 388 l 467 829 z "},"Æ":{"ha":1242,"x_min":-99,"x_max":1308,"o":"m 1308 1011 l 1283 803 l 1275 803 q 1204 955 1247 921 q 1046 989 1161 989 l 858 989 l 763 538 l 907 538 q 1038 565 997 538 q 1114 674 1078 593 l 1122 674 l 1057 369 l 1049 369 q 1017 483 1046 450 q 901 515 989 515 l 757 515 l 667 88 q 708 22 651 22 l 861 22 q 1038 60 976 22 q 1189 233 1100 99 l 1197 233 l 1115 0 l 425 0 l 426 8 q 517 44 492 8 q 561 168 542 79 l 607 388 l 294 388 l 197 257 q 96 22 53 65 q 132 8 107 11 l 131 0 l -99 0 l -97 8 q 174 268 -7 25 l 525 743 q 639 943 639 893 q 532 1003 639 997 l 533 1011 l 1308 1011 m 319 421 l 614 421 l 732 975 l 319 421 z "},"Ç":{"ha":842,"x_min":58,"x_max":922,"o":"m 632 1028 q 922 944 794 1028 l 896 785 l 888 785 q 636 1008 822 1008 q 397 899 503 1008 q 240 637 292 789 q 188 333 188 485 q 251 93 188 183 q 435 3 314 3 q 782 251 626 3 l 790 251 l 726 54 q 442 -17 569 -17 l 440 -17 l 408 -67 q 502 -94 465 -69 q 539 -167 539 -118 q 495 -258 539 -221 q 381 -294 451 -294 q 272 -251 322 -294 l 278 -244 q 376 -274 318 -274 q 439 -251 414 -274 q 464 -196 464 -228 q 444 -155 464 -169 q 401 -137 424 -140 q 343 -135 379 -135 l 419 -17 q 153 97 247 -10 q 58 381 58 203 q 98 613 58 499 q 208 819 138 726 q 390 970 279 913 q 632 1028 501 1028 z "},"È":{"ha":775,"x_min":-50,"x_max":843,"o":"m 571 1089 l 565 1086 q 492 1208 546 1124 q 428 1311 438 1292 q 419 1340 419 1328 q 435 1375 419 1361 q 469 1389 450 1389 q 515 1354 503 1389 q 540 1238 519 1343 q 571 1089 560 1132 m 163 1003 l 164 1011 l 843 1011 l 818 803 l 810 803 q 739 955 782 921 q 581 989 696 989 l 382 989 l 286 538 l 442 538 q 572 565 532 538 q 647 674 611 593 l 656 674 l 592 369 l 583 369 q 552 483 581 450 q 436 515 524 515 l 281 515 l 190 88 q 192 38 183 54 q 232 22 201 22 l 396 22 q 573 60 511 22 q 724 233 635 99 l 732 233 l 650 0 l -50 0 l -49 8 q 42 47 17 8 q 86 174 68 85 l 228 838 q 238 894 235 874 q 241 939 242 915 q 233 974 240 963 q 208 994 225 986 q 163 1003 190 1003 z "},"É":{"ha":775,"x_min":-50,"x_max":843,"o":"m 706 1301 q 468 1086 674 1269 l 464 1090 q 524 1188 481 1117 q 599 1310 567 1258 q 642 1372 632 1363 q 679 1389 661 1389 q 713 1376 699 1389 q 726 1343 726 1363 q 706 1301 726 1322 m 163 1003 l 164 1011 l 843 1011 l 818 803 l 810 803 q 739 955 782 921 q 581 989 696 989 l 382 989 l 286 538 l 442 538 q 572 565 532 538 q 647 674 611 593 l 656 674 l 592 369 l 583 369 q 552 483 581 450 q 436 515 524 515 l 281 515 l 190 88 q 192 38 183 54 q 232 22 201 22 l 396 22 q 573 60 511 22 q 724 233 635 99 l 732 233 l 650 0 l -50 0 l -49 8 q 42 47 17 8 q 86 174 68 85 l 228 838 q 238 894 235 874 q 241 939 242 915 q 233 974 240 963 q 208 994 225 986 q 163 1003 190 1003 z "},"Ê":{"ha":775,"x_min":-50,"x_max":843,"o":"m 722 1086 l 553 1244 l 310 1086 l 307 1093 l 572 1368 l 581 1368 l 728 1093 l 722 1086 m 163 1003 l 164 1011 l 843 1011 l 818 803 l 810 803 q 739 955 782 921 q 581 989 696 989 l 382 989 l 286 538 l 442 538 q 572 565 532 538 q 647 674 611 593 l 656 674 l 592 369 l 583 369 q 552 483 581 450 q 436 515 524 515 l 281 515 l 190 88 q 192 38 183 54 q 232 22 201 22 l 396 22 q 573 60 511 22 q 724 233 635 99 l 732 233 l 650 0 l -50 0 l -49 8 q 42 47 17 8 q 86 174 68 85 l 228 838 q 238 894 235 874 q 241 939 242 915 q 233 974 240 963 q 208 994 225 986 q 163 1003 190 1003 z "},"Ë":{"ha":775,"x_min":-50,"x_max":843,"o":"m 466 1148 q 455 1137 466 1148 q 413 1126 444 1126 q 359 1148 381 1126 q 338 1201 338 1169 q 359 1255 338 1233 q 413 1276 381 1276 q 466 1255 444 1276 q 488 1201 488 1233 q 466 1148 488 1169 m 719 1148 q 708 1137 719 1148 q 667 1126 697 1126 q 614 1148 636 1126 q 592 1201 592 1169 q 614 1255 592 1233 q 667 1276 636 1276 q 719 1255 697 1276 q 742 1201 742 1233 q 719 1148 742 1169 m 163 1003 l 164 1011 l 843 1011 l 818 803 l 810 803 q 739 955 782 921 q 581 989 696 989 l 382 989 l 286 538 l 442 538 q 572 565 532 538 q 647 674 611 593 l 656 674 l 592 369 l 583 369 q 552 483 581 450 q 436 515 524 515 l 281 515 l 190 88 q 192 38 183 54 q 232 22 201 22 l 396 22 q 573 60 511 22 q 724 233 635 99 l 732 233 l 650 0 l -50 0 l -49 8 q 42 47 17 8 q 86 174 68 85 l 228 838 q 238 894 235 874 q 241 939 242 915 q 233 974 240 963 q 208 994 225 986 q 163 1003 190 1003 z "},"Ì":{"ha":376,"x_min":-50,"x_max":486,"o":"m 385 1089 l 379 1086 q 303 1210 358 1125 q 240 1311 249 1294 q 232 1340 232 1328 q 248 1375 232 1361 q 283 1389 264 1389 q 329 1354 317 1389 q 353 1238 333 1343 q 385 1089 374 1132 m 272 0 l -50 0 l -49 8 q 42 47 17 8 q 86 174 68 85 l 228 838 q 238 894 235 874 q 241 939 242 915 q 233 974 240 963 q 208 994 225 986 q 163 1003 190 1003 l 164 1011 l 486 1011 l 485 1003 q 394 965 419 1003 q 350 838 368 926 l 208 174 q 198 117 201 138 q 195 72 194 96 q 203 37 196 49 q 228 17 211 25 q 274 8 246 8 l 272 0 z "},"Í":{"ha":376,"x_min":-50,"x_max":518,"o":"m 260 1086 l 254 1090 q 315 1188 272 1118 q 390 1310 357 1257 q 432 1372 422 1363 q 471 1389 453 1389 q 504 1376 490 1389 q 518 1343 518 1363 q 497 1301 518 1322 q 260 1086 465 1269 m 272 0 l -50 0 l -49 8 q 42 47 17 8 q 86 174 68 85 l 228 838 q 238 894 235 874 q 241 939 242 915 q 233 974 240 963 q 208 994 225 986 q 163 1003 190 1003 l 164 1011 l 486 1011 l 485 1003 q 394 965 419 1003 q 350 838 368 926 l 208 174 q 198 117 201 138 q 195 72 194 96 q 203 37 196 49 q 228 17 211 25 q 274 8 246 8 l 272 0 z "},"Î":{"ha":376,"x_min":-50,"x_max":554,"o":"m 397 1368 l 406 1368 l 554 1093 l 549 1086 l 378 1244 l 135 1086 l 132 1093 l 397 1368 m 163 1003 l 164 1011 l 486 1011 l 485 1003 q 394 965 419 1003 q 350 838 368 926 l 208 174 q 198 117 201 138 q 195 72 194 96 q 203 37 196 49 q 228 17 211 25 q 274 8 246 8 l 272 0 l -50 0 l -49 8 q 42 47 17 8 q 86 174 68 85 l 228 838 q 238 894 235 874 q 241 939 242 915 q 233 974 240 963 q 208 994 225 986 q 163 1003 190 1003 z "},"Ï":{"ha":376,"x_min":-50,"x_max":568,"o":"m 292 1148 q 281 1137 292 1148 q 239 1126 269 1126 q 186 1148 208 1126 q 164 1201 164 1169 q 186 1255 164 1233 q 239 1276 208 1276 q 292 1255 269 1276 q 314 1201 314 1233 q 292 1148 314 1169 m 547 1148 q 536 1137 547 1148 q 493 1126 525 1126 q 439 1148 461 1126 q 417 1201 417 1169 q 439 1255 417 1233 q 493 1276 461 1276 q 547 1255 525 1276 q 568 1201 568 1233 q 547 1148 568 1169 m 272 0 l -50 0 l -49 8 q 42 47 17 8 q 86 174 68 85 l 228 838 q 238 894 235 874 q 241 939 242 915 q 233 974 240 963 q 208 994 225 986 q 163 1003 190 1003 l 164 1011 l 486 1011 l 485 1003 q 394 965 419 1003 q 350 838 368 926 l 208 174 q 198 117 201 138 q 195 72 194 96 q 203 37 196 49 q 228 17 211 25 q 274 8 246 8 l 272 0 z "},"Ð":{"ha":976,"x_min":-44,"x_max":975,"o":"m 169 1011 l 557 1011 q 867 908 758 1011 q 975 625 975 806 q 803 182 975 364 q 361 0 632 0 l -44 0 l -43 8 q 47 44 22 8 q 92 168 72 79 l 164 507 l 54 507 l 60 535 l 169 535 l 235 843 q 244 963 256 922 q 168 1003 232 1003 l 169 1011 m 350 22 q 528 58 446 22 q 668 156 611 94 q 765 298 725 217 q 825 468 806 379 q 844 649 844 557 q 768 901 844 814 q 550 989 692 989 l 440 989 q 376 939 386 989 l 290 535 l 503 535 l 497 507 l 285 507 l 201 111 q 222 44 192 67 q 350 22 251 22 z "},"Ñ":{"ha":896,"x_min":-64,"x_max":1015,"o":"m 572 1158 q 535 1178 572 1158 q 467 1199 497 1199 q 415 1179 436 1199 q 372 1111 394 1160 l 364 1113 q 493 1274 410 1274 q 603 1233 528 1274 q 708 1192 678 1192 q 760 1212 739 1192 q 803 1281 781 1232 l 811 1279 q 758 1158 789 1199 q 682 1117 728 1117 q 572 1158 647 1117 m 756 1003 l 757 1011 l 1015 1011 l 1014 1003 q 915 944 949 1003 q 854 760 881 885 l 690 -17 l 682 -17 l 278 911 l 135 238 q 124 73 108 138 q 210 8 139 8 l 207 0 l -64 0 l -61 8 q 46 68 7 8 q 108 238 85 128 l 240 854 q 235 960 256 926 q 150 1003 214 994 l 151 1011 l 365 1011 l 714 210 l 829 760 q 844 936 858 869 q 756 1003 829 1003 z "},"Ò":{"ha":985,"x_min":61,"x_max":985,"o":"m 671 1089 l 664 1086 q 590 1209 644 1125 q 526 1311 535 1293 q 518 1340 518 1328 q 533 1375 518 1361 q 568 1389 549 1389 q 614 1354 604 1389 q 639 1235 618 1342 q 671 1089 660 1129 m 444 -17 q 162 90 263 -17 q 61 381 61 197 q 128 694 61 547 q 319 935 194 842 q 599 1028 444 1028 q 883 921 781 1028 q 985 631 985 814 q 918 317 985 464 q 726 76 851 169 q 444 -17 600 -17 m 439 3 q 657 113 558 3 q 806 376 756 222 q 856 679 856 529 q 792 918 856 828 q 607 1008 728 1008 q 388 899 486 1008 q 239 637 289 790 q 189 332 189 483 q 253 93 189 183 q 439 3 318 3 z "},"Ó":{"ha":985,"x_min":61,"x_max":985,"o":"m 567 1086 l 563 1090 q 622 1188 579 1117 q 698 1310 665 1258 q 740 1372 731 1363 q 778 1389 760 1389 q 811 1376 797 1389 q 825 1343 825 1363 q 806 1301 825 1324 q 567 1086 782 1278 m 444 -17 q 162 90 263 -17 q 61 381 61 197 q 128 694 61 547 q 319 935 194 842 q 599 1028 444 1028 q 883 921 781 1028 q 985 631 985 814 q 918 317 985 464 q 726 76 851 169 q 444 -17 600 -17 m 439 3 q 657 113 558 3 q 806 376 756 222 q 856 679 856 529 q 792 918 856 828 q 607 1008 728 1008 q 388 899 486 1008 q 239 637 289 790 q 189 332 189 483 q 253 93 189 183 q 439 3 318 3 z "},"Ô":{"ha":985,"x_min":61,"x_max":985,"o":"m 822 1086 l 651 1244 l 408 1086 l 406 1093 l 671 1368 l 679 1368 l 828 1093 l 822 1086 m 599 1028 q 883 921 781 1028 q 985 631 985 814 q 918 317 985 464 q 726 76 851 169 q 444 -17 600 -17 q 162 90 263 -17 q 61 381 61 197 q 128 694 61 547 q 319 935 194 842 q 599 1028 444 1028 m 439 3 q 657 113 558 3 q 806 376 756 222 q 856 679 856 529 q 792 918 856 828 q 607 1008 728 1008 q 388 899 486 1008 q 239 637 289 790 q 189 332 189 483 q 253 93 189 183 q 439 3 318 3 z "},"Õ":{"ha":985,"x_min":61,"x_max":985,"o":"m 419 1111 l 411 1113 q 542 1274 457 1274 q 651 1233 576 1274 q 756 1192 726 1192 q 808 1212 786 1192 q 851 1281 829 1232 l 860 1279 q 731 1117 814 1117 q 621 1158 696 1117 q 515 1199 546 1199 q 463 1178 485 1199 q 419 1111 442 1158 m 444 -17 q 162 90 263 -17 q 61 381 61 197 q 128 694 61 547 q 319 935 194 842 q 599 1028 444 1028 q 883 921 781 1028 q 985 631 985 814 q 918 317 985 464 q 726 76 851 169 q 444 -17 600 -17 m 439 3 q 657 113 558 3 q 806 376 756 222 q 856 679 856 529 q 792 918 856 828 q 607 1008 728 1008 q 388 899 486 1008 q 239 637 289 790 q 189 332 189 483 q 253 93 189 183 q 439 3 318 3 z "},"Ö":{"ha":985,"x_min":61,"x_max":985,"o":"m 513 1126 q 458 1148 481 1126 q 436 1201 436 1169 q 458 1255 436 1233 q 513 1276 481 1276 q 565 1254 543 1276 q 586 1201 586 1232 q 565 1149 586 1171 q 513 1126 543 1126 m 819 1148 q 808 1137 819 1148 q 765 1126 797 1126 q 712 1148 733 1126 q 690 1201 690 1169 q 712 1255 690 1233 q 765 1276 733 1276 q 819 1255 797 1276 q 840 1201 840 1233 q 819 1148 840 1169 m 444 -17 q 162 90 263 -17 q 61 381 61 197 q 128 694 61 547 q 319 935 194 842 q 599 1028 444 1028 q 883 921 781 1028 q 985 631 985 814 q 918 317 985 464 q 726 76 851 169 q 444 -17 600 -17 m 439 3 q 657 113 558 3 q 806 376 756 222 q 856 679 856 529 q 792 918 856 828 q 607 1008 728 1008 q 388 899 486 1008 q 239 637 289 790 q 189 332 189 483 q 253 93 189 183 q 439 3 318 3 z "},"×":{"ha":706,"x_min":124,"x_max":638,"o":"m 617 761 l 638 740 l 401 504 l 636 269 l 615 249 l 381 483 l 146 249 l 125 269 l 360 504 l 124 740 l 144 761 l 381 525 l 617 761 z "},"Ø":{"ha":988,"x_min":-8,"x_max":1054,"o":"m 1035 1081 l 1054 1067 l 901 900 q 985 631 985 797 q 918 317 985 464 q 726 76 851 169 q 446 -17 601 -17 q 160 93 263 -17 l 11 -69 l -8 -56 l 144 111 q 61 381 61 215 q 128 694 61 547 q 320 935 194 842 q 600 1028 446 1028 q 886 918 785 1028 l 1035 1081 m 190 332 q 211 183 190 247 l 828 854 q 608 1008 767 1008 q 389 899 488 1008 q 240 637 290 790 q 190 332 190 483 m 857 679 q 836 829 857 763 l 219 157 q 439 3 281 3 q 658 113 560 3 q 807 376 757 222 q 857 679 857 529 z "},"Ù":{"ha":894,"x_min":75,"x_max":1022,"o":"m 671 1089 l 665 1086 q 591 1208 646 1124 q 526 1311 536 1292 q 518 1340 518 1328 q 533 1375 518 1361 q 568 1389 549 1389 q 615 1354 603 1389 q 640 1238 619 1343 q 671 1089 660 1132 m 403 -17 q 149 77 222 -17 q 114 349 75 171 l 218 838 q 229 958 240 914 q 153 1003 218 1003 l 156 1011 l 478 1011 l 475 1003 q 385 965 410 1003 q 340 838 360 928 l 238 353 q 247 101 201 186 q 428 17 292 17 q 740 315 676 17 l 835 760 q 850 856 846 814 q 849 932 854 897 q 824 985 843 967 q 769 1003 804 1003 l 772 1011 l 1022 1011 l 1019 1003 q 942 968 975 1003 q 893 885 910 933 q 860 760 876 838 l 765 315 q 403 -17 694 -17 z "},"Ú":{"ha":894,"x_min":75,"x_max":1022,"o":"m 568 1086 l 563 1090 q 623 1188 581 1118 q 698 1310 665 1257 q 740 1372 731 1363 q 779 1389 761 1389 q 813 1376 799 1389 q 826 1343 826 1363 q 806 1301 826 1322 q 568 1086 774 1269 m 403 -17 q 149 77 222 -17 q 114 349 75 171 l 218 838 q 229 958 240 914 q 153 1003 218 1003 l 156 1011 l 478 1011 l 475 1003 q 385 965 410 1003 q 340 838 360 928 l 238 353 q 247 101 201 186 q 428 17 292 17 q 740 315 676 17 l 835 760 q 850 856 846 814 q 849 932 854 897 q 824 985 843 967 q 769 1003 804 1003 l 772 1011 l 1022 1011 l 1019 1003 q 942 968 975 1003 q 893 885 910 933 q 860 760 876 838 l 765 315 q 403 -17 694 -17 z "},"Û":{"ha":894,"x_min":75,"x_max":1022,"o":"m 822 1086 l 653 1244 l 410 1086 l 407 1093 l 672 1368 l 679 1368 l 828 1093 l 822 1086 m 769 1003 l 772 1011 l 1022 1011 l 1019 1003 q 942 968 975 1003 q 893 885 910 933 q 860 760 876 838 l 765 315 q 403 -17 694 -17 q 149 77 222 -17 q 114 349 75 171 l 218 838 q 229 958 240 914 q 153 1003 218 1003 l 156 1011 l 478 1011 l 475 1003 q 385 965 410 1003 q 340 838 360 928 l 238 353 q 247 101 201 186 q 428 17 292 17 q 740 315 676 17 l 835 760 q 850 856 846 814 q 849 932 854 897 q 824 985 843 967 q 769 1003 804 1003 z "},"Ü":{"ha":894,"x_min":75,"x_max":1022,"o":"m 566 1148 q 555 1137 566 1148 q 513 1126 544 1126 q 459 1148 481 1126 q 438 1201 438 1169 q 459 1255 438 1233 q 513 1276 481 1276 q 566 1255 544 1276 q 588 1201 588 1233 q 566 1148 588 1169 m 819 1148 q 808 1137 819 1148 q 767 1126 797 1126 q 714 1148 736 1126 q 692 1201 692 1169 q 714 1255 692 1233 q 767 1276 736 1276 q 819 1255 797 1276 q 842 1201 842 1233 q 819 1148 842 1169 m 403 -17 q 149 77 222 -17 q 114 349 75 171 l 218 838 q 229 958 240 914 q 153 1003 218 1003 l 156 1011 l 478 1011 l 475 1003 q 385 965 410 1003 q 340 838 360 928 l 238 353 q 247 101 201 186 q 428 17 292 17 q 740 315 676 17 l 835 760 q 850 856 846 814 q 849 932 854 897 q 824 985 843 967 q 769 1003 804 1003 l 772 1011 l 1022 1011 l 1019 1003 q 942 968 975 1003 q 893 885 910 933 q 860 760 876 838 l 765 315 q 403 -17 694 -17 z "},"Ý":{"ha":790,"x_min":135,"x_max":954,"o":"m 717 1301 q 479 1086 685 1269 l 474 1090 q 534 1188 492 1118 q 609 1310 576 1257 q 651 1372 642 1363 q 690 1389 672 1389 q 724 1376 710 1389 q 738 1343 738 1363 q 717 1301 738 1322 m 724 1003 l 725 1011 l 954 1011 l 953 1003 q 835 931 899 994 q 679 740 772 868 l 478 458 l 417 174 q 406 53 394 97 q 482 8 417 8 l 481 0 l 157 0 l 158 8 q 249 47 224 8 q 294 174 275 85 l 351 440 l 240 833 q 191 963 213 929 q 135 1003 169 997 l 136 1011 l 447 1011 l 446 1003 q 354 871 318 994 l 467 485 l 656 751 q 709 828 689 797 q 746 888 729 858 q 768 935 763 917 q 772 967 774 953 q 758 990 769 982 q 724 1003 746 999 z "},"Þ":{"ha":743,"x_min":-50,"x_max":753,"o":"m 350 843 l 461 843 q 675 778 597 843 q 753 599 753 713 q 648 359 753 454 q 379 264 543 264 q 233 289 299 264 l 208 168 q 199 49 186 89 q 279 8 213 8 l 278 0 l -50 0 l -49 8 q 41 44 17 8 q 85 168 65 79 l 228 843 q 238 963 250 924 q 163 1003 226 1003 l 164 1011 l 486 1011 l 485 1003 q 394 967 419 1003 q 350 843 369 932 m 343 293 q 552 390 476 293 q 628 619 628 486 q 581 769 628 717 q 446 821 535 821 l 400 821 q 336 771 347 821 l 247 358 q 247 337 243 349 q 257 315 250 325 q 286 299 264 306 q 343 293 308 293 z "},"ß":{"ha":711,"x_min":-212,"x_max":725,"o":"m -212 -317 l -212 -308 q -81 -224 -128 -289 q -11 -49 -35 -160 l 157 742 q 290 1002 194 915 q 522 1089 386 1089 q 670 1049 615 1089 q 725 939 725 1010 q 695 840 725 886 q 623 760 665 793 q 538 695 581 726 q 465 631 494 664 q 435 563 435 597 q 513 433 435 504 l 551 396 q 606 342 589 361 q 642 285 624 322 q 661 207 661 247 q 589 47 661 110 q 407 -17 517 -17 q 296 2 350 -17 q 218 46 242 21 l 246 168 l 254 168 q 322 52 276 94 q 431 10 368 10 q 536 50 497 10 q 575 147 575 90 q 553 221 575 188 q 481 303 531 254 l 440 340 q 346 508 346 431 q 377 590 346 550 q 453 664 408 629 q 541 736 497 699 q 616 825 585 774 q 647 936 647 876 q 609 1037 647 1004 q 517 1069 571 1069 q 382 1016 447 1069 q 294 857 317 963 l 108 -18 q -212 -317 50 -283 z "},"à":{"ha":710,"x_min":13,"x_max":701,"o":"m 535 817 l 528 814 q 453 937 508 853 q 390 1039 399 1021 q 382 1068 382 1056 q 397 1103 382 1089 q 432 1117 413 1117 q 478 1082 468 1117 q 503 963 482 1069 q 535 817 524 857 m 694 201 l 701 196 q 489 -17 590 -17 q 439 131 406 -17 l 474 292 q 328 65 414 146 q 156 -17 242 -17 q 50 36 88 -17 q 13 189 13 89 q 68 442 13 315 q 228 657 124 569 q 456 744 333 744 q 599 688 556 744 l 674 736 l 681 736 l 556 143 q 564 78 540 78 q 694 201 604 78 m 219 51 q 390 187 299 51 q 519 511 481 322 q 526 586 526 550 q 433 725 526 725 q 288 644 360 725 q 174 444 217 564 q 131 213 131 325 q 154 93 131 135 q 219 51 178 51 z "},"á":{"ha":710,"x_min":13,"x_max":701,"o":"m 665 1029 q 428 814 624 988 l 424 818 q 483 915 440 844 q 559 1038 526 986 q 601 1100 592 1090 q 639 1117 621 1117 q 672 1103 658 1117 q 686 1071 686 1090 q 665 1029 686 1050 m 694 201 l 701 196 q 489 -17 590 -17 q 439 131 406 -17 l 474 292 q 328 65 414 146 q 156 -17 242 -17 q 50 36 88 -17 q 13 189 13 89 q 68 442 13 315 q 228 657 124 569 q 456 744 333 744 q 599 688 556 744 l 674 736 l 681 736 l 556 143 q 564 78 540 78 q 694 201 604 78 m 219 51 q 390 187 299 51 q 519 511 481 322 q 526 586 526 550 q 433 725 526 725 q 288 644 360 725 q 174 444 217 564 q 131 213 131 325 q 154 93 131 135 q 219 51 178 51 z "},"â":{"ha":710,"x_min":13,"x_max":701,"o":"m 671 814 l 514 971 l 286 814 l 283 821 l 533 1096 l 542 1096 l 676 821 l 671 814 m 694 201 l 701 196 q 489 -17 590 -17 q 439 131 406 -17 l 474 292 q 328 65 414 146 q 156 -17 242 -17 q 50 36 88 -17 q 13 189 13 89 q 68 442 13 315 q 228 657 124 569 q 456 744 333 744 q 599 688 556 744 l 674 736 l 681 736 l 556 143 q 564 78 540 78 q 694 201 604 78 m 219 51 q 390 187 299 51 q 519 511 481 322 q 526 586 526 550 q 433 725 526 725 q 288 644 360 725 q 174 444 217 564 q 131 213 131 325 q 154 93 131 135 q 219 51 178 51 z "},"ã":{"ha":710,"x_min":13,"x_max":708,"o":"m 393 921 q 342 901 363 921 q 299 833 321 882 l 290 835 q 418 996 332 996 q 514 956 453 996 q 604 915 575 915 q 657 935 636 915 q 700 1003 678 954 l 708 1001 q 579 840 664 840 q 483 881 544 840 q 393 921 422 921 m 564 78 q 694 201 604 78 l 701 196 q 489 -17 590 -17 q 439 131 406 -17 l 474 292 q 328 65 414 146 q 156 -17 242 -17 q 50 36 88 -17 q 13 189 13 89 q 68 442 13 315 q 228 657 124 569 q 456 744 333 744 q 599 688 556 744 l 674 736 l 681 736 l 556 143 q 564 78 540 78 m 219 51 q 390 187 299 51 q 519 511 481 322 q 526 586 526 550 q 433 725 526 725 q 288 644 360 725 q 174 444 217 564 q 131 213 131 325 q 154 93 131 135 q 219 51 178 51 z "},"ä":{"ha":710,"x_min":13,"x_max":701,"o":"m 439 876 q 428 865 439 876 q 386 854 417 854 q 333 876 356 854 q 311 929 311 897 q 333 983 311 961 q 386 1004 356 1004 q 439 983 417 1004 q 461 929 461 961 q 439 876 461 897 m 674 876 q 664 865 674 876 q 621 854 653 854 q 567 876 589 854 q 546 929 546 897 q 567 983 546 961 q 621 1004 589 1004 q 674 983 653 1004 q 696 929 696 961 q 674 876 696 897 m 694 201 l 701 196 q 489 -17 590 -17 q 439 131 406 -17 l 474 292 q 328 65 414 146 q 156 -17 242 -17 q 50 36 88 -17 q 13 189 13 89 q 68 442 13 315 q 228 657 124 569 q 456 744 333 744 q 599 688 556 744 l 674 736 l 681 736 l 556 143 q 564 78 540 78 q 694 201 604 78 m 219 51 q 390 187 299 51 q 519 511 481 322 q 526 586 526 550 q 433 725 526 725 q 288 644 360 725 q 174 444 217 564 q 131 213 131 325 q 154 93 131 135 q 219 51 178 51 z "},"å":{"ha":710,"x_min":13,"x_max":701,"o":"m 492 817 q 399 848 433 817 q 364 932 364 879 q 411 1045 364 999 q 526 1092 458 1092 q 618 1060 583 1092 q 653 976 653 1029 q 606 863 653 910 q 492 817 558 817 m 526 1072 q 448 1023 476 1072 q 419 914 419 974 q 492 836 419 836 q 569 885 542 836 q 597 994 597 933 q 526 1072 597 1072 m 694 201 l 701 196 q 489 -17 590 -17 q 439 131 406 -17 l 474 292 q 328 65 414 146 q 156 -17 242 -17 q 50 36 88 -17 q 13 189 13 89 q 68 442 13 315 q 228 657 124 569 q 456 744 333 744 q 599 688 556 744 l 674 736 l 681 736 l 556 143 q 564 78 540 78 q 694 201 604 78 m 219 51 q 390 187 299 51 q 519 511 481 322 q 526 586 526 550 q 433 725 526 725 q 288 644 360 725 q 174 444 217 564 q 131 213 131 325 q 154 93 131 135 q 219 51 178 51 z "},"æ":{"ha":985,"x_min":13,"x_max":1008,"o":"m 1008 638 q 898 488 1008 550 q 554 354 788 425 q 542 238 542 299 q 667 51 542 51 q 922 214 790 51 l 931 208 q 615 -18 785 -18 q 481 35 532 -18 q 424 190 429 88 q 296 37 367 90 q 156 -17 225 -17 q 50 36 88 -17 q 13 189 13 89 q 68 442 13 315 q 228 657 124 569 q 456 744 333 744 q 617 651 585 744 q 856 744 724 744 q 970 716 932 744 q 1008 638 1008 688 m 219 51 q 322 104 267 51 q 425 246 376 157 q 524 542 436 407 q 526 586 526 569 q 433 725 526 725 q 288 644 360 725 q 174 444 217 564 q 131 213 131 325 q 154 93 131 135 q 219 51 178 51 m 833 724 q 673 621 753 724 q 560 378 593 518 q 822 501 740 442 q 903 643 903 560 q 833 724 903 724 z "},"ç":{"ha":563,"x_min":18,"x_max":596,"o":"m 435 744 q 553 706 511 744 q 596 607 596 668 l 521 532 l 513 532 q 500 676 524 626 q 425 725 476 725 q 228 569 321 725 q 136 239 136 413 q 260 53 136 53 q 503 214 372 53 l 511 208 q 258 -11 389 15 l 222 -67 q 317 -94 281 -69 q 354 -167 354 -118 q 310 -258 354 -221 q 196 -294 265 -294 q 88 -251 136 -294 l 93 -244 q 190 -274 133 -274 q 253 -251 228 -274 q 279 -196 279 -228 q 259 -155 279 -169 q 217 -137 239 -140 q 158 -135 194 -135 l 233 -15 q 208 -17 225 -17 q 69 41 121 -17 q 18 215 18 99 q 74 461 18 339 q 227 664 129 583 q 435 744 325 744 z "},"è":{"ha":576,"x_min":17,"x_max":600,"o":"m 510 817 l 503 814 q 428 937 483 853 q 365 1039 374 1021 q 357 1068 357 1056 q 372 1103 357 1089 q 407 1117 388 1117 q 453 1082 443 1117 q 478 963 457 1069 q 510 817 499 857 m 600 638 q 490 487 600 550 q 147 354 379 424 q 135 238 135 297 q 258 51 135 51 q 515 214 381 51 l 524 208 q 207 -18 378 -18 q 69 40 121 -18 q 17 211 17 99 q 47 388 17 296 q 129 560 76 479 q 266 692 182 640 q 449 744 350 744 q 562 716 524 744 q 600 638 600 688 m 426 724 q 266 621 346 724 q 153 378 186 518 q 415 501 333 442 q 496 643 496 560 q 426 724 496 724 z "},"é":{"ha":576,"x_min":17,"x_max":661,"o":"m 614 1117 q 647 1103 633 1117 q 661 1071 661 1090 q 640 1029 661 1050 q 403 814 599 988 l 399 818 q 458 915 415 844 q 534 1038 501 986 q 576 1100 567 1090 q 614 1117 596 1117 m 449 744 q 562 716 524 744 q 600 638 600 688 q 490 487 600 550 q 147 354 379 424 q 135 238 135 297 q 258 51 135 51 q 515 214 381 51 l 524 208 q 207 -18 378 -18 q 69 40 121 -18 q 17 211 17 99 q 47 388 17 296 q 129 560 76 479 q 266 692 182 640 q 449 744 350 744 m 153 378 q 415 501 333 442 q 496 643 496 560 q 426 724 496 724 q 266 621 346 724 q 153 378 186 518 z "},"ê":{"ha":576,"x_min":17,"x_max":644,"o":"m 503 1096 l 511 1096 l 644 821 l 639 814 l 483 971 l 254 814 l 251 821 l 503 1096 m 449 744 q 562 716 524 744 q 600 638 600 688 q 490 487 600 550 q 147 354 379 424 q 135 238 135 297 q 258 51 135 51 q 515 214 381 51 l 524 208 q 207 -18 378 -18 q 69 40 121 -18 q 17 211 17 99 q 47 388 17 296 q 129 560 76 479 q 266 692 182 640 q 449 744 350 744 m 153 378 q 415 501 333 442 q 496 643 496 560 q 426 724 496 724 q 266 621 346 724 q 153 378 186 518 z "},"ë":{"ha":576,"x_min":17,"x_max":671,"o":"m 414 876 q 403 865 414 876 q 361 854 392 854 q 308 876 331 854 q 286 929 286 897 q 308 983 286 961 q 361 1004 331 1004 q 414 983 392 1004 q 436 929 436 961 q 414 876 436 897 m 542 983 q 553 993 542 983 q 596 1004 564 1004 q 649 983 628 1004 q 671 929 671 961 q 649 876 671 897 q 596 854 628 854 q 542 876 564 854 q 521 929 521 897 q 542 983 521 961 m 449 744 q 562 716 524 744 q 600 638 600 688 q 490 487 600 550 q 147 354 379 424 q 135 238 135 297 q 258 51 135 51 q 515 214 381 51 l 524 208 q 207 -18 378 -18 q 69 40 121 -18 q 17 211 17 99 q 47 388 17 296 q 129 560 76 479 q 266 692 182 640 q 449 744 350 744 m 153 378 q 415 501 333 442 q 496 643 496 560 q 426 724 496 724 q 266 621 346 724 q 153 378 186 518 z "},"ì":{"ha":331,"x_min":25,"x_max":322,"o":"m 308 817 l 303 814 q 227 938 282 853 q 164 1039 172 1022 q 156 1068 156 1056 q 171 1103 156 1089 q 206 1117 186 1117 q 253 1082 240 1117 q 277 965 257 1071 q 308 817 297 860 m 108 -17 q 58 131 25 -17 l 156 585 q 147 656 171 656 q 42 554 119 656 l 35 560 q 130 696 79 647 q 224 744 181 744 q 271 597 301 744 l 175 143 q 183 78 161 78 q 315 201 222 78 l 322 196 q 108 -17 210 -17 z "},"í":{"ha":331,"x_min":25,"x_max":461,"o":"m 203 814 l 197 818 q 258 915 215 846 q 333 1038 300 985 q 375 1100 365 1090 q 413 1117 394 1117 q 447 1103 432 1117 q 461 1071 461 1090 q 440 1029 461 1053 q 203 814 399 988 m 108 -17 q 58 131 25 -17 l 156 585 q 147 656 171 656 q 42 554 119 656 l 35 560 q 130 696 79 647 q 224 744 181 744 q 271 597 301 744 l 175 143 q 183 78 161 78 q 315 201 222 78 l 322 196 q 108 -17 210 -17 z "},"î":{"ha":331,"x_min":25,"x_max":451,"o":"m 310 1096 l 318 1096 l 451 821 l 446 814 l 290 971 l 61 814 l 58 821 l 310 1096 m 183 78 q 315 201 222 78 l 322 196 q 108 -17 210 -17 q 58 131 25 -17 l 156 585 q 147 656 171 656 q 42 554 119 656 l 35 560 q 130 696 79 647 q 224 744 181 744 q 271 597 301 744 l 175 143 q 183 78 161 78 z "},"ï":{"ha":331,"x_min":25,"x_max":472,"o":"m 163 854 q 108 876 131 854 q 86 929 86 897 q 108 983 86 961 q 163 1004 131 1004 q 215 982 193 1004 q 236 929 236 960 q 215 876 236 899 q 163 854 193 854 m 450 876 q 439 865 450 876 q 397 854 428 854 q 344 876 367 854 q 322 929 322 897 q 344 983 322 961 q 397 1004 367 1004 q 450 983 428 1004 q 472 929 472 961 q 450 876 472 897 m 108 -17 q 58 131 25 -17 l 156 585 q 147 656 171 656 q 42 554 119 656 l 35 560 q 130 696 79 647 q 224 744 181 744 q 271 597 301 744 l 175 143 q 183 78 161 78 q 315 201 222 78 l 322 196 q 108 -17 210 -17 z "},"ð":{"ha":675,"x_min":25,"x_max":661,"o":"m 657 999 l 661 978 l 528 924 q 656 535 656 771 q 608 274 656 399 q 468 67 560 149 q 264 -15 376 -15 q 90 59 156 -15 q 25 261 25 133 q 132 568 25 432 q 394 704 239 704 q 543 635 494 704 q 468 900 532 782 l 267 818 l 263 839 l 457 918 q 275 1064 382 1038 l 278 1072 q 514 940 413 1053 l 657 999 m 269 22 q 415 108 350 22 q 510 300 479 193 q 540 496 540 407 q 501 636 540 588 q 401 685 463 685 q 265 606 328 685 q 170 421 203 528 q 138 215 138 314 q 172 72 138 122 q 269 22 206 22 z "},"ñ":{"ha":740,"x_min":32,"x_max":733,"o":"m 364 921 q 311 901 332 921 q 268 833 290 882 l 260 835 q 389 996 304 996 q 485 956 424 996 q 575 915 546 915 q 628 935 607 915 q 671 1003 649 954 l 679 1001 q 550 840 635 840 q 454 881 515 840 q 364 921 393 921 m 726 201 l 733 196 q 625 40 681 96 q 521 -17 569 -17 q 469 131 435 -17 l 551 489 q 569 610 572 557 q 522 663 567 663 q 316 462 432 663 q 143 0 200 261 l 32 0 l 156 585 q 147 656 171 656 q 42 554 119 656 l 35 560 q 130 696 79 647 q 224 744 181 744 q 271 597 301 744 l 199 265 q 382 613 276 481 q 590 744 488 744 q 655 724 632 744 q 683 665 678 704 q 683 581 688 625 q 664 478 678 538 l 586 143 q 585 74 574 82 q 593 72 589 72 q 726 201 631 72 z "},"ò":{"ha":683,"x_min":26,"x_max":654,"o":"m 486 817 l 481 814 q 405 938 460 853 q 342 1039 350 1022 q 333 1068 333 1056 q 349 1103 333 1089 q 383 1117 364 1117 q 431 1082 418 1117 q 455 965 435 1071 q 486 817 475 860 m 279 -17 q 96 60 165 -17 q 26 268 26 138 q 137 596 26 447 q 403 744 247 744 q 586 667 518 744 q 654 458 654 590 q 606 233 654 342 q 470 53 558 124 q 279 -17 382 -17 m 276 3 q 416 90 353 3 q 510 292 479 176 q 540 514 540 407 q 507 668 540 611 q 406 725 474 725 q 266 638 329 725 q 172 436 203 551 q 142 214 142 321 q 176 60 142 117 q 276 3 210 3 z "},"ó":{"ha":683,"x_min":26,"x_max":654,"o":"m 381 814 l 375 818 q 435 915 393 846 q 510 1038 478 985 q 553 1100 543 1090 q 590 1117 572 1117 q 624 1103 610 1117 q 639 1071 639 1090 q 618 1029 639 1053 q 381 814 576 988 m 279 -17 q 96 60 165 -17 q 26 268 26 138 q 137 596 26 447 q 403 744 247 744 q 586 667 518 744 q 654 458 654 590 q 606 233 654 342 q 470 53 558 124 q 279 -17 382 -17 m 276 3 q 416 90 353 3 q 510 292 479 176 q 540 514 540 407 q 507 668 540 611 q 406 725 474 725 q 266 638 329 725 q 172 436 203 551 q 142 214 142 321 q 176 60 142 117 q 276 3 210 3 z "},"ô":{"ha":683,"x_min":26,"x_max":654,"o":"m 622 814 l 467 969 l 238 814 l 235 821 l 486 1096 l 494 1096 l 628 821 l 622 814 m 403 744 q 586 667 518 744 q 654 458 654 590 q 606 233 654 342 q 470 53 558 124 q 279 -17 382 -17 q 96 60 165 -17 q 26 268 26 138 q 137 596 26 447 q 403 744 247 744 m 276 3 q 416 90 353 3 q 510 292 479 176 q 540 514 540 407 q 507 668 540 611 q 406 725 474 725 q 266 638 329 725 q 172 436 203 551 q 142 214 142 321 q 176 60 142 117 q 276 3 210 3 z "},"õ":{"ha":683,"x_min":26,"x_max":661,"o":"m 250 833 l 242 835 q 371 996 286 996 q 467 956 406 996 q 557 915 528 915 q 610 935 589 915 q 653 1003 631 954 l 661 1001 q 532 840 617 840 q 436 881 497 840 q 346 921 375 921 q 293 901 314 921 q 250 833 272 882 m 279 -17 q 96 60 165 -17 q 26 268 26 138 q 137 596 26 447 q 403 744 247 744 q 586 667 518 744 q 654 458 654 590 q 606 233 654 342 q 470 53 558 124 q 279 -17 382 -17 m 276 3 q 416 90 353 3 q 510 292 479 176 q 540 514 540 407 q 507 668 540 611 q 406 725 474 725 q 266 638 329 725 q 172 436 203 551 q 142 214 142 321 q 176 60 142 117 q 276 3 210 3 z "},"ö":{"ha":683,"x_min":26,"x_max":654,"o":"m 391 876 q 380 865 391 876 q 338 854 369 854 q 284 876 306 854 q 263 929 263 897 q 284 983 263 961 q 338 1004 306 1004 q 391 983 369 1004 q 413 929 413 961 q 391 876 413 897 m 574 854 q 519 876 542 854 q 497 929 497 897 q 519 983 497 961 q 574 1004 542 1004 q 626 982 604 1004 q 647 929 647 960 q 626 876 647 899 q 574 854 604 854 m 279 -17 q 96 60 165 -17 q 26 268 26 138 q 137 596 26 447 q 403 744 247 744 q 586 667 518 744 q 654 458 654 590 q 606 233 654 342 q 470 53 558 124 q 279 -17 382 -17 m 276 3 q 416 90 353 3 q 510 292 479 176 q 540 514 540 407 q 507 668 540 611 q 406 725 474 725 q 266 638 329 725 q 172 436 203 551 q 142 214 142 321 q 176 60 142 117 q 276 3 210 3 z "},"÷":{"ha":706,"x_min":99,"x_max":665,"o":"m 417 724 q 410 717 417 724 q 382 710 403 710 q 347 724 361 710 q 332 760 332 739 q 347 795 332 781 q 382 810 361 810 q 417 795 403 810 q 432 760 432 781 q 417 724 432 739 m 665 492 l 99 492 l 99 519 l 665 519 l 665 492 m 417 216 q 410 209 417 216 q 382 201 403 201 q 347 216 361 201 q 332 251 332 231 q 347 287 332 272 q 382 301 361 301 q 417 287 403 301 q 432 251 432 272 q 417 216 432 231 z "},"ø":{"ha":681,"x_min":-24,"x_max":704,"o":"m 686 797 l 704 785 l 596 654 q 651 463 651 582 q 542 133 651 282 q 278 -17 432 -17 q 97 56 167 -17 l -7 -69 l -24 -57 l 83 72 q 26 265 26 149 q 137 595 26 446 q 401 744 247 744 q 582 671 513 744 l 686 797 m 139 203 q 143 143 139 172 l 531 611 q 403 725 503 725 q 267 635 329 725 q 172 426 204 544 q 139 203 139 307 m 540 525 q 536 583 540 556 l 149 117 q 276 3 176 3 q 413 93 350 3 q 508 302 475 183 q 540 525 540 421 z "},"ù":{"ha":740,"x_min":33,"x_max":732,"o":"m 513 817 l 506 814 q 431 939 485 854 q 368 1039 376 1024 q 360 1068 360 1056 q 375 1103 360 1089 q 410 1117 390 1117 q 457 1082 444 1117 q 481 965 461 1071 q 513 817 501 860 m 725 201 l 732 196 q 624 39 679 94 q 518 -17 568 -17 q 468 131 438 -17 l 539 457 q 356 114 460 244 q 149 -17 251 -17 q 84 3 107 -17 q 57 63 61 24 q 58 146 53 103 q 76 250 63 189 l 153 585 q 147 656 168 656 q 40 554 118 656 l 33 560 q 127 696 78 647 q 218 744 176 744 q 269 597 304 744 l 188 239 q 169 118 167 171 q 217 65 172 65 q 419 258 303 65 q 592 713 535 450 l 701 731 l 708 731 l 583 143 q 592 72 568 72 q 725 201 629 72 z "},"ú":{"ha":740,"x_min":33,"x_max":732,"o":"m 644 1029 q 406 814 614 999 l 401 818 q 462 915 419 846 q 537 1038 504 985 q 579 1100 569 1090 q 617 1117 599 1117 q 650 1103 636 1117 q 664 1071 664 1090 q 644 1029 664 1051 m 725 201 l 732 196 q 624 39 679 94 q 518 -17 568 -17 q 468 131 438 -17 l 539 457 q 356 114 460 244 q 149 -17 251 -17 q 84 3 107 -17 q 57 63 61 24 q 58 146 53 103 q 76 250 63 189 l 153 585 q 147 656 168 656 q 40 554 118 656 l 33 560 q 127 696 78 647 q 218 744 176 744 q 269 597 304 744 l 188 239 q 169 118 167 171 q 217 65 172 65 q 419 258 303 65 q 592 713 535 450 l 701 731 l 708 731 l 583 143 q 592 72 568 72 q 725 201 629 72 z "},"û":{"ha":740,"x_min":33,"x_max":732,"o":"m 649 814 l 492 971 l 264 814 l 261 821 l 513 1096 l 521 1096 l 654 821 l 649 814 m 725 201 l 732 196 q 624 39 679 94 q 518 -17 568 -17 q 468 131 438 -17 l 539 457 q 356 114 460 244 q 149 -17 251 -17 q 84 3 107 -17 q 57 63 61 24 q 58 146 53 103 q 76 250 63 189 l 153 585 q 147 656 168 656 q 40 554 118 656 l 33 560 q 127 696 78 647 q 218 744 176 744 q 269 597 304 744 l 188 239 q 169 118 167 171 q 217 65 172 65 q 419 258 303 65 q 592 713 535 450 l 701 731 l 708 731 l 583 143 q 592 72 568 72 q 725 201 629 72 z "},"ü":{"ha":740,"x_min":33,"x_max":732,"o":"m 417 876 q 406 865 417 876 q 364 854 394 854 q 311 876 333 854 q 289 929 289 897 q 311 983 289 961 q 364 1004 333 1004 q 417 983 394 1004 q 439 929 439 961 q 417 876 439 897 m 652 876 q 641 865 652 876 q 599 854 631 854 q 545 876 567 854 q 524 929 524 897 q 545 983 524 961 q 599 1004 567 1004 q 652 983 631 1004 q 674 929 674 961 q 652 876 674 897 m 725 201 l 732 196 q 624 39 679 94 q 518 -17 568 -17 q 468 131 438 -17 l 539 457 q 356 114 460 244 q 149 -17 251 -17 q 84 3 107 -17 q 57 63 61 24 q 58 146 53 103 q 76 250 63 189 l 153 585 q 147 656 168 656 q 40 554 118 656 l 33 560 q 127 696 78 647 q 218 744 176 744 q 269 597 304 744 l 188 239 q 169 118 167 171 q 217 65 172 65 q 419 258 303 65 q 592 713 535 450 l 701 731 l 708 731 l 583 143 q 592 72 568 72 q 725 201 629 72 z "},"ý":{"ha":640,"x_min":-144,"x_max":622,"o":"m 572 1029 q 335 814 531 988 l 329 818 q 390 915 347 846 q 465 1038 432 985 q 508 1100 499 1090 q 546 1117 528 1117 q 579 1103 565 1117 q 593 1071 593 1090 q 572 1029 593 1050 m 464 728 l 564 744 q 622 592 622 697 q 518 215 622 432 q 258 -164 414 -3 q -28 -325 101 -325 q -144 -281 -99 -325 l -101 -189 l -93 -189 q 39 -269 -36 -269 q 189 -185 124 -269 q 254 76 254 -101 q 205 451 254 256 q 101 646 156 646 q 38 538 68 646 l 31 540 q 144 744 54 744 q 253 649 204 744 q 327 414 301 554 q 353 129 353 274 q 338 -36 353 33 q 536 517 536 238 q 464 719 536 665 l 464 728 z "},"þ":{"ha":724,"x_min":-83,"x_max":699,"o":"m 461 744 q 638 669 578 744 q 699 472 699 594 q 576 134 699 285 q 274 -17 454 -17 q 158 7 204 -17 l 121 -172 q 110 -231 113 -210 q 108 -273 107 -253 q 121 -301 110 -293 q 153 -308 132 -308 l 151 -317 l -83 -317 l -82 -308 q -26 -278 -43 -308 q 8 -172 -8 -249 l 176 617 q 42 543 122 592 l 36 551 q 185 660 114 618 l 238 908 q 240 1003 250 975 q 194 1039 229 1031 l 197 1047 l 382 1086 l 388 1086 l 310 717 q 461 744 389 744 m 296 3 q 438 69 371 3 q 543 239 504 135 q 582 453 582 343 q 540 625 582 563 q 410 688 497 688 q 299 668 361 688 l 204 221 l 206 221 q 196 132 196 175 q 296 3 196 3 z "},"ÿ":{"ha":640,"x_min":-144,"x_max":622,"o":"m 347 876 q 336 865 347 876 q 293 854 325 854 q 240 876 261 854 q 218 929 218 897 q 240 983 218 961 q 293 1004 261 1004 q 347 983 325 1004 q 368 929 368 961 q 347 876 368 897 m 581 876 q 569 865 581 876 q 528 854 558 854 q 475 876 497 854 q 453 929 453 897 q 475 983 453 961 q 528 1004 497 1004 q 581 983 558 1004 q 603 929 603 961 q 581 876 603 897 m 464 728 l 564 744 q 622 592 622 697 q 518 215 622 432 q 258 -164 414 -3 q -28 -325 101 -325 q -144 -281 -99 -325 l -101 -189 l -93 -189 q 39 -269 -36 -269 q 189 -185 124 -269 q 254 76 254 -101 q 205 451 254 256 q 101 646 156 646 q 38 538 68 646 l 31 540 q 144 744 54 744 q 253 649 204 744 q 327 414 301 554 q 353 129 353 274 q 338 -36 353 33 q 536 517 536 238 q 464 719 536 665 l 464 728 z "},"Ā":{"ha":824,"x_min":-99,"x_max":767,"o":"m 381 1200 l 765 1200 l 744 1147 l 360 1147 l 381 1200 m 560 1028 l 676 178 q 708 49 690 85 q 767 8 725 13 l 765 0 l 449 0 l 450 8 q 557 146 575 17 l 529 354 l 201 354 l 149 260 q 92 151 111 192 q 67 77 74 111 q 77 28 61 43 q 132 8 93 13 l 131 0 l -99 0 l -97 8 q -3 74 -50 17 q 121 267 43 132 l 549 1028 l 560 1028 m 467 829 l 219 388 l 525 388 l 467 829 z "},"ā":{"ha":710,"x_min":13,"x_max":701,"o":"m 322 928 l 693 928 l 672 875 l 301 875 l 322 928 m 694 201 l 701 196 q 489 -17 590 -17 q 439 131 406 -17 l 474 292 q 328 65 414 146 q 156 -17 242 -17 q 50 36 88 -17 q 13 189 13 89 q 68 442 13 315 q 228 657 124 569 q 456 744 333 744 q 599 688 556 744 l 674 736 l 681 736 l 556 143 q 564 78 540 78 q 694 201 604 78 m 219 51 q 390 187 299 51 q 519 511 481 322 q 526 586 526 550 q 433 725 526 725 q 288 644 360 725 q 174 444 217 564 q 131 213 131 325 q 154 93 131 135 q 219 51 178 51 z "},"Ă":{"ha":824,"x_min":-99,"x_max":794,"o":"m 549 1113 q 458 1149 493 1113 q 410 1231 422 1185 q 399 1336 399 1278 l 407 1338 q 456 1234 415 1276 q 567 1192 496 1192 q 694 1233 636 1192 q 788 1338 751 1275 l 794 1335 q 692 1177 754 1242 q 549 1113 631 1113 m 560 1028 l 676 178 q 708 49 690 85 q 767 8 725 13 l 765 0 l 449 0 l 450 8 q 557 146 575 17 l 529 354 l 201 354 l 149 260 q 92 151 111 192 q 67 77 74 111 q 77 28 61 43 q 132 8 93 13 l 131 0 l -99 0 l -97 8 q -3 74 -50 17 q 121 267 43 132 l 549 1028 l 560 1028 m 467 829 l 219 388 l 525 388 l 467 829 z "},"ă":{"ha":710,"x_min":13,"x_max":715,"o":"m 715 1063 q 483 840 619 840 q 347 1064 347 840 l 356 1065 q 500 919 375 919 q 708 1065 622 919 l 715 1063 m 564 78 q 694 201 604 78 l 701 196 q 489 -17 590 -17 q 439 131 406 -17 l 474 292 q 328 65 414 146 q 156 -17 242 -17 q 50 36 88 -17 q 13 189 13 89 q 68 442 13 315 q 228 657 124 569 q 456 744 333 744 q 599 688 556 744 l 674 736 l 681 736 l 556 143 q 564 78 540 78 m 219 51 q 390 187 299 51 q 519 511 481 322 q 526 586 526 550 q 433 725 526 725 q 288 644 360 725 q 174 444 217 564 q 131 213 131 325 q 154 93 131 135 q 219 51 178 51 z "},"Ą":{"ha":824,"x_min":-99,"x_max":767,"o":"m 765 0 l 644 0 q 554 -106 583 -56 q 525 -189 525 -157 q 540 -226 525 -212 q 579 -240 554 -240 q 681 -197 621 -240 l 685 -204 q 519 -286 592 -286 q 458 -265 481 -286 q 436 -211 436 -244 q 624 0 436 -117 l 449 0 l 450 8 q 557 146 575 17 l 529 354 l 201 354 l 149 260 q 92 151 111 192 q 67 77 74 111 q 77 28 61 43 q 132 8 93 13 l 131 0 l -99 0 l -97 8 q -3 74 -50 17 q 121 267 43 132 l 549 1028 l 560 1028 l 676 178 q 708 49 690 85 q 767 8 725 13 l 765 0 m 467 829 l 219 388 l 525 388 l 467 829 z "},"ą":{"ha":710,"x_min":13,"x_max":701,"o":"m 536 -4 q 449 -110 478 -60 q 421 -189 421 -160 q 435 -226 421 -212 q 475 -240 450 -240 q 576 -197 517 -240 l 581 -204 q 415 -286 490 -286 q 354 -265 376 -286 q 332 -211 332 -244 q 494 -17 332 -124 l 489 -17 q 439 131 406 -17 l 474 292 q 328 65 414 146 q 156 -17 242 -17 q 50 36 88 -17 q 13 189 13 89 q 68 442 13 315 q 228 657 124 569 q 456 744 333 744 q 599 688 556 744 l 674 736 l 681 736 l 556 143 q 564 78 540 78 q 694 201 604 78 l 701 196 q 536 -4 621 39 m 219 51 q 390 187 299 51 q 519 511 481 322 q 526 586 526 550 q 433 725 526 725 q 288 644 360 725 q 174 444 217 564 q 131 213 131 325 q 154 93 131 135 q 219 51 178 51 z "},"Ć":{"ha":842,"x_min":58,"x_max":922,"o":"m 585 1086 l 581 1090 q 641 1188 599 1118 q 716 1310 683 1257 q 758 1372 749 1363 q 796 1389 778 1389 q 829 1376 815 1389 q 843 1343 843 1363 q 824 1301 843 1324 q 585 1086 800 1278 m 442 -17 q 158 90 258 -17 q 58 381 58 197 q 98 613 58 499 q 208 819 138 726 q 390 970 279 913 q 632 1028 501 1028 q 922 944 794 1028 l 896 785 l 888 785 q 636 1008 822 1008 q 397 899 503 1008 q 240 637 292 789 q 188 333 188 485 q 251 93 188 183 q 435 3 314 3 q 782 251 626 3 l 790 251 l 726 54 q 442 -17 569 -17 z "},"ć":{"ha":563,"x_min":18,"x_max":656,"o":"m 397 814 l 392 818 q 452 915 410 846 q 527 1038 494 985 q 569 1100 560 1090 q 607 1117 589 1117 q 641 1103 626 1117 q 656 1071 656 1090 q 635 1029 656 1053 q 397 814 593 988 m 208 -17 q 69 41 121 -17 q 18 215 18 99 q 74 461 18 339 q 227 664 129 583 q 435 744 325 744 q 553 706 511 744 q 596 607 596 668 l 521 532 l 513 532 q 500 676 524 626 q 425 725 476 725 q 228 569 321 725 q 136 239 136 413 q 260 53 136 53 q 503 214 372 53 l 511 208 q 363 38 436 92 q 208 -17 290 -17 z "},"Ĉ":{"ha":842,"x_min":58,"x_max":922,"o":"m 840 1086 l 669 1244 l 426 1086 l 424 1093 l 689 1368 l 697 1368 l 846 1093 l 840 1086 m 632 1028 q 922 944 794 1028 l 896 785 l 888 785 q 636 1008 822 1008 q 397 899 503 1008 q 240 637 292 789 q 188 333 188 485 q 251 93 188 183 q 435 3 314 3 q 782 251 626 3 l 790 251 l 726 54 q 442 -17 569 -17 q 158 90 258 -17 q 58 381 58 197 q 98 613 58 499 q 208 819 138 726 q 390 970 279 913 q 632 1028 501 1028 z "},"ĉ":{"ha":565,"x_min":18,"x_max":644,"o":"m 503 1096 l 511 1096 l 644 821 l 639 814 l 483 969 l 254 814 l 251 821 l 503 1096 m 435 744 q 553 706 511 744 q 596 607 596 668 l 521 532 l 513 532 q 500 676 524 626 q 425 725 476 725 q 228 569 321 725 q 136 239 136 413 q 260 53 136 53 q 503 214 372 53 l 511 208 q 363 38 436 92 q 208 -17 290 -17 q 69 41 121 -17 q 18 215 18 99 q 74 461 18 339 q 227 664 129 583 q 435 744 325 744 z "},"Ċ":{"ha":842,"x_min":58,"x_max":922,"o":"m 712 1150 q 700 1138 712 1150 q 657 1126 689 1126 q 602 1150 625 1126 q 579 1206 579 1174 q 602 1260 579 1238 q 657 1283 625 1283 q 712 1260 689 1283 q 735 1206 735 1238 q 712 1150 735 1174 m 442 -17 q 158 90 258 -17 q 58 381 58 197 q 98 613 58 499 q 208 819 138 726 q 390 970 279 913 q 632 1028 501 1028 q 922 944 794 1028 l 896 785 l 888 785 q 636 1008 822 1008 q 397 899 503 1008 q 240 637 292 789 q 188 333 188 485 q 251 93 188 183 q 435 3 314 3 q 782 251 626 3 l 790 251 l 726 54 q 442 -17 569 -17 z "},"ċ":{"ha":563,"x_min":18,"x_max":596,"o":"m 527 877 q 516 866 527 877 q 472 854 504 854 q 417 877 440 854 q 394 933 394 900 q 417 988 394 965 q 472 1011 440 1011 q 527 988 504 1011 q 550 933 550 965 q 527 877 550 900 m 208 -17 q 69 41 121 -17 q 18 215 18 99 q 74 461 18 339 q 227 664 129 583 q 435 744 325 744 q 553 706 511 744 q 596 607 596 668 l 521 532 l 513 532 q 500 676 524 626 q 425 725 476 725 q 228 569 321 725 q 136 239 136 413 q 260 53 136 53 q 503 214 372 53 l 511 208 q 363 38 436 92 q 208 -17 290 -17 z "},"Č":{"ha":842,"x_min":58,"x_max":922,"o":"m 903 1361 l 638 1086 l 629 1086 l 481 1361 l 486 1368 l 657 1210 l 900 1368 l 903 1361 m 632 1028 q 922 944 794 1028 l 896 785 l 888 785 q 636 1008 822 1008 q 397 899 503 1008 q 240 637 292 789 q 188 333 188 485 q 251 93 188 183 q 435 3 314 3 q 782 251 626 3 l 790 251 l 726 54 q 442 -17 569 -17 q 158 90 258 -17 q 58 381 58 197 q 98 613 58 499 q 208 819 138 726 q 390 970 279 913 q 632 1028 501 1028 z "},"č":{"ha":565,"x_min":18,"x_max":703,"o":"m 703 1089 l 451 814 l 443 814 l 308 1089 l 314 1096 l 471 939 l 700 1096 l 703 1089 m 435 744 q 553 706 511 744 q 596 607 596 668 l 521 532 l 513 532 q 500 676 524 626 q 425 725 476 725 q 228 569 321 725 q 136 239 136 413 q 260 53 136 53 q 503 214 372 53 l 511 208 q 363 38 436 92 q 208 -17 290 -17 q 69 41 121 -17 q 18 215 18 99 q 74 461 18 339 q 227 664 129 583 q 435 744 325 744 z "},"Ď":{"ha":969,"x_min":-50,"x_max":969,"o":"m 815 1361 l 550 1086 l 542 1086 l 393 1361 l 399 1368 l 569 1210 l 813 1368 l 815 1361 m 164 1011 l 550 1011 q 860 908 751 1011 q 969 625 969 806 q 798 182 969 364 q 354 0 626 0 l -50 0 l -49 8 q 41 44 17 8 q 85 168 65 79 l 228 843 q 238 963 250 922 q 163 1003 226 1003 l 164 1011 m 344 22 q 523 58 440 22 q 663 156 606 94 q 760 298 719 217 q 819 468 800 379 q 839 649 839 557 q 763 901 839 814 q 543 989 686 989 l 435 989 q 371 939 381 989 l 196 111 q 216 44 186 67 q 344 22 246 22 z "},"ď":{"ha":803,"x_min":13,"x_max":999,"o":"m 749 1086 l 754 1086 l 554 143 q 564 78 539 78 q 619 113 582 78 q 694 201 656 149 l 701 196 q 489 -17 589 -17 q 439 131 406 -17 l 474 293 q 328 65 414 146 q 156 -17 242 -17 q 50 36 88 -17 q 13 189 13 89 q 68 442 13 315 q 228 657 124 569 q 454 744 332 744 q 564 718 521 744 l 604 908 q 607 1003 617 975 q 563 1039 597 1031 l 564 1047 l 749 1086 m 904 1086 q 971 1057 943 1086 q 999 979 999 1028 q 952 860 999 907 q 838 800 906 814 l 836 808 q 915 853 882 825 q 949 913 949 881 q 892 961 949 950 q 838 1021 838 972 q 856 1067 838 1049 q 904 1086 875 1086 m 218 51 q 389 187 297 51 q 519 511 481 322 q 526 586 526 550 q 433 725 526 725 q 287 644 358 725 q 173 444 215 564 q 131 213 131 325 q 218 51 131 51 z "},"Đ":{"ha":976,"x_min":-44,"x_max":975,"o":"m 169 1011 l 557 1011 q 867 908 758 1011 q 975 625 975 806 q 803 182 975 364 q 361 0 632 0 l -44 0 l -43 8 q 47 44 22 8 q 92 168 72 79 l 164 507 l 54 507 l 60 535 l 169 535 l 235 843 q 244 963 256 922 q 168 1003 232 1003 l 169 1011 m 350 22 q 528 58 446 22 q 668 156 611 94 q 765 298 725 217 q 825 468 806 379 q 844 649 844 557 q 768 901 844 814 q 550 989 692 989 l 440 989 q 376 939 386 989 l 290 535 l 503 535 l 497 507 l 285 507 l 201 111 q 222 44 192 67 q 350 22 251 22 z "},"đ":{"ha":710,"x_min":13,"x_max":833,"o":"m 828 911 l 717 911 l 554 143 q 564 78 539 78 q 619 113 582 78 q 694 201 656 149 l 701 196 q 489 -17 589 -17 q 439 131 406 -17 l 474 293 q 328 65 414 146 q 156 -17 242 -17 q 50 36 88 -17 q 13 189 13 89 q 68 442 13 315 q 228 657 124 569 q 454 744 332 744 q 564 718 521 744 l 604 908 l 604 911 l 422 911 l 428 939 l 610 939 q 605 1008 617 986 q 563 1039 593 1031 l 564 1047 l 749 1086 l 754 1086 l 724 939 l 833 939 l 828 911 m 218 51 q 389 187 297 51 q 519 511 481 322 q 526 586 526 550 q 433 725 526 725 q 287 644 358 725 q 173 444 215 564 q 131 213 131 325 q 218 51 131 51 z "},"Ē":{"ha":775,"x_min":-50,"x_max":843,"o":"m 351 1200 l 736 1200 l 715 1147 l 331 1147 l 351 1200 m 163 1003 l 164 1011 l 843 1011 l 818 803 l 810 803 q 739 955 782 921 q 581 989 696 989 l 382 989 l 286 538 l 442 538 q 572 565 532 538 q 647 674 611 593 l 656 674 l 592 369 l 583 369 q 552 483 581 450 q 436 515 524 515 l 281 515 l 190 88 q 192 38 183 54 q 232 22 201 22 l 396 22 q 573 60 511 22 q 724 233 635 99 l 732 233 l 650 0 l -50 0 l -49 8 q 42 47 17 8 q 86 174 68 85 l 228 838 q 238 894 235 874 q 241 939 242 915 q 233 974 240 963 q 208 994 225 986 q 163 1003 190 1003 z "},"ē":{"ha":576,"x_min":17,"x_max":668,"o":"m 276 875 l 297 928 l 668 928 l 647 875 l 276 875 m 449 744 q 562 716 524 744 q 600 638 600 688 q 490 487 600 550 q 147 354 379 424 q 135 238 135 297 q 258 51 135 51 q 515 214 381 51 l 524 208 q 207 -18 378 -18 q 69 40 121 -18 q 17 211 17 99 q 47 388 17 296 q 129 560 76 479 q 266 692 182 640 q 449 744 350 744 m 153 378 q 415 501 333 442 q 496 643 496 560 q 426 724 496 724 q 266 621 346 724 q 153 378 186 518 z "},"Ĕ":{"ha":775,"x_min":-50,"x_max":843,"o":"m 521 1113 q 430 1149 465 1113 q 383 1231 394 1185 q 369 1336 371 1278 l 379 1338 q 427 1233 388 1275 q 538 1192 467 1192 q 665 1233 607 1192 q 760 1338 722 1275 l 767 1335 q 665 1177 726 1242 q 521 1113 603 1113 m 163 1003 l 164 1011 l 843 1011 l 818 803 l 810 803 q 739 955 782 921 q 581 989 696 989 l 382 989 l 286 538 l 442 538 q 572 565 532 538 q 647 674 611 593 l 656 674 l 592 369 l 583 369 q 552 483 581 450 q 436 515 524 515 l 281 515 l 190 88 q 192 38 183 54 q 232 22 201 22 l 396 22 q 573 60 511 22 q 724 233 635 99 l 732 233 l 650 0 l -50 0 l -49 8 q 42 47 17 8 q 86 174 68 85 l 228 838 q 238 894 235 874 q 241 939 242 915 q 233 974 240 963 q 208 994 225 986 q 163 1003 190 1003 z "},"ĕ":{"ha":576,"x_min":17,"x_max":690,"o":"m 690 1063 q 458 840 594 840 q 322 1064 322 840 l 331 1065 q 475 919 350 919 q 683 1065 597 919 l 690 1063 m 449 744 q 562 716 524 744 q 600 638 600 688 q 490 487 600 550 q 147 354 379 424 q 135 238 135 297 q 258 51 135 51 q 515 214 381 51 l 524 208 q 207 -18 378 -18 q 69 40 121 -18 q 17 211 17 99 q 47 388 17 296 q 129 560 76 479 q 266 692 182 640 q 449 744 350 744 m 153 378 q 415 501 333 442 q 496 643 496 560 q 426 724 496 724 q 266 621 346 724 q 153 378 186 518 z "},"Ė":{"ha":775,"x_min":-50,"x_max":843,"o":"m 595 1150 q 584 1138 595 1150 q 540 1126 572 1126 q 485 1150 508 1126 q 463 1206 463 1174 q 485 1260 463 1238 q 540 1283 508 1283 q 595 1260 572 1283 q 618 1206 618 1238 q 595 1150 618 1174 m 163 1003 l 164 1011 l 843 1011 l 818 803 l 810 803 q 739 955 782 921 q 581 989 696 989 l 382 989 l 286 538 l 442 538 q 572 565 532 538 q 647 674 611 593 l 656 674 l 592 369 l 583 369 q 552 483 581 450 q 436 515 524 515 l 281 515 l 190 88 q 192 38 183 54 q 232 22 201 22 l 396 22 q 573 60 511 22 q 724 233 635 99 l 732 233 l 650 0 l -50 0 l -49 8 q 42 47 17 8 q 86 174 68 85 l 228 838 q 238 894 235 874 q 241 939 242 915 q 233 974 240 963 q 208 994 225 986 q 163 1003 190 1003 z "},"ė":{"ha":576,"x_min":17,"x_max":600,"o":"m 479 854 q 423 877 446 854 q 400 933 400 900 q 423 988 400 965 q 479 1011 446 1011 q 534 988 511 1011 q 557 933 557 965 q 534 877 557 900 q 479 854 511 854 m 600 638 q 490 487 600 550 q 147 354 379 424 q 135 238 135 297 q 258 51 135 51 q 515 214 381 51 l 524 208 q 207 -18 378 -18 q 69 40 121 -18 q 17 211 17 99 q 47 388 17 296 q 129 560 76 479 q 266 692 182 640 q 449 744 350 744 q 562 716 524 744 q 600 638 600 688 m 426 724 q 266 621 346 724 q 153 378 186 518 q 415 501 333 442 q 496 643 496 560 q 426 724 496 724 z "},"Ę":{"ha":775,"x_min":-50,"x_max":843,"o":"m 163 1003 l 164 1011 l 843 1011 l 818 803 l 810 803 q 739 955 782 921 q 581 989 696 989 l 382 989 l 286 538 l 442 538 q 572 565 532 538 q 647 674 611 593 l 656 674 l 592 369 l 583 369 q 552 483 581 450 q 436 515 524 515 l 281 515 l 190 88 q 192 38 183 54 q 232 22 201 22 l 396 22 q 573 60 511 22 q 724 233 635 99 l 732 233 l 650 0 l 546 0 q 456 -106 485 -56 q 426 -189 426 -157 q 441 -226 426 -212 q 481 -240 456 -240 q 582 -197 522 -240 l 586 -204 q 421 -286 493 -286 q 360 -265 382 -286 q 338 -211 338 -244 q 525 0 338 -117 l -50 0 l -49 8 q 42 47 17 8 q 86 174 68 85 l 228 838 q 238 894 235 874 q 241 939 242 915 q 233 974 240 963 q 208 994 225 986 q 163 1003 190 1003 z "},"ę":{"ha":576,"x_min":17,"x_max":600,"o":"m 600 638 q 490 487 600 550 q 147 354 379 424 q 135 238 135 297 q 258 51 135 51 q 515 214 381 51 l 524 208 q 314 6 425 56 q 219 -106 250 -53 q 188 -189 188 -158 q 202 -226 188 -212 q 242 -240 217 -240 q 344 -197 285 -240 l 349 -204 q 183 -286 256 -286 q 121 -265 143 -286 q 99 -211 99 -244 q 272 -10 99 -121 q 207 -18 239 -18 q 69 40 121 -18 q 17 211 17 99 q 47 388 17 296 q 129 560 76 479 q 266 692 182 640 q 449 744 350 744 q 562 716 524 744 q 600 638 600 688 m 426 724 q 266 621 346 724 q 153 378 186 518 q 415 501 333 442 q 496 643 496 560 q 426 724 496 724 z "},"Ě":{"ha":775,"x_min":-50,"x_max":843,"o":"m 786 1361 l 519 1086 l 513 1086 l 364 1361 l 369 1368 l 540 1210 l 783 1368 l 786 1361 m 163 1003 l 164 1011 l 843 1011 l 818 803 l 810 803 q 739 955 782 921 q 581 989 696 989 l 382 989 l 286 538 l 442 538 q 572 565 532 538 q 647 674 611 593 l 656 674 l 592 369 l 583 369 q 552 483 581 450 q 436 515 524 515 l 281 515 l 190 88 q 192 38 183 54 q 232 22 201 22 l 396 22 q 573 60 511 22 q 724 233 635 99 l 732 233 l 650 0 l -50 0 l -49 8 q 42 47 17 8 q 86 174 68 85 l 228 838 q 238 894 235 874 q 241 939 242 915 q 233 974 240 963 q 208 994 225 986 q 163 1003 190 1003 z "},"ě":{"ha":576,"x_min":17,"x_max":708,"o":"m 708 1089 l 457 814 l 450 814 l 315 1089 l 321 1096 l 476 939 l 706 1096 l 708 1089 m 449 744 q 562 716 524 744 q 600 638 600 688 q 490 487 600 550 q 147 354 379 424 q 135 238 135 297 q 258 51 135 51 q 515 214 381 51 l 524 208 q 207 -18 378 -18 q 69 40 121 -18 q 17 211 17 99 q 47 388 17 296 q 129 560 76 479 q 266 692 182 640 q 449 744 350 744 m 153 378 q 415 501 333 442 q 496 643 496 560 q 426 724 496 724 q 266 621 346 724 q 153 378 186 518 z "},"Ĝ":{"ha":913,"x_min":61,"x_max":953,"o":"m 824 1086 l 653 1244 l 410 1086 l 407 1093 l 672 1368 l 681 1368 l 829 1093 l 824 1086 m 640 1028 q 953 950 818 1028 l 924 790 l 915 790 q 639 1008 853 1008 q 484 966 557 1008 q 358 854 411 924 q 267 697 306 785 q 208 516 228 610 q 189 335 189 422 q 253 93 189 183 q 438 3 317 3 q 599 40 531 3 q 679 133 668 76 l 711 286 q 724 401 732 361 q 657 446 715 442 l 658 454 l 913 454 l 911 446 q 867 408 882 442 q 833 286 853 375 l 789 83 q 432 -17 622 -17 q 160 91 260 -17 q 61 383 61 199 q 131 696 61 550 q 335 935 200 842 q 640 1028 469 1028 z "},"ĝ":{"ha":631,"x_min":-72,"x_max":696,"o":"m 564 814 l 408 971 l 179 814 l 176 821 l 428 1096 l 436 1096 l 569 821 l 564 814 m 481 707 l 696 738 l 663 667 l 510 681 q 561 542 561 626 q 480 338 561 424 q 279 251 399 253 q 198 222 219 235 q 176 188 176 208 q 218 149 176 161 l 363 110 q 531 43 475 78 q 586 -58 586 8 q 458 -253 586 -172 q 163 -333 329 -333 q -13 -288 46 -333 q -72 -168 -72 -243 q -22 -45 -72 -100 q 119 36 29 10 l 142 40 l 147 39 q 18 -135 18 -25 q 74 -245 18 -203 q 239 -287 131 -287 q 432 -240 353 -287 q 511 -124 511 -193 q 483 -59 511 -86 q 422 -20 454 -32 q 338 6 390 -8 l 167 51 q 82 139 82 75 q 229 256 82 222 q 106 322 151 268 q 61 456 61 375 q 144 659 61 574 q 346 744 226 744 q 481 707 425 744 m 271 271 q 405 374 353 271 q 457 585 457 476 q 354 725 457 725 q 218 623 271 725 q 165 413 165 521 q 271 271 165 271 z "},"Ğ":{"ha":913,"x_min":61,"x_max":953,"o":"m 621 1113 q 530 1149 565 1113 q 483 1231 494 1185 q 471 1336 471 1278 l 479 1338 q 528 1234 488 1276 q 639 1192 568 1192 q 766 1233 708 1192 q 860 1338 824 1275 l 867 1335 q 765 1177 826 1242 q 621 1113 703 1113 m 432 -17 q 160 91 260 -17 q 61 383 61 199 q 131 696 61 550 q 335 935 200 842 q 640 1028 469 1028 q 953 950 818 1028 l 924 790 l 915 790 q 639 1008 853 1008 q 484 966 557 1008 q 358 854 411 924 q 267 697 306 785 q 208 516 228 610 q 189 335 189 422 q 253 93 189 183 q 438 3 317 3 q 599 40 531 3 q 679 133 668 76 l 711 286 q 724 401 732 361 q 657 446 715 442 l 658 454 l 913 454 l 911 446 q 867 408 882 442 q 833 286 853 375 l 789 83 q 432 -17 622 -17 z "},"ğ":{"ha":631,"x_min":-72,"x_max":696,"o":"m 378 840 q 306 860 335 840 q 265 915 278 879 q 246 985 251 950 q 240 1064 240 1019 l 250 1065 q 394 919 269 919 q 603 1065 517 919 l 610 1063 q 378 840 514 840 m 481 707 l 696 738 l 663 667 l 510 681 q 561 542 561 626 q 480 338 561 424 q 279 251 399 253 q 198 222 219 235 q 176 188 176 208 q 218 149 176 161 l 363 110 q 531 43 475 78 q 586 -58 586 8 q 458 -253 586 -172 q 163 -333 329 -333 q -13 -288 46 -333 q -72 -168 -72 -243 q -22 -45 -72 -100 q 119 36 29 10 l 142 40 l 147 39 q 18 -135 18 -25 q 74 -245 18 -203 q 239 -287 131 -287 q 432 -240 353 -287 q 511 -124 511 -193 q 483 -59 511 -86 q 422 -20 454 -32 q 338 6 390 -8 l 167 51 q 82 139 82 75 q 229 256 82 222 q 106 322 151 268 q 61 456 61 375 q 144 659 61 574 q 346 744 226 744 q 481 707 425 744 m 271 271 q 405 374 353 271 q 457 585 457 476 q 354 725 457 725 q 218 623 271 725 q 165 413 165 521 q 271 271 165 271 z "},"Ġ":{"ha":913,"x_min":61,"x_max":953,"o":"m 642 1126 q 585 1150 608 1126 q 563 1206 563 1174 q 585 1260 563 1238 q 642 1283 608 1283 q 697 1260 674 1283 q 719 1206 719 1238 q 697 1150 719 1174 q 642 1126 674 1126 m 432 -17 q 160 91 260 -17 q 61 383 61 199 q 131 696 61 550 q 335 935 200 842 q 640 1028 469 1028 q 953 950 818 1028 l 924 790 l 915 790 q 639 1008 853 1008 q 484 966 557 1008 q 358 854 411 924 q 267 697 306 785 q 208 516 228 610 q 189 335 189 422 q 253 93 189 183 q 438 3 317 3 q 599 40 531 3 q 679 133 668 76 l 711 286 q 724 401 732 361 q 657 446 715 442 l 658 454 l 913 454 l 911 446 q 867 408 882 442 q 833 286 853 375 l 789 83 q 432 -17 622 -17 z "},"ġ":{"ha":631,"x_min":-72,"x_max":696,"o":"m 399 854 q 342 877 365 854 q 319 933 319 900 q 342 988 319 965 q 399 1011 365 1011 q 453 988 431 1011 q 476 933 476 964 q 453 877 476 900 q 399 854 431 854 m 481 707 l 696 738 l 663 667 l 510 681 q 561 542 561 626 q 480 338 561 424 q 279 251 399 253 q 198 222 219 235 q 176 188 176 208 q 218 149 176 161 l 363 110 q 531 43 475 78 q 586 -58 586 8 q 458 -253 586 -172 q 163 -333 329 -333 q -13 -288 46 -333 q -72 -168 -72 -243 q -22 -45 -72 -100 q 119 36 29 10 l 142 40 l 147 39 q 18 -135 18 -25 q 74 -245 18 -203 q 239 -287 131 -287 q 432 -240 353 -287 q 511 -124 511 -193 q 483 -59 511 -86 q 422 -20 454 -32 q 338 6 390 -8 l 167 51 q 82 139 82 75 q 229 256 82 222 q 106 322 151 268 q 61 456 61 375 q 144 659 61 574 q 346 744 226 744 q 481 707 425 744 m 271 271 q 405 374 353 271 q 457 585 457 476 q 354 725 457 725 q 218 623 271 725 q 165 413 165 521 q 271 271 165 271 z "},"Ģ":{"ha":913,"x_min":61,"x_max":953,"o":"m 432 -17 q 160 91 260 -17 q 61 383 61 199 q 131 696 61 550 q 335 935 200 842 q 640 1028 469 1028 q 953 950 818 1028 l 924 790 l 915 790 q 639 1008 853 1008 q 484 966 557 1008 q 358 854 411 924 q 267 697 306 785 q 208 516 228 610 q 189 335 189 422 q 253 93 189 183 q 438 3 317 3 q 599 40 531 3 q 679 133 668 76 l 711 286 q 724 401 732 361 q 657 446 715 442 l 658 454 l 913 454 l 911 446 q 867 408 882 442 q 833 286 853 375 l 789 83 q 432 -17 622 -17 m 292 -353 l 290 -344 q 370 -299 336 -328 q 404 -239 404 -271 q 346 -190 404 -203 q 293 -132 293 -179 q 312 -85 293 -104 q 360 -67 331 -67 q 425 -96 397 -67 q 453 -172 453 -125 q 406 -292 453 -246 q 292 -353 360 -339 z "},"ģ":{"ha":631,"x_min":-72,"x_max":696,"o":"m 397 840 q 330 869 358 840 q 301 947 301 899 q 349 1066 301 1019 q 464 1126 396 1113 l 465 1118 q 385 1074 418 1101 q 351 1014 351 1046 q 408 964 351 976 q 463 906 463 956 q 444 859 463 878 q 397 840 426 840 m 481 707 l 696 738 l 663 667 l 510 681 q 561 542 561 626 q 480 338 561 424 q 279 251 399 253 q 198 222 219 235 q 176 188 176 208 q 218 149 176 161 l 363 110 q 531 43 475 78 q 586 -58 586 8 q 458 -253 586 -172 q 163 -333 329 -333 q -13 -288 46 -333 q -72 -168 -72 -243 q -22 -45 -72 -100 q 119 36 29 10 l 142 40 l 147 39 q 18 -135 18 -25 q 74 -245 18 -203 q 239 -287 131 -287 q 432 -240 353 -287 q 511 -124 511 -193 q 483 -59 511 -86 q 422 -20 454 -32 q 338 6 390 -8 l 167 51 q 82 139 82 75 q 229 256 82 222 q 106 322 151 268 q 61 456 61 375 q 144 659 61 574 q 346 744 226 744 q 481 707 425 744 m 271 271 q 405 374 353 271 q 457 585 457 476 q 354 725 457 725 q 218 623 271 725 q 165 413 165 521 q 271 271 165 271 z "},"Ĥ":{"ha":925,"x_min":-50,"x_max":1035,"o":"m 789 1086 l 618 1244 l 375 1086 l 372 1093 l 638 1368 l 646 1368 l 794 1093 l 789 1086 m 711 1003 l 713 1011 l 1035 1011 l 1033 1003 q 943 965 968 1003 q 899 838 918 928 l 758 174 q 747 53 736 97 q 822 8 757 8 l 821 0 l 499 0 l 500 8 q 591 47 565 8 q 635 174 617 85 l 707 511 l 281 511 l 208 174 q 198 117 201 138 q 195 72 194 96 q 203 37 196 49 q 228 17 211 25 q 274 8 246 8 l 272 0 l -50 0 l -49 8 q 42 47 17 8 q 86 174 68 85 l 228 838 q 238 894 235 874 q 241 939 242 915 q 233 974 240 963 q 208 994 225 986 q 163 1003 190 1003 l 164 1011 l 486 1011 l 485 1003 q 394 965 419 1003 q 350 838 368 926 l 286 536 l 713 536 l 776 838 q 788 958 799 914 q 711 1003 776 1003 z "},"ĥ":{"ha":708,"x_min":0,"x_max":703,"o":"m 490 1086 l 319 1244 l 76 1086 l 74 1093 l 339 1368 l 347 1368 l 496 1093 l 490 1086 m 696 201 l 703 196 q 593 39 649 94 q 489 -17 538 -17 q 439 131 404 -17 l 519 489 q 538 610 540 557 q 490 663 535 663 q 284 462 400 663 q 113 0 168 261 l 0 0 l 192 908 q 194 1002 204 974 q 149 1039 185 1031 l 151 1047 l 336 1086 l 342 1086 l 169 271 q 352 614 247 483 q 560 744 457 744 q 624 724 601 744 q 651 665 647 704 q 651 581 656 625 q 632 478 646 538 l 556 143 q 561 72 538 72 q 696 201 599 72 z "},"Ħ":{"ha":928,"x_min":-49,"x_max":1036,"o":"m 1036 1011 l 1035 1003 q 944 965 969 1003 q 900 838 919 928 l 893 803 l 990 803 l 985 775 l 886 775 l 758 174 q 748 117 751 138 q 745 72 744 96 q 753 37 746 49 q 778 17 761 25 q 824 8 796 8 l 822 0 l 500 0 l 501 8 q 592 47 567 8 q 636 174 618 85 l 708 511 l 282 511 l 210 174 q 199 117 203 138 q 197 72 196 96 q 205 37 197 49 q 230 17 213 25 q 275 8 247 8 l 274 0 l -49 0 l -47 8 q 43 46 18 8 q 88 174 68 83 l 215 775 l 114 775 l 119 803 l 222 803 l 229 838 q 240 894 236 874 q 242 939 243 915 q 234 974 242 963 q 209 994 226 986 q 164 1003 192 1003 l 165 1011 l 488 1011 l 486 1003 q 395 965 421 1003 q 351 838 369 926 l 344 803 l 771 803 l 778 838 q 788 894 785 874 q 791 939 792 915 q 783 974 790 963 q 758 994 775 986 q 713 1003 740 1003 l 714 1011 l 1036 1011 m 288 536 l 714 536 l 764 775 l 338 775 l 288 536 z "},"ħ":{"ha":693,"x_min":-15,"x_max":688,"o":"m 681 201 l 688 196 q 578 39 633 94 q 474 -17 522 -17 q 424 131 389 -17 l 504 489 q 522 610 525 557 q 475 663 519 663 q 269 462 385 663 q 97 0 153 261 l -15 0 l 176 908 l 176 911 l 118 911 l 124 939 l 182 939 q 133 1039 193 1025 l 136 1047 l 321 1086 l 326 1086 l 296 939 l 529 939 l 524 911 l 289 911 l 154 271 q 337 614 232 483 q 544 744 442 744 q 609 724 586 744 q 636 665 632 704 q 635 581 640 625 q 617 478 631 538 l 540 143 q 546 72 522 72 q 681 201 583 72 z "},"Ĩ":{"ha":376,"x_min":-50,"x_max":586,"o":"m 147 1111 l 139 1113 q 268 1274 185 1274 q 378 1233 303 1274 q 483 1192 453 1192 q 535 1212 514 1192 q 578 1281 556 1232 l 586 1279 q 533 1158 564 1199 q 457 1117 503 1117 q 347 1158 422 1117 q 242 1199 272 1199 q 190 1179 211 1199 q 147 1111 169 1160 m 272 0 l -50 0 l -49 8 q 42 47 17 8 q 86 174 68 85 l 228 838 q 238 894 235 874 q 241 939 242 915 q 233 974 240 963 q 208 994 225 986 q 163 1003 190 1003 l 164 1011 l 486 1011 l 485 1003 q 394 965 419 1003 q 350 838 368 926 l 208 174 q 198 117 201 138 q 195 72 194 96 q 203 37 196 49 q 228 17 211 25 q 274 8 246 8 l 272 0 z "},"ĩ":{"ha":331,"x_min":25,"x_max":485,"o":"m 74 833 l 65 835 q 194 996 110 996 q 290 956 229 996 q 381 915 351 915 q 433 935 413 915 q 476 1003 454 954 l 485 1001 q 356 840 440 840 q 260 881 321 840 q 169 921 199 921 q 117 901 138 921 q 74 833 96 882 m 108 -17 q 58 131 25 -17 l 156 585 q 147 656 171 656 q 42 554 119 656 l 35 560 q 130 696 79 647 q 224 744 181 744 q 271 597 301 744 l 175 143 q 183 78 161 78 q 315 201 222 78 l 322 196 q 108 -17 210 -17 z "},"Ī":{"ha":376,"x_min":-50,"x_max":563,"o":"m 542 1147 l 157 1147 l 178 1200 l 563 1200 l 542 1147 m 272 0 l -50 0 l -49 8 q 42 47 17 8 q 86 174 68 85 l 228 838 q 238 894 235 874 q 241 939 242 915 q 233 974 240 963 q 208 994 225 986 q 163 1003 190 1003 l 164 1011 l 486 1011 l 485 1003 q 394 965 419 1003 q 350 838 368 926 l 208 174 q 198 117 201 138 q 195 72 194 96 q 203 37 196 49 q 228 17 211 25 q 274 8 246 8 l 272 0 z "},"ī":{"ha":331,"x_min":25,"x_max":469,"o":"m 449 875 l 76 875 l 97 928 l 469 928 l 449 875 m 108 -17 q 58 131 25 -17 l 156 585 q 147 656 171 656 q 42 554 119 656 l 35 560 q 130 696 79 647 q 224 744 181 744 q 271 597 301 744 l 175 143 q 183 78 161 78 q 315 201 222 78 l 322 196 q 108 -17 210 -17 z "},"Ĭ":{"ha":376,"x_min":-50,"x_max":592,"o":"m 346 1113 q 255 1149 290 1113 q 208 1231 219 1185 q 196 1336 196 1278 l 204 1338 q 253 1234 213 1276 q 364 1192 293 1192 q 491 1233 433 1192 q 585 1338 549 1275 l 592 1335 q 490 1177 551 1242 q 346 1113 428 1113 m 272 0 l -50 0 l -49 8 q 42 47 17 8 q 86 174 68 85 l 228 838 q 238 894 235 874 q 241 939 242 915 q 233 974 240 963 q 208 994 225 986 q 163 1003 190 1003 l 164 1011 l 486 1011 l 485 1003 q 394 965 419 1003 q 350 838 368 926 l 208 174 q 198 117 201 138 q 195 72 194 96 q 203 37 196 49 q 228 17 211 25 q 274 8 246 8 l 272 0 z "},"ĭ":{"ha":331,"x_min":25,"x_max":492,"o":"m 260 840 q 188 860 217 840 q 147 915 160 879 q 128 985 133 950 q 122 1064 122 1019 l 132 1065 q 276 919 151 919 q 485 1065 399 919 l 492 1063 q 260 840 396 840 m 108 -17 q 58 131 25 -17 l 156 585 q 147 656 171 656 q 42 554 119 656 l 35 560 q 130 696 79 647 q 224 744 181 744 q 271 597 301 744 l 175 143 q 183 78 161 78 q 315 201 222 78 l 322 196 q 108 -17 210 -17 z "},"Į":{"ha":376,"x_min":-83,"x_max":486,"o":"m 163 1003 l 164 1011 l 486 1011 l 485 1003 q 394 965 419 1003 q 350 838 368 926 l 208 174 q 198 117 201 138 q 195 72 194 96 q 203 37 196 49 q 228 17 211 25 q 274 8 246 8 l 272 0 l 126 0 q 35 -107 65 -56 q 6 -189 6 -158 q 20 -226 6 -212 q 60 -240 35 -240 q 161 -197 101 -240 l 165 -204 q 0 -286 75 -286 q -61 -265 -39 -286 q -83 -211 -83 -244 q 106 0 -83 -117 l -50 0 l -49 8 q 42 47 17 8 q 86 174 68 85 l 228 838 q 238 894 235 874 q 241 939 242 915 q 233 974 240 963 q 208 994 225 986 q 163 1003 190 1003 z "},"į":{"ha":331,"x_min":-51,"x_max":349,"o":"m 271 1015 q 326 992 303 1015 q 349 938 349 969 q 326 883 349 906 q 271 860 303 860 q 215 883 238 860 q 192 938 192 906 q 215 992 192 969 q 271 1015 238 1015 m 183 78 q 315 201 222 78 l 322 196 q 150 -7 233 31 q 65 -110 93 -61 q 38 -189 38 -160 q 52 -226 38 -212 q 92 -240 67 -240 q 193 -197 133 -240 l 197 -204 q 32 -286 107 -286 q -29 -265 -7 -286 q -51 -211 -51 -244 q 111 -17 -51 -122 l 108 -17 q 58 131 25 -17 l 156 585 q 147 656 171 656 q 42 554 119 656 l 35 560 q 130 696 79 647 q 224 744 181 744 q 271 597 301 744 l 175 143 q 183 78 161 78 z "},"İ":{"ha":376,"x_min":-50,"x_max":486,"o":"m 349 1126 q 292 1150 315 1126 q 269 1206 269 1174 q 292 1260 269 1238 q 349 1283 315 1283 q 403 1260 381 1283 q 426 1206 426 1238 q 403 1150 426 1174 q 349 1126 381 1126 m 272 0 l -50 0 l -49 8 q 42 47 17 8 q 86 174 68 85 l 228 838 q 238 894 235 874 q 241 939 242 915 q 233 974 240 963 q 208 994 225 986 q 163 1003 190 1003 l 164 1011 l 486 1011 l 485 1003 q 394 965 419 1003 q 350 838 368 926 l 208 174 q 198 117 201 138 q 195 72 194 96 q 203 37 196 49 q 228 17 211 25 q 274 8 246 8 l 272 0 z "},"ı":{"ha":331,"x_min":25,"x_max":322,"o":"m 108 -17 q 58 131 25 -17 l 156 585 q 147 656 171 656 q 42 554 119 656 l 35 560 q 130 696 79 647 q 224 744 181 744 q 271 597 301 744 l 175 143 q 183 78 161 78 q 315 201 222 78 l 322 196 q 108 -17 210 -17 z "},"Ĳ":{"ha":732,"x_min":-50,"x_max":849,"o":"m 272 0 l -50 0 l -49 8 q 42 47 17 8 q 86 174 68 85 l 228 838 q 238 894 235 874 q 241 939 242 915 q 233 974 240 963 q 208 994 225 986 q 163 1003 190 1003 l 164 1011 l 486 1011 l 485 1003 q 394 965 419 1003 q 350 838 368 926 l 208 174 q 198 117 201 138 q 195 72 194 96 q 203 37 196 49 q 228 17 211 25 q 274 8 246 8 l 272 0 m 247 -222 l 243 -215 q 372 -81 335 -144 q 436 111 410 -17 l 590 838 q 601 958 613 914 q 525 1003 590 1003 l 526 1011 l 849 1011 l 847 1003 q 757 965 782 1003 q 713 838 732 928 l 581 214 q 473 -63 542 31 q 247 -222 404 -157 z "},"ĳ":{"ha":647,"x_min":25,"x_max":700,"o":"m 271 860 q 215 883 238 860 q 192 938 192 906 q 215 992 192 969 q 271 1015 238 1015 q 326 992 303 1015 q 349 938 349 969 q 326 883 349 906 q 271 860 303 860 m 622 860 q 567 883 590 860 q 543 938 543 906 q 567 992 543 969 q 622 1015 590 1015 q 677 992 654 1015 q 700 938 700 969 q 676 883 700 906 q 622 860 653 860 m 108 -17 q 58 131 25 -17 l 156 585 q 147 656 171 656 q 42 554 119 656 l 35 560 q 130 696 79 647 q 224 744 181 744 q 271 597 301 744 l 175 143 q 183 78 161 78 q 315 201 222 78 l 322 196 q 108 -17 210 -17 m 169 -317 l 169 -308 q 301 -225 253 -289 q 372 -49 349 -161 l 507 585 q 499 656 522 656 q 393 554 471 656 l 386 560 q 481 696 431 647 q 575 744 532 744 q 622 597 654 744 l 492 -18 q 169 -317 435 -283 z "},"Ĵ":{"ha":367,"x_min":-122,"x_max":550,"o":"m 394 1368 l 401 1368 l 550 1093 l 544 1086 l 375 1244 l 132 1086 l 129 1093 l 394 1368 m 160 1003 l 161 1011 l 485 1011 l 483 1003 q 392 965 418 1003 q 347 838 367 926 l 215 214 q 108 -63 176 31 q -118 -222 39 -157 l -122 -215 q 7 -81 -31 -144 q 71 111 44 -17 l 225 838 q 236 958 247 914 q 160 1003 225 1003 z "},"ĵ":{"ha":303,"x_min":-175,"x_max":456,"o":"m 322 1096 l 456 821 l 450 814 l 294 969 l 65 814 l 63 821 l 314 1096 l 322 1096 m 229 744 q 283 701 274 744 q 276 597 293 658 l 146 -18 q -175 -317 89 -283 l -175 -308 q -44 -225 -92 -289 q 26 -49 3 -161 l 161 585 q 153 656 179 656 q 47 554 126 656 l 40 560 q 135 696 85 647 q 229 744 186 744 z "},"Ķ":{"ha":853,"x_min":-50,"x_max":975,"o":"m 274 8 l 272 0 l -50 0 l -49 8 q 41 44 17 8 q 85 168 65 79 l 228 843 q 238 961 250 919 q 163 1003 226 1003 l 164 1011 l 486 1011 l 485 1003 q 394 967 419 1003 q 350 843 369 932 l 208 168 q 198 50 186 92 q 274 8 210 8 m 975 1011 l 974 1003 q 663 783 875 979 l 425 565 q 640 158 536 300 q 806 8 744 17 l 804 0 q 690 -6 758 -6 q 585 31 632 -6 q 474 178 539 68 q 319 500 410 289 l 643 801 q 744 901 717 869 q 772 963 771 933 q 759 991 774 982 q 719 1003 744 1000 l 721 1011 l 975 1011 m 297 -67 q 363 -96 335 -67 q 392 -172 392 -125 q 344 -292 392 -246 q 229 -353 297 -339 l 228 -344 q 308 -300 274 -328 q 342 -239 342 -272 q 285 -190 342 -203 q 231 -132 231 -179 q 249 -85 231 -104 q 297 -67 268 -67 z "},"ķ":{"ha":663,"x_min":0,"x_max":671,"o":"m 503 83 q 633 207 551 83 l 640 201 q 442 -17 531 -17 q 339 72 382 -17 q 250 360 296 161 q 485 503 436 463 q 550 615 550 557 q 494 672 550 672 q 298 534 400 672 q 167 256 196 396 l 113 0 l 0 0 l 192 908 q 194 1002 204 974 q 149 1039 185 1031 l 151 1047 l 336 1086 l 342 1086 l 199 401 q 360 645 260 546 q 567 744 460 744 q 642 721 613 744 q 671 650 671 697 q 596 524 671 582 q 358 393 521 467 q 429 155 397 226 q 503 83 461 83 m 247 -67 q 313 -96 285 -67 q 342 -172 342 -125 q 294 -292 342 -246 q 179 -353 247 -339 l 178 -344 q 258 -300 224 -328 q 292 -239 292 -272 q 235 -190 292 -203 q 181 -132 181 -179 q 199 -85 181 -104 q 247 -67 218 -67 z "},"ĸ":{"ha":694,"x_min":32,"x_max":703,"o":"m 535 83 q 665 207 583 83 l 672 201 q 474 -17 564 -17 q 369 72 413 -17 q 282 360 326 161 q 519 504 471 463 q 582 615 582 558 q 526 672 582 672 q 335 540 435 672 q 200 267 235 407 l 143 0 l 32 0 l 156 585 q 147 656 171 656 q 42 554 119 656 l 35 560 q 130 696 79 647 q 224 744 181 744 q 271 597 301 744 l 231 403 q 392 645 292 546 q 597 744 493 744 q 674 721 644 744 q 703 650 703 697 q 628 524 703 582 q 390 393 553 467 q 461 155 429 226 q 535 83 493 83 z "},"Ĺ":{"ha":717,"x_min":-50,"x_max":676,"o":"m 260 1086 l 254 1090 q 315 1188 272 1118 q 390 1310 357 1257 q 432 1372 422 1363 q 471 1389 453 1389 q 504 1376 490 1389 q 518 1343 518 1363 q 497 1301 518 1322 q 260 1086 465 1269 m 590 0 l -50 0 l -49 8 q 42 47 17 8 q 86 174 68 85 l 228 838 q 238 894 235 874 q 241 939 242 915 q 233 974 240 963 q 208 994 225 986 q 163 1003 190 1003 l 164 1011 l 486 1011 l 485 1003 q 394 965 419 1003 q 350 838 368 926 l 190 88 q 231 22 175 22 l 328 22 q 509 65 443 22 q 668 246 575 107 l 676 246 l 590 0 z "},"ĺ":{"ha":303,"x_min":-3,"x_max":514,"o":"m 256 1086 l 251 1090 q 311 1188 268 1117 q 387 1310 354 1258 q 429 1372 419 1363 q 467 1389 449 1389 q 500 1376 486 1389 q 514 1343 514 1363 q 493 1301 514 1322 q 256 1086 461 1269 m 81 -17 q 31 131 -3 -17 l 196 908 q 199 1003 208 975 q 154 1039 189 1031 l 156 1047 l 340 1086 l 346 1086 l 146 143 q 156 78 131 78 q 213 115 175 78 q 289 203 250 151 l 296 197 q 81 -17 182 -17 z "},"Ļ":{"ha":717,"x_min":-50,"x_max":676,"o":"m 590 0 l -50 0 l -49 8 q 42 47 17 8 q 86 174 68 85 l 228 838 q 238 894 235 874 q 241 939 242 915 q 233 974 240 963 q 208 994 225 986 q 163 1003 190 1003 l 164 1011 l 486 1011 l 485 1003 q 394 965 419 1003 q 350 838 368 926 l 190 88 q 231 22 175 22 l 328 22 q 509 65 443 22 q 668 246 575 107 l 676 246 l 590 0 m 144 -353 l 143 -344 q 223 -300 189 -328 q 257 -239 257 -272 q 200 -190 257 -203 q 146 -132 146 -179 q 165 -85 146 -104 q 213 -67 183 -67 q 278 -96 250 -67 q 307 -172 307 -125 q 260 -292 307 -246 q 144 -353 213 -339 z "},"ļ":{"ha":303,"x_min":-22,"x_max":346,"o":"m 81 -17 q 31 131 -3 -17 l 196 908 q 199 1003 208 975 q 154 1039 189 1031 l 156 1047 l 340 1086 l 346 1086 l 146 143 q 156 78 131 78 q 213 115 175 78 q 289 203 250 151 l 296 197 q 81 -17 182 -17 m -21 -353 l -22 -344 q 58 -300 24 -328 q 92 -239 92 -272 q 35 -190 92 -203 q -19 -132 -19 -179 q -1 -85 -19 -104 q 47 -67 18 -67 q 113 -96 85 -67 q 142 -172 142 -125 q 94 -292 142 -246 q -21 -353 47 -339 z "},"Ľ":{"ha":724,"x_min":-50,"x_max":763,"o":"m 601 742 l 600 750 q 679 794 646 767 q 713 854 713 821 q 656 903 713 892 q 603 963 603 914 q 621 1009 603 990 q 668 1028 639 1028 q 735 999 707 1028 q 763 921 763 969 q 716 802 763 849 q 601 742 669 756 m 590 0 l -50 0 l -49 8 q 42 47 17 8 q 86 174 68 85 l 228 838 q 238 894 235 874 q 241 939 242 915 q 233 974 240 963 q 208 994 225 986 q 163 1003 190 1003 l 164 1011 l 486 1011 l 485 1003 q 394 965 419 1003 q 350 838 368 926 l 190 88 q 231 22 175 22 l 328 22 q 509 65 443 22 q 668 246 575 107 l 676 246 l 590 0 z "},"ľ":{"ha":317,"x_min":-3,"x_max":565,"o":"m 81 -17 q 31 131 -3 -17 l 196 908 q 199 1003 208 975 q 154 1039 189 1031 l 156 1047 l 340 1086 l 346 1086 l 146 143 q 156 78 131 78 q 213 115 175 78 q 289 203 250 151 l 296 197 q 81 -17 182 -17 m 404 800 l 403 808 q 482 852 449 825 q 515 913 515 879 q 458 961 515 950 q 406 1021 406 972 q 424 1067 406 1049 q 471 1086 442 1086 q 538 1057 510 1086 q 565 979 565 1028 q 519 860 565 907 q 404 800 472 814 z "},"Ŀ":{"ha":717,"x_min":-50,"x_max":676,"o":"m 590 0 l -50 0 l -49 8 q 42 47 17 8 q 86 174 68 85 l 228 838 q 238 894 235 874 q 241 939 242 915 q 233 974 240 963 q 208 994 225 986 q 163 1003 190 1003 l 164 1011 l 486 1011 l 485 1003 q 394 965 419 1003 q 350 838 368 926 l 190 88 q 231 22 175 22 l 328 22 q 509 65 443 22 q 668 246 575 107 l 676 246 l 590 0 m 564 422 q 507 446 531 422 q 483 501 483 469 q 507 558 483 535 q 564 582 531 582 q 619 558 596 582 q 643 501 643 535 q 619 446 643 469 q 564 422 596 422 z "},"ŀ":{"ha":407,"x_min":-3,"x_max":447,"o":"m 81 -17 q 31 131 -3 -17 l 196 908 q 199 1003 208 975 q 154 1039 189 1031 l 156 1047 l 340 1086 l 346 1086 l 146 143 q 156 78 131 78 q 213 115 175 78 q 289 203 250 151 l 296 197 q 81 -17 182 -17 m 367 381 q 311 404 335 381 q 288 460 288 428 q 311 517 288 493 q 367 540 335 540 q 424 517 400 540 q 447 460 447 493 q 424 404 447 428 q 367 381 400 381 z "},"Ł":{"ha":740,"x_min":-26,"x_max":700,"o":"m 692 246 l 700 246 l 614 0 l -26 0 l -25 8 q 66 47 40 8 q 110 174 92 85 l 165 435 l 42 379 l 36 404 l 172 465 l 251 838 q 262 894 258 874 q 265 939 265 915 q 256 974 264 963 q 231 994 249 986 q 186 1003 214 1003 l 188 1011 l 510 1011 l 508 1003 q 417 965 443 1003 q 374 838 392 926 l 307 526 l 504 615 l 510 590 l 301 496 l 214 88 q 254 22 199 22 l 351 22 q 533 65 467 22 q 692 246 599 107 z "},"ł":{"ha":363,"x_min":18,"x_max":368,"o":"m 364 546 l 240 483 l 168 143 q 176 78 153 78 q 233 115 196 78 q 310 203 271 151 l 317 197 q 101 -17 203 -17 q 51 131 18 -17 l 113 418 l 31 376 l 22 401 l 119 451 l 218 908 q 221 1002 231 974 q 175 1039 211 1031 l 176 1047 l 363 1086 l 368 1086 l 247 515 l 356 571 l 364 546 z "},"Ń":{"ha":896,"x_min":-64,"x_max":1015,"o":"m 757 1301 q 519 1086 725 1269 l 514 1090 q 574 1188 532 1118 q 649 1310 617 1257 q 692 1372 682 1363 q 731 1389 713 1389 q 764 1376 750 1389 q 778 1343 778 1363 q 757 1301 778 1322 m 756 1003 l 757 1011 l 1015 1011 l 1014 1003 q 915 944 949 1003 q 854 760 881 885 l 690 -17 l 682 -17 l 278 911 l 135 238 q 124 73 108 138 q 210 8 139 8 l 207 0 l -64 0 l -61 8 q 46 68 7 8 q 108 238 85 128 l 240 854 q 235 960 256 926 q 150 1003 214 994 l 151 1011 l 365 1011 l 714 210 l 829 760 q 844 936 858 869 q 756 1003 829 1003 z "},"ń":{"ha":740,"x_min":32,"x_max":733,"o":"m 636 1029 q 399 814 594 988 l 393 818 q 453 915 411 846 q 528 1038 496 985 q 571 1100 561 1090 q 610 1117 592 1117 q 643 1103 629 1117 q 657 1071 657 1090 q 636 1029 657 1050 m 726 201 l 733 196 q 625 40 681 96 q 521 -17 569 -17 q 469 131 435 -17 l 551 489 q 569 610 572 557 q 522 663 567 663 q 316 462 432 663 q 143 0 200 261 l 32 0 l 156 585 q 147 656 171 656 q 42 554 119 656 l 35 560 q 130 696 79 647 q 224 744 181 744 q 271 597 301 744 l 199 265 q 382 613 276 481 q 590 744 488 744 q 655 724 632 744 q 683 665 678 704 q 683 581 688 625 q 664 478 678 538 l 586 143 q 585 74 574 82 q 593 72 589 72 q 726 201 631 72 z "},"Ņ":{"ha":896,"x_min":-64,"x_max":1015,"o":"m 756 1003 l 757 1011 l 1015 1011 l 1014 1003 q 915 944 949 1003 q 854 760 881 885 l 690 -17 l 682 -17 l 278 911 l 135 238 q 124 73 108 138 q 210 8 139 8 l 207 0 l -64 0 l -61 8 q 46 68 7 8 q 108 238 85 128 l 240 854 q 235 960 256 926 q 150 1003 214 994 l 151 1011 l 365 1011 l 714 210 l 829 760 q 844 936 858 869 q 756 1003 829 1003 m 331 -67 q 396 -96 368 -67 q 424 -172 424 -125 q 377 -292 424 -246 q 263 -353 331 -339 l 261 -344 q 341 -299 307 -328 q 375 -239 375 -271 q 317 -190 375 -203 q 264 -132 264 -179 q 283 -85 264 -104 q 331 -67 301 -67 z "},"ņ":{"ha":740,"x_min":32,"x_max":733,"o":"m 726 201 l 733 196 q 625 40 681 96 q 521 -17 569 -17 q 469 131 435 -17 l 551 489 q 569 610 572 557 q 522 663 567 663 q 316 462 432 663 q 143 0 200 261 l 32 0 l 156 585 q 147 656 171 656 q 42 554 119 656 l 35 560 q 130 696 79 647 q 224 744 181 744 q 271 597 301 744 l 199 265 q 382 613 276 481 q 590 744 488 744 q 655 724 632 744 q 683 665 678 704 q 683 581 688 625 q 664 478 678 538 l 586 143 q 585 74 574 82 q 593 72 589 72 q 726 201 631 72 m 269 -67 q 336 -95 308 -67 q 364 -172 364 -124 q 317 -292 364 -246 q 203 -353 271 -339 l 201 -344 q 281 -299 247 -328 q 314 -239 314 -271 q 257 -190 314 -203 q 204 -132 204 -179 q 222 -85 204 -104 q 269 -67 240 -67 z "},"Ň":{"ha":896,"x_min":-64,"x_max":1015,"o":"m 836 1361 l 571 1086 l 563 1086 l 415 1361 l 421 1368 l 590 1210 l 833 1368 l 836 1361 m 756 1003 l 757 1011 l 1015 1011 l 1014 1003 q 915 944 949 1003 q 854 760 881 885 l 690 -17 l 682 -17 l 278 911 l 135 238 q 124 73 108 138 q 210 8 139 8 l 207 0 l -64 0 l -61 8 q 46 68 7 8 q 108 238 85 128 l 240 854 q 235 960 256 926 q 150 1003 214 994 l 151 1011 l 365 1011 l 714 210 l 829 760 q 844 936 858 869 q 756 1003 829 1003 z "},"ň":{"ha":740,"x_min":32,"x_max":733,"o":"m 704 1089 l 453 814 l 444 814 l 310 1089 l 315 1096 l 472 939 l 701 1096 l 704 1089 m 726 201 l 733 196 q 625 40 681 96 q 521 -17 569 -17 q 469 131 435 -17 l 551 489 q 569 610 572 557 q 522 663 567 663 q 316 462 432 663 q 143 0 200 261 l 32 0 l 156 585 q 147 656 171 656 q 42 554 119 656 l 35 560 q 130 696 79 647 q 224 744 181 744 q 271 597 301 744 l 199 265 q 382 613 276 481 q 590 744 488 744 q 655 724 632 744 q 683 665 678 704 q 683 581 688 625 q 664 478 678 538 l 586 143 q 585 74 574 82 q 593 72 589 72 q 726 201 631 72 z "},"ŉ":{"ha":840,"x_min":122,"x_max":835,"o":"m 324 908 q 265 767 324 826 q 124 694 207 707 l 122 703 q 219 753 172 714 q 267 838 265 793 q 255 868 267 856 q 233 885 243 881 q 201 894 222 889 q 142 965 142 910 q 163 1017 142 997 q 217 1036 183 1036 q 292 1001 260 1036 q 324 908 324 965 m 828 201 l 835 196 q 726 40 782 96 q 622 -17 669 -17 q 569 131 538 -17 l 653 489 q 670 610 674 557 q 622 663 667 663 q 490 572 564 663 q 348 326 415 481 q 244 0 281 171 l 132 0 l 256 585 q 247 656 271 656 q 142 554 221 656 l 135 560 q 230 696 179 647 q 324 744 281 744 q 378 701 368 744 q 371 597 388 658 l 299 265 q 482 613 376 481 q 690 744 588 744 q 755 724 732 744 q 783 665 778 704 q 783 581 788 625 q 764 478 778 538 l 688 143 q 693 72 669 72 q 828 201 731 72 z "},"Ŋ":{"ha":896,"x_min":-64,"x_max":1015,"o":"m 756 1003 l 757 1011 l 1015 1011 l 1014 1003 q 915 944 949 1001 q 857 768 882 888 l 721 129 l 692 -7 q 599 -221 664 -142 q 438 -317 533 -300 l 438 -308 q 567 -222 521 -286 q 636 -49 614 -158 l 656 44 l 278 911 l 133 231 q 123 71 107 132 q 210 8 139 10 l 207 0 l -64 0 l -61 8 q 47 66 8 10 q 108 231 86 122 l 240 854 q 235 960 256 926 q 150 1003 214 994 l 151 1011 l 367 1011 l 714 210 l 832 768 q 844 935 858 874 q 756 1003 829 997 z "},"ŋ":{"ha":710,"x_min":32,"x_max":686,"o":"m 590 744 q 655 724 632 744 q 682 664 678 704 q 681 581 686 624 q 664 478 676 539 l 557 -18 q 235 -317 500 -283 l 235 -308 q 366 -225 318 -289 q 438 -49 414 -161 l 551 489 q 569 610 571 557 q 522 663 567 663 q 316 462 432 663 q 143 0 200 261 l 32 0 l 156 585 q 147 656 171 656 q 42 554 119 656 l 35 560 q 130 696 79 647 q 224 744 181 744 q 271 597 301 744 l 199 265 q 382 613 276 481 q 590 744 488 744 z "},"Ō":{"ha":985,"x_min":61,"x_max":985,"o":"m 815 1147 l 429 1147 l 450 1200 l 836 1200 l 815 1147 m 444 -17 q 162 90 263 -17 q 61 381 61 197 q 128 694 61 547 q 319 935 194 842 q 599 1028 444 1028 q 883 921 781 1028 q 985 631 985 814 q 918 317 985 464 q 726 76 851 169 q 444 -17 600 -17 m 439 3 q 657 113 558 3 q 806 376 756 222 q 856 679 856 529 q 792 918 856 828 q 607 1008 728 1008 q 388 899 486 1008 q 239 637 289 790 q 189 332 189 483 q 253 93 189 183 q 439 3 318 3 z "},"ō":{"ha":683,"x_min":26,"x_max":654,"o":"m 625 875 l 253 875 l 274 928 l 646 928 l 625 875 m 279 -17 q 96 60 165 -17 q 26 268 26 138 q 137 596 26 447 q 403 744 247 744 q 586 667 518 744 q 654 458 654 590 q 606 233 654 342 q 470 53 558 124 q 279 -17 382 -17 m 276 3 q 416 90 353 3 q 510 292 479 176 q 540 514 540 407 q 507 668 540 611 q 406 725 474 725 q 266 638 329 725 q 172 436 203 551 q 142 214 142 321 q 176 60 142 117 q 276 3 210 3 z "},"Ŏ":{"ha":985,"x_min":61,"x_max":985,"o":"m 619 1113 q 528 1149 564 1113 q 481 1231 493 1185 q 468 1336 469 1278 l 478 1338 q 526 1233 486 1275 q 636 1192 565 1192 q 763 1233 706 1192 q 858 1338 821 1275 l 865 1335 q 763 1177 825 1242 q 619 1113 701 1113 m 444 -17 q 162 90 263 -17 q 61 381 61 197 q 128 694 61 547 q 319 935 194 842 q 599 1028 444 1028 q 883 921 781 1028 q 985 631 985 814 q 918 317 985 464 q 726 76 851 169 q 444 -17 600 -17 m 439 3 q 657 113 558 3 q 806 376 756 222 q 856 679 856 529 q 792 918 856 828 q 607 1008 728 1008 q 388 899 486 1008 q 239 637 289 790 q 189 332 189 483 q 253 93 189 183 q 439 3 318 3 z "},"ŏ":{"ha":683,"x_min":26,"x_max":668,"o":"m 436 840 q 299 1064 299 840 l 308 1065 q 453 919 328 919 q 661 1065 575 919 l 668 1063 q 570 902 624 964 q 436 840 517 840 m 279 -17 q 96 60 165 -17 q 26 268 26 138 q 137 596 26 447 q 403 744 247 744 q 586 667 518 744 q 654 458 654 590 q 606 233 654 342 q 470 53 558 124 q 279 -17 382 -17 m 276 3 q 416 90 353 3 q 510 292 479 176 q 540 514 540 407 q 507 668 540 611 q 406 725 474 725 q 266 638 329 725 q 172 436 203 551 q 142 214 142 321 q 176 60 142 117 q 276 3 210 3 z "},"Ő":{"ha":985,"x_min":61,"x_max":985,"o":"m 506 1086 l 501 1090 q 561 1187 517 1115 q 638 1308 606 1258 q 681 1369 669 1358 q 724 1389 700 1389 q 754 1376 742 1389 q 767 1346 767 1364 q 750 1307 767 1324 q 694 1256 740 1297 q 590 1163 647 1214 q 506 1086 532 1111 m 715 1086 l 711 1090 q 899 1369 874 1343 q 940 1389 915 1389 q 972 1376 960 1389 q 985 1346 985 1364 q 968 1307 985 1326 q 853 1207 957 1296 q 715 1086 749 1118 m 444 -17 q 162 90 263 -17 q 61 381 61 197 q 128 694 61 547 q 319 935 194 842 q 599 1028 444 1028 q 883 921 781 1028 q 985 631 985 814 q 918 317 985 464 q 726 76 851 169 q 444 -17 600 -17 m 439 3 q 657 113 558 3 q 806 376 756 222 q 856 679 856 529 q 792 918 856 828 q 607 1008 728 1008 q 388 899 486 1008 q 239 637 289 790 q 189 332 189 483 q 253 93 189 183 q 439 3 318 3 z "},"ő":{"ha":686,"x_min":26,"x_max":800,"o":"m 321 814 l 317 818 q 378 915 336 847 q 452 1035 419 983 q 496 1097 485 1086 q 539 1117 515 1117 q 570 1104 558 1117 q 582 1074 582 1092 q 565 1035 582 1051 q 510 984 556 1025 q 406 890 465 943 q 321 814 346 838 m 531 814 l 526 818 q 587 911 535 831 q 671 1038 639 992 q 714 1097 703 1085 q 757 1117 733 1117 q 788 1104 775 1117 q 800 1074 800 1092 q 783 1035 800 1051 q 726 983 774 1025 q 618 890 678 942 q 531 814 558 839 m 279 -17 q 96 60 165 -17 q 26 268 26 138 q 137 596 26 447 q 403 744 247 744 q 586 667 518 744 q 654 458 654 590 q 606 233 654 342 q 470 53 558 124 q 279 -17 382 -17 m 276 3 q 416 90 353 3 q 510 292 479 176 q 540 514 540 407 q 507 668 540 611 q 406 725 474 725 q 266 638 329 725 q 172 436 203 551 q 142 214 142 321 q 176 60 142 117 q 276 3 210 3 z "},"Œ":{"ha":1368,"x_min":60,"x_max":1436,"o":"m 1436 1011 l 1411 803 l 1403 803 q 1332 955 1375 921 q 1174 989 1289 989 l 975 989 l 879 538 l 1035 538 q 1165 565 1125 538 q 1240 674 1206 593 l 1249 674 l 1185 369 l 1176 369 q 1145 483 1174 450 q 1029 515 1117 515 l 874 515 l 783 88 q 825 22 768 22 l 989 22 q 1166 60 1104 22 q 1317 233 1228 99 l 1325 233 l 1243 0 l 479 0 q 169 103 278 0 q 60 386 60 206 q 231 829 60 647 q 674 1011 403 1011 l 1436 1011 m 658 72 l 833 900 q 817 970 846 951 q 685 989 789 989 q 506 953 589 989 q 367 856 424 917 q 269 713 310 794 q 210 543 229 632 q 190 363 190 454 q 267 110 190 197 q 485 22 343 22 l 594 22 q 658 72 647 22 z "},"œ":{"ha":1064,"x_min":26,"x_max":1088,"o":"m 1088 638 q 977 487 1088 550 q 635 354 867 424 q 622 238 622 299 q 747 51 622 51 q 1003 214 871 51 l 1011 208 q 696 -17 865 -17 q 526 125 557 -17 q 278 -17 424 -17 q 94 60 163 -17 q 26 265 26 136 q 137 595 26 446 q 401 744 247 744 q 622 558 582 744 q 936 744 746 744 q 1049 716 1011 744 q 1088 638 1088 688 m 276 3 q 413 93 350 3 q 508 302 475 183 q 540 525 540 421 q 506 671 540 617 q 403 725 471 725 q 267 635 329 725 q 172 426 204 544 q 139 203 139 307 q 174 57 139 111 q 276 3 208 3 m 915 724 q 754 621 835 724 q 640 378 674 518 q 902 501 821 442 q 983 643 983 560 q 915 724 983 724 z "},"Ŕ":{"ha":792,"x_min":-51,"x_max":792,"o":"m 679 1301 q 440 1086 631 1251 l 436 1090 q 497 1188 454 1118 q 572 1310 539 1257 q 614 1372 604 1363 q 651 1389 633 1389 q 685 1376 671 1389 q 700 1343 700 1363 q 679 1301 700 1325 m 497 482 q 631 151 564 279 q 747 8 697 22 l 746 0 q 646 -6 710 -6 q 510 101 569 -6 q 378 472 451 207 q 275 485 318 474 l 207 168 q 196 48 185 88 q 271 8 207 8 l 269 0 l -51 0 l -50 8 q 40 44 15 8 q 85 168 65 79 l 229 843 q 238 963 250 924 q 163 1003 226 1003 l 164 1011 l 497 1011 q 715 947 638 1011 q 792 782 792 883 q 706 583 792 663 q 497 482 621 503 m 371 939 l 289 550 q 304 511 283 525 q 390 497 325 497 q 594 581 524 497 q 665 803 665 665 q 619 938 665 886 q 479 989 574 989 l 433 989 q 371 939 381 989 z "},"ŕ":{"ha":499,"x_min":32,"x_max":578,"o":"m 557 1029 q 319 814 515 988 l 314 818 q 374 915 332 846 q 449 1038 417 985 q 492 1100 482 1090 q 531 1117 513 1117 q 564 1103 550 1117 q 578 1071 578 1090 q 557 1029 578 1050 m 271 597 l 213 329 q 513 744 347 744 q 571 733 549 744 l 518 614 l 510 614 q 463 625 488 625 q 363 572 411 625 q 274 428 314 519 q 201 231 233 336 q 143 0 169 125 l 32 0 l 156 585 q 161 611 160 604 q 163 632 163 618 q 160 651 164 646 q 147 656 156 656 q 42 554 119 656 l 35 560 q 130 696 79 647 q 224 744 181 744 q 271 597 301 744 z "},"Ŗ":{"ha":792,"x_min":-51,"x_max":792,"o":"m 497 482 q 631 151 564 279 q 747 8 697 22 l 746 0 q 646 -6 710 -6 q 510 101 569 -6 q 378 472 451 207 q 275 485 318 474 l 207 168 q 196 48 185 88 q 271 8 207 8 l 269 0 l -51 0 l -50 8 q 40 44 15 8 q 85 168 65 79 l 229 843 q 238 963 250 924 q 163 1003 226 1003 l 164 1011 l 497 1011 q 715 947 638 1011 q 792 782 792 883 q 706 583 792 663 q 497 482 621 503 m 371 939 l 289 550 q 304 511 283 525 q 390 497 325 497 q 594 581 524 497 q 665 803 665 665 q 619 938 665 886 q 479 989 574 989 l 433 989 q 371 939 381 989 m 283 -67 q 349 -96 321 -67 q 378 -172 378 -125 q 331 -292 378 -246 q 215 -353 283 -339 l 214 -344 q 294 -299 260 -328 q 328 -239 328 -271 q 271 -190 328 -203 q 217 -132 217 -179 q 235 -85 217 -104 q 283 -67 254 -67 z "},"ŗ":{"ha":499,"x_min":-15,"x_max":571,"o":"m 513 744 q 571 733 549 744 l 518 614 l 510 614 q 463 625 488 625 q 363 572 411 625 q 274 428 314 519 q 201 231 233 336 q 143 0 169 125 l 32 0 l 156 585 q 161 611 160 604 q 163 632 163 618 q 160 651 164 646 q 147 656 156 656 q 42 554 119 656 l 35 560 q 130 696 79 647 q 224 744 181 744 q 271 597 301 744 l 213 329 q 513 744 347 744 m 53 -67 q 119 -95 92 -67 q 147 -172 147 -124 q 101 -292 147 -246 q -14 -353 54 -339 l -15 -344 q 64 -299 31 -328 q 97 -239 97 -271 q 40 -190 97 -203 q -12 -132 -12 -179 q 6 -85 -12 -104 q 53 -67 24 -67 z "},"Ř":{"ha":792,"x_min":-51,"x_max":792,"o":"m 758 1361 l 493 1086 l 485 1086 l 336 1361 l 342 1368 l 513 1210 l 756 1368 l 758 1361 m 497 482 q 631 151 564 279 q 747 8 697 22 l 746 0 q 646 -6 710 -6 q 510 101 569 -6 q 378 472 451 207 q 275 485 318 474 l 207 168 q 196 48 185 88 q 271 8 207 8 l 269 0 l -51 0 l -50 8 q 40 44 15 8 q 85 168 65 79 l 229 843 q 238 963 250 924 q 163 1003 226 1003 l 164 1011 l 497 1011 q 715 947 638 1011 q 792 782 792 883 q 706 583 792 663 q 497 482 621 503 m 371 939 l 289 550 q 304 511 283 525 q 390 497 325 497 q 594 581 524 497 q 665 803 665 665 q 619 938 665 886 q 479 989 574 989 l 433 989 q 371 939 381 989 z "},"ř":{"ha":499,"x_min":32,"x_max":625,"o":"m 625 1089 l 374 814 l 365 814 l 231 1089 l 236 1096 l 393 939 l 622 1096 l 625 1089 m 271 597 l 213 329 q 513 744 347 744 q 571 733 549 744 l 518 614 l 510 614 q 463 625 488 625 q 363 572 411 625 q 274 428 314 519 q 201 231 233 336 q 143 0 169 125 l 32 0 l 156 585 q 161 611 160 604 q 163 632 163 618 q 160 651 164 646 q 147 656 156 656 q 42 554 119 656 l 35 560 q 130 696 79 647 q 224 744 181 744 q 271 597 301 744 z "},"Ś":{"ha":656,"x_min":-18,"x_max":710,"o":"m 372 1086 l 367 1090 q 427 1188 385 1118 q 503 1310 469 1257 q 546 1372 536 1363 q 583 1389 565 1389 q 617 1376 603 1389 q 631 1343 631 1363 q 610 1301 631 1322 q 372 1086 578 1269 m 250 -17 q -18 65 101 -17 l 18 263 l 26 263 q 119 74 51 138 q 282 10 186 10 q 444 67 381 10 q 507 217 507 125 q 504 250 507 233 q 498 279 501 267 q 485 308 494 292 q 472 333 476 324 q 452 358 467 342 q 432 379 438 374 q 408 401 426 385 q 384 422 389 418 q 357 443 379 425 q 332 464 335 461 l 282 503 q 142 750 142 618 q 236 949 142 869 q 463 1028 331 1028 q 710 949 592 1028 l 675 785 l 667 785 q 582 942 646 882 q 428 1001 518 1001 q 290 951 344 1001 q 236 817 236 900 q 368 601 236 704 l 418 563 q 508 485 476 515 q 571 399 540 456 q 601 282 601 343 q 497 69 601 154 q 250 -17 393 -17 z "},"ś":{"ha":481,"x_min":-32,"x_max":536,"o":"m 278 814 l 274 818 q 333 915 290 844 q 409 1038 376 986 q 451 1100 442 1090 q 489 1117 471 1117 q 522 1103 508 1117 q 536 1071 536 1090 q 517 1029 536 1051 q 278 814 486 999 m 164 -17 q 51 4 104 -17 q -32 57 -3 25 l 4 167 l 13 167 q 84 55 31 100 q 203 10 138 10 q 297 50 260 10 q 335 149 335 90 q 317 213 335 182 q 281 261 300 243 q 219 315 263 279 l 181 347 q 131 390 149 372 q 99 444 114 408 q 83 524 83 479 q 148 681 83 617 q 310 744 213 744 q 488 688 396 744 l 461 582 l 453 582 q 386 678 432 638 q 282 718 340 718 q 197 678 229 718 q 164 589 164 639 q 178 528 164 557 q 208 484 192 500 q 253 443 224 468 l 292 411 q 388 316 358 357 q 417 211 417 275 q 345 48 417 113 q 164 -17 274 -17 z "},"Ŝ":{"ha":656,"x_min":-18,"x_max":710,"o":"m 626 1086 l 457 1244 l 214 1086 l 211 1093 l 476 1368 l 483 1368 l 632 1093 l 626 1086 m 463 1028 q 710 949 592 1028 l 675 785 l 667 785 q 582 942 646 882 q 428 1001 518 1001 q 290 951 344 1001 q 236 817 236 900 q 368 601 236 704 l 418 563 q 508 485 476 515 q 571 399 540 456 q 601 282 601 343 q 497 69 601 154 q 250 -17 393 -17 q -18 65 101 -17 l 18 263 l 26 263 q 119 74 51 138 q 282 10 186 10 q 444 67 381 10 q 507 217 507 125 q 504 250 507 233 q 498 279 501 267 q 485 308 494 292 q 472 333 476 324 q 452 358 467 342 q 432 379 438 374 q 408 401 426 385 q 384 422 389 418 q 357 443 379 425 q 332 464 335 461 l 282 503 q 142 750 142 618 q 236 949 142 869 q 463 1028 331 1028 z "},"ŝ":{"ha":481,"x_min":-32,"x_max":526,"o":"m 383 1096 l 392 1096 l 526 821 l 521 814 l 364 971 l 136 814 l 133 821 l 383 1096 m 83 524 q 148 681 83 617 q 310 744 213 744 q 488 688 396 744 l 461 582 l 453 582 q 386 678 432 638 q 282 718 340 718 q 197 678 229 718 q 164 589 164 639 q 178 528 164 557 q 208 484 192 500 q 253 443 224 468 l 292 411 q 388 316 358 357 q 417 211 417 275 q 345 48 417 113 q 164 -17 274 -17 q 51 4 104 -17 q -32 57 -3 25 l 4 167 l 13 167 q 84 55 31 100 q 203 10 138 10 q 297 50 260 10 q 335 149 335 90 q 317 213 335 182 q 281 261 300 243 q 219 315 263 279 l 181 347 q 131 390 149 372 q 99 444 114 408 q 83 524 83 479 z "},"Ş":{"ha":656,"x_min":-18,"x_max":710,"o":"m 463 1028 q 710 949 592 1028 l 675 785 l 667 785 q 582 942 646 882 q 428 1001 518 1001 q 290 951 344 1001 q 236 817 236 900 q 368 601 236 704 l 418 563 q 508 485 476 515 q 571 399 540 456 q 601 282 601 343 q 499 70 601 156 q 253 -17 396 -15 l 221 -67 q 351 -167 351 -75 q 307 -258 351 -221 q 193 -294 263 -294 q 85 -251 135 -294 l 90 -244 q 188 -274 131 -274 q 251 -251 225 -274 q 276 -196 276 -228 q 256 -155 276 -169 q 214 -137 236 -140 q 156 -135 192 -135 l 231 -17 q -18 65 92 -11 l 18 263 l 26 263 q 119 74 51 138 q 282 10 186 10 q 444 67 381 10 q 507 217 507 125 q 504 250 507 233 q 498 279 501 267 q 485 308 494 292 q 472 333 476 324 q 452 358 467 342 q 432 379 438 374 q 408 401 426 385 q 384 422 389 418 q 357 443 379 425 q 332 464 335 461 l 282 503 q 142 750 142 618 q 236 949 142 869 q 463 1028 331 1028 z "},"ş":{"ha":481,"x_min":-32,"x_max":488,"o":"m 310 744 q 488 688 396 744 l 461 582 l 453 582 q 386 678 432 638 q 282 718 340 718 q 197 678 229 718 q 164 589 164 639 q 178 528 164 557 q 208 484 192 500 q 253 443 224 468 l 292 411 q 388 316 358 357 q 417 211 417 275 q 349 53 417 117 q 179 -17 282 -11 l 146 -67 q 276 -167 276 -75 q 232 -258 276 -221 q 118 -294 188 -294 q 10 -251 60 -294 l 15 -244 q 113 -274 56 -274 q 176 -251 150 -274 q 201 -196 201 -228 q 181 -155 201 -169 q 139 -137 161 -140 q 81 -135 117 -135 l 156 -17 q -32 57 31 -12 l 4 167 l 13 167 q 84 55 31 100 q 203 10 138 10 q 297 50 260 10 q 335 149 335 90 q 317 213 335 182 q 281 261 300 243 q 219 315 263 279 l 181 347 q 131 390 149 372 q 99 444 114 408 q 83 524 83 479 q 148 681 83 617 q 310 744 213 744 z "},"Š":{"ha":656,"x_min":-18,"x_max":710,"o":"m 689 1361 l 424 1086 l 417 1086 l 268 1361 l 274 1368 l 443 1210 l 686 1368 l 689 1361 m 463 1028 q 710 949 592 1028 l 675 785 l 667 785 q 582 942 646 882 q 428 1001 518 1001 q 290 951 344 1001 q 236 817 236 900 q 368 601 236 704 l 418 563 q 508 485 476 515 q 571 399 540 456 q 601 282 601 343 q 497 69 601 154 q 250 -17 393 -17 q -18 65 101 -17 l 18 263 l 26 263 q 119 74 51 138 q 282 10 186 10 q 444 67 381 10 q 507 217 507 125 q 504 250 507 233 q 498 279 501 267 q 485 308 494 292 q 472 333 476 324 q 452 358 467 342 q 432 379 438 374 q 408 401 426 385 q 384 422 389 418 q 357 443 379 425 q 332 464 335 461 l 282 503 q 142 750 142 618 q 236 949 142 869 q 463 1028 331 1028 z "},"š":{"ha":481,"x_min":-32,"x_max":583,"o":"m 583 1089 l 332 814 l 325 814 l 190 1089 l 196 1096 l 353 939 l 581 1096 l 583 1089 m 83 524 q 148 681 83 617 q 310 744 213 744 q 488 688 396 744 l 461 582 l 453 582 q 386 678 432 638 q 282 718 340 718 q 197 678 229 718 q 164 589 164 639 q 178 528 164 557 q 208 484 192 500 q 253 443 224 468 l 292 411 q 388 316 358 357 q 417 211 417 275 q 345 48 417 113 q 164 -17 274 -17 q 51 4 104 -17 q -32 57 -3 25 l 4 167 l 13 167 q 84 55 31 100 q 203 10 138 10 q 297 50 260 10 q 335 149 335 90 q 317 213 335 182 q 281 261 300 243 q 219 315 263 279 l 181 347 q 131 390 149 372 q 99 444 114 408 q 83 524 83 479 z "},"Ţ":{"ha":764,"x_min":110,"x_max":867,"o":"m 867 1011 l 842 803 l 833 803 q 765 955 806 921 q 617 989 724 989 l 576 989 l 403 174 q 392 53 381 97 q 468 8 403 8 l 467 0 l 307 0 l 264 -67 q 359 -94 322 -69 q 396 -167 396 -118 q 351 -258 396 -221 q 236 -294 307 -294 q 129 -251 178 -294 l 135 -244 q 232 -274 175 -274 q 295 -251 269 -274 q 321 -196 321 -228 q 301 -155 321 -169 q 258 -137 281 -140 q 200 -135 236 -135 l 285 0 l 143 0 l 144 8 q 235 47 210 8 q 281 174 261 85 l 453 989 l 411 989 q 251 954 306 989 q 118 803 196 919 l 110 803 l 171 1011 l 867 1011 z "},"ţ":{"ha":422,"x_min":-1,"x_max":517,"o":"m 486 678 l 271 678 l 164 171 q 192 68 144 68 q 396 246 263 68 l 403 240 q 294 85 356 150 q 175 -4 233 19 l 135 -67 q 265 -167 265 -75 q 221 -258 265 -221 q 107 -294 176 -294 q -1 -251 49 -294 l 4 -244 q 101 -274 44 -274 q 165 -251 139 -274 q 190 -196 190 -228 q 170 -155 190 -169 q 128 -137 150 -140 q 69 -135 106 -135 l 146 -14 q 119 -17 126 -17 q 49 32 67 -17 q 49 160 32 81 l 160 678 l 86 678 l 90 692 l 111 700 q 215 772 167 724 q 313 910 264 819 l 321 910 l 283 728 l 517 728 l 486 678 z "},"Ť":{"ha":764,"x_min":110,"x_max":867,"o":"m 790 1361 l 524 1086 l 517 1086 l 368 1361 l 374 1368 l 544 1210 l 788 1368 l 790 1361 m 867 1011 l 842 803 l 833 803 q 765 955 806 921 q 617 989 724 989 l 576 989 l 403 174 q 392 53 381 97 q 468 8 403 8 l 467 0 l 143 0 l 144 8 q 235 47 210 8 q 281 174 261 85 l 453 989 l 411 989 q 251 954 306 989 q 118 803 196 919 l 110 803 l 171 1011 l 867 1011 z "},"ť":{"ha":426,"x_min":32,"x_max":593,"o":"m 499 1079 q 565 1050 538 1079 q 593 972 593 1021 q 547 852 593 899 q 432 792 500 806 l 431 800 q 510 845 476 817 q 543 906 543 874 q 486 954 543 943 q 432 1013 432 965 q 451 1060 432 1040 q 499 1079 469 1079 m 313 910 l 321 910 l 283 728 l 517 728 l 486 678 l 271 678 l 164 171 q 192 68 144 68 q 396 246 263 68 l 403 240 q 263 55 342 126 q 119 -17 185 -17 q 49 32 67 -17 q 49 160 32 81 l 160 678 l 86 678 l 90 692 l 111 700 q 215 772 167 724 q 313 910 264 819 z "},"Ŧ":{"ha":769,"x_min":111,"x_max":868,"o":"m 868 1011 l 843 803 l 835 803 q 767 955 807 921 q 619 989 726 989 l 578 989 l 481 535 l 632 535 l 626 507 l 475 507 l 404 174 q 394 117 397 138 q 391 72 390 96 q 399 37 392 49 q 424 17 407 25 q 469 8 442 8 l 468 0 l 146 0 l 147 8 q 238 47 213 8 q 282 174 264 85 l 353 507 l 199 507 l 204 535 l 358 535 l 456 989 l 414 989 q 252 955 307 989 q 119 803 197 921 l 111 803 l 174 1011 l 868 1011 z "},"ŧ":{"ha":422,"x_min":32,"x_max":517,"o":"m 517 728 l 486 678 l 271 678 l 226 465 l 446 465 l 440 438 l 221 438 l 164 171 q 192 68 144 68 q 396 246 263 68 l 403 240 q 263 55 342 126 q 119 -17 185 -17 q 49 32 67 -17 q 49 160 32 81 l 108 438 l 43 438 l 49 465 l 114 465 l 160 678 l 86 678 l 90 692 l 111 700 q 215 772 167 724 q 313 910 264 819 l 321 910 l 283 728 l 517 728 z "},"Ũ":{"ha":894,"x_min":75,"x_max":1022,"o":"m 421 1111 l 413 1113 q 542 1274 458 1274 q 652 1233 576 1274 q 757 1192 728 1192 q 809 1212 788 1192 q 853 1281 831 1232 l 861 1279 q 731 1117 815 1117 q 621 1158 696 1117 q 517 1199 546 1199 q 465 1179 486 1199 q 421 1111 443 1160 m 403 -17 q 149 77 222 -17 q 114 349 75 171 l 218 838 q 229 958 240 914 q 153 1003 218 1003 l 156 1011 l 478 1011 l 475 1003 q 385 965 410 1003 q 340 838 360 928 l 238 353 q 247 101 201 186 q 428 17 292 17 q 740 315 676 17 l 835 760 q 850 856 846 814 q 849 932 854 897 q 824 985 843 967 q 769 1003 804 1003 l 772 1011 l 1022 1011 l 1019 1003 q 942 968 975 1003 q 893 885 910 933 q 860 760 876 838 l 765 315 q 403 -17 694 -17 z "},"ũ":{"ha":740,"x_min":33,"x_max":732,"o":"m 371 921 q 319 901 340 921 q 276 833 299 882 l 268 835 q 397 996 313 996 q 492 956 431 996 q 583 915 553 915 q 635 935 614 915 q 678 1003 656 954 l 686 1001 q 558 840 644 840 q 462 881 524 840 q 371 921 400 921 m 725 201 l 732 196 q 624 39 679 94 q 518 -17 568 -17 q 468 131 438 -17 l 539 457 q 356 114 460 244 q 149 -17 251 -17 q 84 3 107 -17 q 57 63 61 24 q 58 146 53 103 q 76 250 63 189 l 153 585 q 147 656 168 656 q 40 554 118 656 l 33 560 q 127 696 78 647 q 218 744 176 744 q 269 597 304 744 l 188 239 q 169 118 167 171 q 217 65 172 65 q 419 258 303 65 q 592 713 535 450 l 701 731 l 708 731 l 583 143 q 592 72 568 72 q 725 201 629 72 z "},"Ū":{"ha":894,"x_min":75,"x_max":1022,"o":"m 815 1147 l 431 1147 l 451 1200 l 836 1200 l 815 1147 m 403 -17 q 149 77 222 -17 q 114 349 75 171 l 218 838 q 229 958 240 914 q 153 1003 218 1003 l 156 1011 l 478 1011 l 475 1003 q 385 965 410 1003 q 340 838 360 928 l 238 353 q 247 101 201 186 q 428 17 292 17 q 740 315 676 17 l 835 760 q 850 856 846 814 q 849 932 854 897 q 824 985 843 967 q 769 1003 804 1003 l 772 1011 l 1022 1011 l 1019 1003 q 942 968 975 1003 q 893 885 910 933 q 860 760 876 838 l 765 315 q 403 -17 694 -17 z "},"ū":{"ha":740,"x_min":33,"x_max":732,"o":"m 300 928 l 672 928 l 651 875 l 279 875 l 300 928 m 725 201 l 732 196 q 624 39 679 94 q 518 -17 568 -17 q 468 131 438 -17 l 539 457 q 356 114 460 244 q 149 -17 251 -17 q 84 3 107 -17 q 57 63 61 24 q 58 146 53 103 q 76 250 63 189 l 153 585 q 147 656 168 656 q 40 554 118 656 l 33 560 q 127 696 78 647 q 218 744 176 744 q 269 597 304 744 l 188 239 q 169 118 167 171 q 217 65 172 65 q 419 258 303 65 q 592 713 535 450 l 701 731 l 708 731 l 583 143 q 592 72 568 72 q 725 201 629 72 z "},"Ŭ":{"ha":894,"x_min":75,"x_max":1022,"o":"m 621 1113 q 529 1149 565 1113 q 481 1231 493 1185 q 469 1336 469 1278 l 479 1338 q 527 1233 488 1275 q 638 1192 567 1192 q 765 1233 707 1192 q 860 1338 822 1275 l 867 1335 q 765 1177 826 1242 q 621 1113 703 1113 m 403 -17 q 149 77 222 -17 q 114 349 75 171 l 218 838 q 229 958 240 914 q 153 1003 218 1003 l 156 1011 l 478 1011 l 475 1003 q 385 965 410 1003 q 340 838 360 928 l 238 353 q 247 101 201 186 q 428 17 292 17 q 740 315 676 17 l 835 760 q 850 856 846 814 q 849 932 854 897 q 824 985 843 967 q 769 1003 804 1003 l 772 1011 l 1022 1011 l 1019 1003 q 942 968 975 1003 q 893 885 910 933 q 860 760 876 838 l 765 315 q 403 -17 694 -17 z "},"ŭ":{"ha":740,"x_min":33,"x_max":732,"o":"m 693 1063 q 461 840 597 840 q 325 1064 325 840 l 333 1065 q 479 919 356 919 q 686 1065 603 919 l 693 1063 m 725 201 l 732 196 q 624 39 679 94 q 518 -17 568 -17 q 468 131 438 -17 l 539 457 q 356 114 460 244 q 149 -17 251 -17 q 84 3 107 -17 q 57 63 61 24 q 58 146 53 103 q 76 250 63 189 l 153 585 q 147 656 168 656 q 40 554 118 656 l 33 560 q 127 696 78 647 q 218 744 176 744 q 269 597 304 744 l 188 239 q 169 118 167 171 q 217 65 172 65 q 419 258 303 65 q 592 713 535 450 l 701 731 l 708 731 l 583 143 q 592 72 568 72 q 725 201 629 72 z "},"Ů":{"ha":894,"x_min":75,"x_max":1022,"o":"m 628 1089 q 535 1120 569 1089 q 500 1204 500 1151 q 547 1317 500 1271 q 663 1364 594 1364 q 754 1333 719 1364 q 789 1249 789 1301 q 742 1135 789 1182 q 628 1089 694 1089 m 628 1108 q 706 1157 678 1108 q 733 1267 733 1206 q 663 1344 733 1344 q 584 1295 613 1344 q 556 1186 556 1246 q 628 1108 556 1108 m 403 -17 q 149 77 222 -17 q 114 349 75 171 l 218 838 q 229 958 240 914 q 153 1003 218 1003 l 156 1011 l 478 1011 l 475 1003 q 385 965 410 1003 q 340 838 360 928 l 238 353 q 247 101 201 186 q 428 17 292 17 q 740 315 676 17 l 835 760 q 850 856 846 814 q 849 932 854 897 q 824 985 843 967 q 769 1003 804 1003 l 772 1011 l 1022 1011 l 1019 1003 q 942 968 975 1003 q 893 885 910 933 q 860 760 876 838 l 765 315 q 403 -17 694 -17 z "},"ů":{"ha":740,"x_min":33,"x_max":732,"o":"m 469 817 q 377 848 411 817 q 343 932 343 879 q 390 1045 343 999 q 504 1092 436 1092 q 597 1060 563 1092 q 631 976 631 1029 q 583 863 631 910 q 469 817 536 817 m 504 1072 q 426 1023 454 1072 q 397 914 397 974 q 469 836 397 836 q 548 885 519 836 q 576 994 576 933 q 504 1072 576 1072 m 725 201 l 732 196 q 624 39 679 94 q 518 -17 568 -17 q 468 131 438 -17 l 539 457 q 356 114 460 244 q 149 -17 251 -17 q 84 3 107 -17 q 57 63 61 24 q 58 146 53 103 q 76 250 63 189 l 153 585 q 147 656 168 656 q 40 554 118 656 l 33 560 q 127 696 78 647 q 218 744 176 744 q 269 597 304 744 l 188 239 q 169 118 167 171 q 217 65 172 65 q 419 258 303 65 q 592 713 535 450 l 701 731 l 708 731 l 583 143 q 592 72 568 72 q 725 201 629 72 z "},"Ű":{"ha":894,"x_min":75,"x_max":1022,"o":"m 507 1086 l 503 1090 q 563 1187 519 1117 q 638 1308 606 1257 q 681 1369 669 1358 q 724 1389 700 1389 q 754 1376 742 1389 q 767 1346 767 1364 q 750 1307 767 1324 q 694 1256 740 1297 q 591 1163 649 1214 q 507 1086 533 1111 m 715 1086 l 711 1090 q 772 1183 719 1103 q 856 1310 824 1264 q 899 1369 888 1357 q 942 1389 918 1389 q 973 1376 961 1389 q 985 1346 985 1364 q 968 1307 985 1324 q 910 1256 958 1297 q 803 1163 863 1214 q 715 1086 743 1111 m 403 -17 q 149 77 222 -17 q 114 349 75 171 l 218 838 q 229 958 240 914 q 153 1003 218 1003 l 156 1011 l 478 1011 l 475 1003 q 385 965 410 1003 q 340 838 360 928 l 238 353 q 247 101 201 186 q 428 17 292 17 q 740 315 676 17 l 835 760 q 850 856 846 814 q 849 932 854 897 q 824 985 843 967 q 769 1003 804 1003 l 772 1011 l 1022 1011 l 1019 1003 q 942 968 975 1003 q 893 885 910 933 q 860 760 876 838 l 765 315 q 403 -17 694 -17 z "},"ű":{"ha":740,"x_min":33,"x_max":826,"o":"m 592 1035 q 537 984 582 1025 q 432 890 492 943 q 347 814 372 838 l 343 818 q 404 915 363 847 q 478 1035 446 983 q 522 1097 511 1086 q 565 1117 542 1117 q 596 1104 583 1117 q 608 1074 608 1092 q 592 1035 608 1051 m 783 1117 q 814 1104 801 1117 q 826 1074 826 1092 q 810 1035 826 1051 q 752 983 800 1025 q 644 890 704 942 q 557 814 585 839 l 553 818 q 740 1097 715 1071 q 783 1117 760 1117 m 592 72 q 725 201 629 72 l 732 196 q 624 39 679 94 q 518 -17 568 -17 q 468 131 438 -17 l 539 457 q 356 114 460 244 q 149 -17 251 -17 q 84 3 107 -17 q 57 63 61 24 q 58 146 53 103 q 76 250 63 189 l 153 585 q 147 656 168 656 q 40 554 118 656 l 33 560 q 127 696 78 647 q 218 744 176 744 q 269 597 304 744 l 188 239 q 169 118 167 171 q 217 65 172 65 q 419 258 303 65 q 592 713 535 450 l 701 731 l 708 731 l 583 143 q 592 72 568 72 z "},"Ų":{"ha":894,"x_min":75,"x_max":1022,"o":"m 769 1003 l 772 1011 l 1022 1011 l 1019 1003 q 942 968 975 1003 q 893 885 910 933 q 860 760 876 838 l 765 315 q 424 -17 696 -4 q 321 -189 321 -118 q 335 -226 321 -212 q 375 -240 350 -240 q 478 -197 418 -240 l 482 -204 q 317 -286 389 -286 q 254 -265 276 -286 q 232 -211 232 -244 q 394 -17 232 -124 q 147 78 218 -15 q 114 349 75 172 l 218 838 q 229 958 240 914 q 153 1003 218 1003 l 156 1011 l 478 1011 l 475 1003 q 385 965 410 1003 q 340 838 360 928 l 238 353 q 247 101 201 186 q 428 17 292 17 q 740 315 676 17 l 835 760 q 850 856 846 814 q 849 932 854 897 q 824 985 843 967 q 769 1003 804 1003 z "},"ų":{"ha":740,"x_min":33,"x_max":732,"o":"m 560 -7 q 475 -110 503 -61 q 447 -189 447 -160 q 462 -226 447 -212 q 501 -240 476 -240 q 604 -197 544 -240 l 608 -204 q 443 -286 515 -286 q 381 -265 403 -286 q 358 -211 358 -244 q 521 -17 358 -124 l 518 -17 q 468 131 438 -17 l 539 457 q 356 114 460 244 q 149 -17 251 -17 q 84 3 107 -17 q 57 63 61 24 q 58 146 53 103 q 76 250 63 189 l 153 585 q 147 656 168 656 q 40 554 118 656 l 33 560 q 127 696 78 647 q 218 744 176 744 q 269 597 304 744 l 188 239 q 169 118 167 171 q 217 65 172 65 q 419 258 303 65 q 592 713 535 450 l 701 731 l 708 731 l 583 143 q 592 72 568 72 q 725 201 629 72 l 732 196 q 560 -7 644 31 z "},"Ŵ":{"ha":1250,"x_min":115,"x_max":1404,"o":"m 931 1086 l 761 1244 l 518 1086 l 515 1093 l 781 1368 l 788 1368 l 936 1093 l 931 1086 m 1174 1003 l 1175 1011 l 1404 1011 l 1403 1003 q 1307 935 1354 994 q 1190 743 1260 876 l 796 -17 l 785 -17 l 704 682 l 308 -17 l 297 -17 l 206 833 q 177 961 196 924 q 115 1003 158 999 l 117 1011 l 440 1011 l 439 1003 q 345 967 372 999 q 325 871 318 935 l 396 192 l 700 726 l 688 833 q 659 962 678 925 q 596 1003 640 999 l 597 1011 l 921 1011 l 919 1003 q 826 967 851 999 q 807 871 800 936 l 882 207 l 1163 751 q 1201 828 1188 799 q 1228 888 1215 857 q 1242 937 1240 919 q 1238 970 1243 954 q 1216 993 1232 986 q 1174 1003 1200 1000 z "},"ŵ":{"ha":975,"x_min":31,"x_max":972,"o":"m 800 814 l 644 969 l 415 814 l 413 821 l 664 1096 l 672 1096 l 806 821 l 800 814 m 819 728 l 917 744 q 972 607 972 701 q 906 353 972 500 q 735 94 840 206 q 538 -17 631 -17 q 443 71 465 -17 q 443 260 421 158 q 324 63 396 143 q 176 -17 253 -17 q 94 22 122 -17 q 67 120 67 61 q 81 250 68 179 l 154 585 q 146 656 167 656 q 38 551 118 656 l 31 557 q 224 744 129 744 q 269 597 304 744 l 193 239 q 250 57 156 57 q 394 214 322 57 q 507 553 467 371 l 540 706 l 650 731 l 656 731 q 633 638 650 706 q 610 542 617 569 q 592 459 604 514 q 574 375 579 404 q 561 306 568 346 q 551 235 554 265 q 549 181 549 206 q 622 57 549 57 q 749 140 688 57 q 846 336 811 224 q 881 543 881 449 q 819 719 881 672 l 819 728 z "},"Ŷ":{"ha":790,"x_min":135,"x_max":954,"o":"m 733 1086 l 563 1244 l 319 1086 l 317 1093 l 583 1368 l 590 1368 l 739 1093 l 733 1086 m 724 1003 l 725 1011 l 954 1011 l 953 1003 q 835 931 899 994 q 679 740 772 868 l 478 458 l 417 174 q 406 53 394 97 q 482 8 417 8 l 481 0 l 157 0 l 158 8 q 249 47 224 8 q 294 174 275 85 l 351 440 l 240 833 q 191 963 213 929 q 135 1003 169 997 l 136 1011 l 447 1011 l 446 1003 q 354 871 318 994 l 467 485 l 656 751 q 709 828 689 797 q 746 888 729 858 q 768 935 763 917 q 772 967 774 953 q 758 990 769 982 q 724 1003 746 999 z "},"ŷ":{"ha":640,"x_min":-144,"x_max":622,"o":"m 578 814 l 421 971 l 192 814 l 189 821 l 440 1096 l 449 1096 l 583 821 l 578 814 m 464 728 l 564 744 q 622 592 622 697 q 518 215 622 432 q 258 -164 414 -3 q -28 -325 101 -325 q -144 -281 -99 -325 l -101 -189 l -93 -189 q 39 -269 -36 -269 q 189 -185 124 -269 q 254 76 254 -101 q 205 451 254 256 q 101 646 156 646 q 38 538 68 646 l 31 540 q 144 744 54 744 q 253 649 204 744 q 327 414 301 554 q 353 129 353 274 q 338 -36 353 33 q 536 517 536 238 q 464 719 536 665 l 464 728 z "},"Ÿ":{"ha":790,"x_min":135,"x_max":954,"o":"m 477 1148 q 466 1137 477 1148 q 424 1126 456 1126 q 370 1148 392 1126 q 349 1201 349 1169 q 370 1255 349 1233 q 424 1276 392 1276 q 477 1255 456 1276 q 499 1201 499 1233 q 477 1148 499 1169 m 731 1148 q 719 1137 731 1148 q 678 1126 708 1126 q 625 1148 647 1126 q 603 1201 603 1169 q 625 1255 603 1233 q 678 1276 647 1276 q 731 1255 708 1276 q 753 1201 753 1233 q 731 1148 753 1169 m 724 1003 l 725 1011 l 954 1011 l 953 1003 q 835 931 899 994 q 679 740 772 868 l 478 458 l 417 174 q 406 53 394 97 q 482 8 417 8 l 481 0 l 157 0 l 158 8 q 249 47 224 8 q 294 174 275 85 l 351 440 l 240 833 q 191 963 213 929 q 135 1003 169 997 l 136 1011 l 447 1011 l 446 1003 q 354 871 318 994 l 467 485 l 656 751 q 709 828 689 797 q 746 888 729 858 q 768 935 763 917 q 772 967 774 953 q 758 990 769 982 q 724 1003 746 999 z "},"Ź":{"ha":726,"x_min":-67,"x_max":832,"o":"m 664 1301 q 426 1086 632 1269 l 421 1090 q 481 1188 439 1118 q 556 1310 524 1257 q 599 1372 589 1363 q 638 1389 619 1389 q 671 1376 657 1389 q 685 1343 685 1363 q 664 1301 685 1322 m 204 1011 l 832 1011 l 832 1006 l 90 22 l 343 22 q 519 60 457 22 q 671 233 581 99 l 679 233 l 597 0 l -67 0 l -67 6 l 678 989 l 449 989 q 274 954 333 989 q 132 803 214 919 l 124 803 l 204 1011 z "},"ź":{"ha":558,"x_min":-31,"x_max":601,"o":"m 556 1029 q 318 814 514 988 l 313 818 q 373 915 331 846 q 448 1038 415 985 q 490 1100 481 1090 q 529 1117 511 1117 q 563 1103 549 1117 q 576 1071 576 1090 q 556 1029 576 1050 m 593 756 l 601 756 q 549 660 601 707 l 63 149 q 200 117 90 147 q 361 88 310 88 q 444 117 413 88 q 513 232 476 147 l 521 232 l 507 169 q 492 113 499 133 q 473 64 486 92 q 444 21 460 36 q 401 -6 428 6 q 340 -17 375 -17 q 163 17 285 -17 q 17 51 42 51 q 1 -17 1 36 l -7 -17 q -31 49 -31 19 q 11 129 -31 92 l 474 614 q 348 629 428 615 q 229 643 268 643 q 134 617 169 643 q 64 531 99 592 l 56 531 l 76 592 q 257 744 131 744 q 382 731 297 744 q 494 717 467 717 q 593 756 565 717 z "},"Ż":{"ha":726,"x_min":-67,"x_max":832,"o":"m 499 1126 q 442 1150 465 1126 q 419 1206 419 1174 q 442 1260 419 1238 q 499 1283 465 1283 q 553 1260 531 1283 q 576 1206 576 1238 q 553 1150 576 1174 q 499 1126 531 1126 m 204 1011 l 832 1011 l 832 1006 l 90 22 l 343 22 q 519 60 457 22 q 671 233 581 99 l 679 233 l 597 0 l -67 0 l -67 6 l 678 989 l 449 989 q 274 954 333 989 q 132 803 214 919 l 124 803 l 204 1011 z "},"ż":{"ha":558,"x_min":-31,"x_max":601,"o":"m 394 854 q 338 877 361 854 q 315 933 315 900 q 338 988 315 965 q 394 1011 361 1011 q 449 988 425 1011 q 472 933 472 964 q 449 877 472 900 q 394 854 426 854 m 593 756 l 601 756 q 549 660 601 707 l 63 149 q 200 117 90 147 q 361 88 310 88 q 444 117 413 88 q 513 232 476 147 l 521 232 l 507 169 q 492 113 499 133 q 473 64 486 92 q 444 21 460 36 q 401 -6 428 6 q 340 -17 375 -17 q 163 17 285 -17 q 17 51 42 51 q 1 -17 1 36 l -7 -17 q -31 49 -31 19 q 11 129 -31 92 l 474 614 q 348 629 428 615 q 229 643 268 643 q 134 617 169 643 q 64 531 99 592 l 56 531 l 76 592 q 257 744 131 744 q 382 731 297 744 q 494 717 467 717 q 593 756 565 717 z "},"Ž":{"ha":726,"x_min":-67,"x_max":832,"o":"m 743 1361 l 478 1086 l 469 1086 l 322 1361 l 328 1368 l 497 1210 l 740 1368 l 743 1361 m 204 1011 l 832 1011 l 832 1006 l 90 22 l 343 22 q 519 60 457 22 q 671 233 581 99 l 679 233 l 597 0 l -67 0 l -67 6 l 678 989 l 449 989 q 274 954 333 989 q 132 803 214 919 l 124 803 l 204 1011 z "},"ž":{"ha":558,"x_min":-31,"x_max":624,"o":"m 624 1089 l 372 814 l 364 814 l 229 1089 l 235 1096 l 392 939 l 621 1096 l 624 1089 m 494 717 q 593 756 565 717 l 601 756 q 549 660 601 707 l 63 149 q 200 117 90 147 q 361 88 310 88 q 444 117 413 88 q 513 232 476 147 l 521 232 l 507 169 q 492 113 499 133 q 473 64 486 92 q 444 21 460 36 q 401 -6 428 6 q 340 -17 375 -17 q 163 17 285 -17 q 17 51 42 51 q 1 -17 1 36 l -7 -17 q -31 49 -31 19 q 11 129 -31 92 l 474 614 q 348 629 428 615 q 229 643 268 643 q 134 617 169 643 q 64 531 99 592 l 56 531 l 76 592 q 257 744 131 744 q 382 731 297 744 q 494 717 467 717 z "},"ſ":{"ha":301,"x_min":-212,"x_max":594,"o":"m -212 -317 l -212 -308 q -82 -225 -129 -289 q -11 -49 -35 -161 l 154 728 q 286 996 192 903 q 517 1089 381 1089 q 594 1082 553 1089 l 561 979 l 553 979 q 431 1044 475 1044 q 294 857 336 1044 l 108 -18 q -212 -317 51 -283 z "},"ƒ":{"ha":561,"x_min":-28,"x_max":665,"o":"m 593 1089 q 665 1082 633 1089 l 642 979 l 633 979 q 513 1046 551 1046 q 388 857 414 1046 l 340 519 l 549 519 l 538 492 l 336 492 l 265 -18 q 168 -221 247 -143 q -28 -317 89 -299 l -28 -308 q 97 -222 54 -286 q 156 -49 140 -157 l 232 492 l 58 492 l 58 519 l 236 519 l 265 728 q 378 996 289 903 q 593 1089 468 1089 z "},"Ǻ":{"ha":824,"x_min":-99,"x_max":767,"o":"m 685 1426 q 631 1377 681 1419 q 550 1293 581 1335 l 544 1297 q 588 1407 568 1344 q 610 1474 607 1469 q 649 1499 622 1499 q 680 1485 667 1499 q 693 1453 693 1471 q 685 1426 693 1439 m 563 1006 l 676 178 q 707 49 689 86 q 767 8 725 13 l 765 0 l 449 0 l 450 8 q 557 146 575 17 l 529 354 l 201 354 l 149 260 q 92 151 111 192 q 67 77 74 111 q 77 28 61 43 q 132 8 93 13 l 131 0 l -99 0 l -97 8 q -3 75 -50 17 q 121 267 44 133 l 536 1007 q 460 1044 488 1014 q 432 1119 432 1074 q 478 1233 432 1186 q 593 1281 525 1281 q 686 1249 651 1281 q 721 1165 721 1218 q 676 1053 721 1099 q 563 1006 631 1007 m 488 1101 q 558 1025 488 1025 q 637 1074 608 1025 q 665 1185 665 1124 q 594 1261 665 1261 q 516 1212 544 1261 q 488 1101 488 1163 m 467 829 l 219 388 l 525 388 l 467 829 z "},"ǻ":{"ha":710,"x_min":13,"x_max":701,"o":"m 668 1276 q 614 1227 664 1269 q 533 1143 564 1185 l 528 1147 q 572 1257 553 1194 q 593 1324 592 1319 q 632 1349 606 1349 q 663 1335 650 1349 q 676 1303 676 1321 q 668 1276 676 1289 m 492 817 q 399 848 433 817 q 364 932 364 879 q 411 1045 364 999 q 526 1092 458 1092 q 618 1060 583 1092 q 653 976 653 1029 q 606 863 653 910 q 492 817 558 817 m 526 1072 q 448 1023 476 1072 q 419 914 419 974 q 492 836 419 836 q 569 885 542 836 q 597 994 597 933 q 526 1072 597 1072 m 694 201 l 701 196 q 489 -17 590 -17 q 439 131 406 -17 l 474 292 q 328 65 414 146 q 156 -17 242 -17 q 50 36 88 -17 q 13 189 13 89 q 68 442 13 315 q 228 657 124 569 q 456 744 333 744 q 599 688 556 744 l 674 736 l 681 736 l 556 143 q 564 78 540 78 q 694 201 604 78 m 219 51 q 390 187 299 51 q 519 511 481 322 q 526 586 526 550 q 433 725 526 725 q 288 644 360 725 q 174 444 217 564 q 131 213 131 325 q 154 93 131 135 q 219 51 178 51 z "},"Ǽ":{"ha":1242,"x_min":-99,"x_max":1308,"o":"m 978 1301 q 740 1086 946 1269 l 735 1090 q 795 1188 753 1118 q 870 1310 838 1257 q 913 1372 903 1363 q 951 1389 933 1389 q 985 1376 971 1389 q 999 1343 999 1363 q 978 1301 999 1322 m 1308 1011 l 1283 803 l 1275 803 q 1204 955 1247 921 q 1046 989 1161 989 l 858 989 l 763 538 l 907 538 q 1038 565 997 538 q 1114 674 1078 593 l 1122 674 l 1057 369 l 1049 369 q 1017 483 1046 450 q 901 515 989 515 l 757 515 l 667 88 q 708 22 651 22 l 861 22 q 1038 60 976 22 q 1189 233 1100 99 l 1197 233 l 1115 0 l 425 0 l 426 8 q 517 44 492 8 q 561 168 542 79 l 607 388 l 294 388 l 197 257 q 96 22 53 65 q 132 8 107 11 l 131 0 l -99 0 l -97 8 q 174 268 -7 25 l 525 743 q 639 943 639 893 q 532 1003 639 997 l 533 1011 l 1308 1011 m 319 421 l 614 421 l 732 975 l 319 421 z "},"ǽ":{"ha":985,"x_min":13,"x_max":1008,"o":"m 831 1029 q 593 814 789 988 l 588 818 q 648 915 606 846 q 723 1038 690 985 q 765 1100 756 1090 q 804 1117 786 1117 q 838 1103 824 1117 q 851 1071 851 1090 q 831 1029 851 1050 m 1008 638 q 898 488 1008 550 q 554 354 788 425 q 542 238 542 299 q 667 51 542 51 q 922 214 790 51 l 931 208 q 615 -18 785 -18 q 481 35 532 -18 q 424 190 429 88 q 296 37 367 90 q 156 -17 225 -17 q 50 36 88 -17 q 13 189 13 89 q 68 442 13 315 q 228 657 124 569 q 456 744 333 744 q 617 651 585 744 q 856 744 724 744 q 970 716 932 744 q 1008 638 1008 688 m 219 51 q 322 104 267 51 q 425 246 376 157 q 524 542 436 407 q 526 586 526 569 q 433 725 526 725 q 288 644 360 725 q 174 444 217 564 q 131 213 131 325 q 154 93 131 135 q 219 51 178 51 m 833 724 q 673 621 753 724 q 560 378 593 518 q 822 501 740 442 q 903 643 903 560 q 833 724 903 724 z "},"Ǿ":{"ha":988,"x_min":-8,"x_max":1054,"o":"m 803 1301 q 565 1086 771 1269 l 561 1090 q 621 1188 578 1117 q 697 1310 664 1258 q 739 1372 729 1363 q 776 1389 758 1389 q 810 1376 796 1389 q 824 1343 824 1363 q 803 1301 824 1322 m 1035 1081 l 1054 1067 l 901 900 q 985 631 985 797 q 918 317 985 464 q 726 76 851 169 q 446 -17 601 -17 q 160 93 263 -17 l 11 -69 l -8 -56 l 144 111 q 61 381 61 215 q 128 694 61 547 q 320 935 194 842 q 600 1028 446 1028 q 886 918 785 1028 l 1035 1081 m 190 332 q 211 183 190 247 l 828 854 q 608 1008 767 1008 q 389 899 488 1008 q 240 637 290 790 q 190 332 190 483 m 857 679 q 836 829 857 763 l 219 157 q 439 3 281 3 q 658 113 560 3 q 807 376 757 222 q 857 679 857 529 z "},"ǿ":{"ha":681,"x_min":-24,"x_max":704,"o":"m 611 1029 q 374 814 569 988 l 368 818 q 428 915 386 846 q 504 1038 471 985 q 547 1100 538 1090 q 585 1117 567 1117 q 618 1103 604 1117 q 632 1071 632 1090 q 611 1029 632 1050 m 686 797 l 704 785 l 596 654 q 651 463 651 582 q 542 133 651 282 q 278 -17 432 -17 q 97 56 167 -17 l -7 -69 l -24 -57 l 83 72 q 26 265 26 149 q 137 595 26 446 q 401 744 247 744 q 582 671 513 744 l 686 797 m 139 203 q 143 143 139 172 l 531 611 q 403 725 503 725 q 267 635 329 725 q 172 426 204 544 q 139 203 139 307 m 540 525 q 536 583 540 556 l 149 117 q 276 3 176 3 q 413 93 350 3 q 508 302 475 183 q 540 525 540 421 z "},"Ș":{"ha":656,"x_min":-18,"x_max":710,"o":"m 250 -17 q -18 65 101 -17 l 18 263 l 26 263 q 119 74 51 138 q 282 10 186 10 q 444 67 381 10 q 507 217 507 125 q 504 250 507 233 q 498 279 501 267 q 485 308 494 292 q 472 333 476 324 q 452 358 467 342 q 432 379 438 374 q 408 401 426 385 q 384 422 389 418 q 357 443 379 425 q 332 464 335 461 l 282 503 q 142 750 142 618 q 236 949 142 869 q 463 1028 331 1028 q 710 949 592 1028 l 675 785 l 667 785 q 582 942 646 882 q 428 1001 518 1001 q 290 951 344 1001 q 236 817 236 900 q 368 601 236 704 l 418 563 q 508 485 476 515 q 571 399 540 456 q 601 282 601 343 q 497 69 601 154 q 250 -17 393 -17 m 147 -353 l 146 -344 q 225 -299 192 -328 q 258 -239 258 -271 q 201 -190 258 -203 q 149 -132 149 -179 q 167 -85 149 -104 q 214 -67 185 -67 q 281 -95 253 -67 q 308 -172 308 -124 q 262 -292 308 -246 q 147 -353 215 -339 z "},"ș":{"ha":481,"x_min":-32,"x_max":488,"o":"m 164 -17 q 51 4 104 -17 q -32 57 -3 25 l 4 167 l 13 167 q 84 55 31 100 q 203 10 138 10 q 297 50 260 10 q 335 149 335 90 q 317 213 335 182 q 281 261 300 243 q 219 315 263 279 l 181 347 q 131 390 149 372 q 99 444 114 408 q 83 524 83 479 q 148 681 83 617 q 310 744 213 744 q 488 688 396 744 l 461 582 l 453 582 q 386 678 432 638 q 282 718 340 718 q 197 678 229 718 q 164 589 164 639 q 178 528 164 557 q 208 484 192 500 q 253 443 224 468 l 292 411 q 388 316 358 357 q 417 211 417 275 q 345 48 417 113 q 164 -17 274 -17 m 72 -353 l 71 -344 q 150 -299 117 -328 q 183 -239 183 -271 q 126 -190 183 -203 q 74 -132 74 -179 q 92 -85 74 -104 q 139 -67 110 -67 q 206 -95 178 -67 q 233 -172 233 -124 q 187 -292 233 -246 q 72 -353 140 -339 z "},"Ț":{"ha":764,"x_min":110,"x_max":867,"o":"m 867 1011 l 842 803 l 833 803 q 765 955 806 921 q 617 989 724 989 l 576 989 l 403 174 q 392 53 381 97 q 468 8 403 8 l 467 0 l 143 0 l 144 8 q 235 47 210 8 q 281 174 261 85 l 453 989 l 411 989 q 251 954 306 989 q 118 803 196 919 l 110 803 l 171 1011 l 867 1011 m 267 -67 q 332 -96 304 -67 q 360 -172 360 -125 q 313 -292 360 -246 q 199 -353 267 -339 l 197 -344 q 277 -299 243 -328 q 311 -239 311 -271 q 254 -190 311 -203 q 200 -132 200 -179 q 219 -85 200 -104 q 267 -67 238 -67 z "},"ț":{"ha":422,"x_min":32,"x_max":517,"o":"m 486 678 l 271 678 l 164 171 q 192 68 144 68 q 396 246 263 68 l 403 240 q 263 55 342 126 q 119 -17 185 -17 q 49 32 67 -17 q 49 160 32 81 l 160 678 l 86 678 l 90 692 l 111 700 q 215 772 167 724 q 313 910 264 819 l 321 910 l 283 728 l 517 728 l 486 678 m 138 -67 q 203 -96 175 -67 q 232 -172 232 -125 q 185 -292 232 -246 q 69 -353 138 -339 l 68 -344 q 148 -300 114 -328 q 182 -239 182 -272 q 125 -190 182 -203 q 71 -132 71 -179 q 90 -85 71 -104 q 138 -67 108 -67 z "},"ȷ":{"ha":303,"x_min":-175,"x_max":293,"o":"m -175 -317 l -175 -308 q -44 -225 -92 -289 q 26 -49 3 -161 l 161 585 q 153 656 179 656 q 47 554 126 656 l 40 560 q 135 696 85 647 q 229 744 186 744 q 283 701 274 744 q 276 597 293 658 l 146 -18 q -175 -317 89 -283 z "},"ə":{"ha":575,"x_min":-26,"x_max":557,"o":"m 367 744 q 506 687 454 744 q 557 515 557 629 q 539 376 557 449 q 484 233 521 303 q 397 106 447 163 q 276 16 347 50 q 125 -18 204 -18 q 12 11 50 -18 q -26 89 -26 40 q 84 239 -26 176 q 428 372 194 301 q 440 490 440 431 q 315 675 440 675 q 60 514 190 675 l 51 519 q 367 744 197 744 m 147 3 q 308 106 228 3 q 424 349 389 208 q 160 226 242 285 q 79 83 79 167 q 147 3 79 3 z "},"ʹ":{"ha":213,"x_min":108,"x_max":322,"o":"m 115 632 l 108 633 q 163 838 128 690 q 201 996 197 985 q 258 1042 217 1042 q 306 1021 290 1042 q 317 971 322 1000 q 278 894 313 951 q 190 751 244 836 q 115 632 136 665 z "},"ʻ":{"ha":229,"x_min":149,"x_max":313,"o":"m 243 800 q 177 830 206 800 q 149 907 149 860 q 197 1035 149 981 q 311 1103 246 1090 l 313 1094 q 234 1043 269 1079 q 199 974 199 1007 q 256 925 199 936 q 310 865 310 914 q 291 819 310 838 q 243 800 272 800 z "},"ʼ":{"ha":228,"x_min":161,"x_max":324,"o":"m 163 800 l 161 808 q 240 852 207 825 q 274 913 274 879 q 217 961 274 950 q 164 1021 164 972 q 182 1067 164 1049 q 229 1086 200 1086 q 296 1057 268 1086 q 324 979 324 1028 q 277 860 324 907 q 163 800 231 814 z "},"ˆ":{"ha":833,"x_min":188,"x_max":581,"o":"m 447 1096 l 581 821 l 575 814 l 418 971 l 190 814 l 188 821 l 439 1096 l 447 1096 z "},"ˇ":{"ha":833,"x_min":244,"x_max":638,"o":"m 407 939 l 635 1096 l 638 1089 l 386 814 l 378 814 l 244 1089 l 250 1096 l 407 939 z "},"ˉ":{"ha":833,"x_min":215,"x_max":608,"o":"m 588 875 l 215 875 l 236 928 l 608 928 l 588 875 z "},"˘":{"ha":833,"x_min":250,"x_max":619,"o":"m 388 840 q 250 1064 250 840 l 260 1065 q 404 919 279 919 q 613 1065 526 919 l 619 1063 q 522 902 575 964 q 388 840 468 840 z "},"˙":{"ha":833,"x_min":351,"x_max":507,"o":"m 484 877 q 473 866 484 877 q 429 854 461 854 q 374 877 397 854 q 351 933 351 900 q 374 988 351 965 q 429 1011 397 1011 q 484 988 461 1011 q 507 933 507 965 q 484 877 507 900 z "},"˚":{"ha":833,"x_min":274,"x_max":563,"o":"m 401 817 q 308 848 343 817 q 274 932 274 879 q 321 1045 274 999 q 436 1092 368 1092 q 528 1060 493 1092 q 563 976 563 1029 q 515 863 563 910 q 401 817 468 817 m 401 836 q 480 885 451 836 q 508 994 508 933 q 436 1072 508 1072 q 358 1023 386 1072 q 329 914 329 974 q 401 836 329 836 z "},"˛":{"ha":833,"x_min":224,"x_max":472,"o":"m 307 -300 q 246 -279 268 -300 q 224 -225 224 -258 q 438 1 224 -124 l 450 1 q 347 -115 381 -60 q 313 -203 313 -171 q 327 -240 313 -226 q 367 -254 342 -254 q 468 -211 411 -254 l 472 -218 q 307 -300 382 -300 z "},"˜":{"ha":833,"x_min":188,"x_max":607,"o":"m 196 833 l 188 835 q 317 996 232 996 q 413 956 351 996 q 504 915 475 915 q 556 935 535 915 q 599 1003 576 954 l 607 1001 q 478 840 563 840 q 382 881 443 840 q 292 921 321 921 q 239 901 260 921 q 196 833 218 882 z "},"˝":{"ha":833,"x_min":210,"x_max":692,"o":"m 214 814 l 210 818 q 269 915 225 843 q 346 1036 314 986 q 389 1097 378 1086 q 431 1117 406 1117 q 462 1104 450 1117 q 474 1074 474 1092 q 458 1035 474 1053 q 402 983 449 1025 q 298 890 356 942 q 214 814 240 839 m 424 814 l 419 818 q 606 1097 585 1075 q 649 1117 625 1117 q 679 1104 667 1117 q 692 1074 692 1092 q 675 1035 692 1051 q 560 935 664 1024 q 424 814 457 846 z "},"̀":{"ha":0,"x_min":-439,"x_max":-287,"o":"m -287 817 l -293 814 q -367 935 -312 851 q -431 1039 -421 1019 q -439 1068 -439 1056 q -424 1103 -439 1089 q -389 1117 -408 1117 q -343 1082 -356 1117 q -319 965 -339 1071 q -287 817 -299 860 z "},"́":{"ha":0,"x_min":-331,"x_max":-67,"o":"m -325 814 l -331 818 q -270 915 -312 846 q -194 1038 -228 985 q -151 1100 -161 1090 q -114 1117 -132 1117 q -81 1103 -94 1117 q -67 1071 -67 1090 q -87 1029 -67 1050 q -325 814 -129 988 z "},"̂":{"ha":0,"x_min":-503,"x_max":-110,"o":"m -243 1096 l -110 821 l -115 814 l -272 971 l -500 814 l -503 821 l -251 1096 l -243 1096 z "},"̃":{"ha":0,"x_min":-489,"x_max":-69,"o":"m -481 833 l -489 835 q -360 996 -444 996 q -264 956 -325 996 q -174 915 -203 915 q -121 935 -142 915 q -78 1003 -100 954 l -69 1001 q -199 840 -114 840 q -294 881 -233 840 q -385 921 -356 921 q -437 901 -417 921 q -481 833 -458 882 z "},"̄":{"ha":0,"x_min":-479,"x_max":-87,"o":"m -108 875 l -479 875 l -458 928 l -87 928 l -108 875 z "},"̆":{"ha":0,"x_min":-439,"x_max":-71,"o":"m -71 1063 q -303 840 -167 840 q -439 1064 -439 840 l -431 1065 q -285 919 -408 919 q -78 1065 -161 919 l -71 1063 z "},"̇":{"ha":0,"x_min":-357,"x_max":-200,"o":"m -223 877 q -234 866 -223 877 q -278 854 -246 854 q -333 877 -310 854 q -357 933 -357 900 q -333 988 -357 965 q -278 1011 -310 1011 q -223 988 -246 1011 q -200 933 -200 965 q -223 877 -200 900 z "},"̈":{"ha":0,"x_min":-471,"x_max":-85,"o":"m -394 854 q -449 876 -426 854 q -471 929 -471 897 q -449 983 -471 961 q -394 1004 -426 1004 q -342 982 -364 1004 q -321 929 -321 960 q -342 876 -321 899 q -394 854 -364 854 m -106 876 q -117 865 -106 876 q -160 854 -128 854 q -213 876 -192 854 q -235 929 -235 897 q -213 983 -235 961 q -160 1004 -192 1004 q -106 983 -128 1004 q -85 929 -85 961 q -106 876 -85 897 z "},"̊":{"ha":0,"x_min":-429,"x_max":-140,"o":"m -301 817 q -394 848 -360 817 q -429 932 -429 879 q -382 1045 -429 999 q -267 1092 -335 1092 q -175 1060 -210 1092 q -140 976 -140 1029 q -187 863 -140 910 q -301 817 -235 817 m -301 836 q -223 885 -251 836 q -194 994 -194 933 q -267 1072 -194 1072 q -345 1023 -317 1072 q -374 914 -374 974 q -301 836 -374 836 z "},"̋":{"ha":0,"x_min":-569,"x_max":-87,"o":"m -565 814 l -569 818 q -510 915 -554 843 q -433 1036 -465 986 q -390 1097 -401 1086 q -349 1117 -374 1117 q -317 1104 -329 1117 q -304 1074 -304 1092 q -321 1035 -304 1054 q -377 983 -331 1025 q -481 890 -424 942 q -565 814 -539 839 m -356 814 l -360 818 q -172 1097 -197 1071 q -131 1117 -156 1117 q -99 1104 -111 1117 q -87 1074 -87 1092 q -103 1035 -87 1053 q -218 935 -114 1024 q -356 814 -322 846 z "},"̌":{"ha":0,"x_min":-453,"x_max":-58,"o":"m -290 939 l -61 1096 l -58 1089 l -310 814 l -318 814 l -453 1089 l -447 1096 l -290 939 z "},"̒":{"ha":0,"x_min":-379,"x_max":-215,"o":"m -285 800 q -351 830 -322 800 q -379 907 -379 860 q -332 1026 -379 979 q -217 1086 -285 1072 l -215 1078 q -296 1033 -262 1061 q -329 974 -329 1006 q -272 925 -329 936 q -218 865 -218 914 q -237 819 -218 838 q -285 800 -256 800 z "},"̓":{"ha":0,"x_min":-335,"x_max":-171,"o":"m -333 800 l -335 808 q -254 853 -287 825 q -221 913 -221 881 q -278 961 -221 950 q -332 1021 -332 972 q -313 1067 -332 1049 q -265 1086 -294 1086 q -199 1056 -228 1086 q -171 979 -171 1026 q -218 860 -171 907 q -333 800 -265 814 z "},"̦":{"ha":0,"x_min":-367,"x_max":-204,"o":"m -365 -353 l -367 -344 q -287 -299 -321 -328 q -254 -239 -254 -271 q -311 -190 -254 -203 q -364 -132 -364 -179 q -346 -85 -364 -104 q -299 -67 -328 -67 q -232 -95 -260 -67 q -204 -172 -204 -124 q -251 -292 -204 -246 q -365 -353 -297 -339 z "},"̧":{"ha":0,"x_min":-442,"x_max":-175,"o":"m -262 0 l -306 -67 q -212 -94 -249 -69 q -175 -167 -175 -118 q -219 -258 -175 -221 q -333 -294 -262 -294 q -442 -251 -392 -294 l -436 -244 q -337 -274 -396 -274 q -275 -251 -300 -274 q -250 -196 -250 -228 q -270 -155 -250 -169 q -312 -137 -290 -140 q -371 -135 -335 -135 l -285 0 l -262 0 z "},"̨":{"ha":0,"x_min":-408,"x_max":-160,"o":"m -325 -300 q -386 -279 -364 -300 q -408 -225 -408 -258 q -194 1 -408 -124 l -182 1 q -285 -115 -251 -60 q -319 -203 -319 -171 q -305 -240 -319 -226 q -265 -254 -290 -254 q -164 -211 -224 -254 l -160 -218 q -325 -300 -250 -300 z "},"ʹ":{"ha":489,"x_min":247,"x_max":461,"o":"m 254 632 l 247 633 q 301 840 267 692 q 339 996 336 989 q 397 1042 354 1042 q 445 1021 429 1042 q 456 971 461 1000 q 417 894 451 951 q 329 751 383 836 q 254 632 275 665 z "},"͵":{"ha":450,"x_min":-17,"x_max":231,"o":"m 68 -328 q 31 -346 50 -346 q -3 -333 11 -346 q -17 -300 -17 -319 q 4 -257 -17 -281 q 111 -167 24 -239 q 226 -69 199 -94 l 231 -74 q 175 -164 214 -100 q 107 -274 136 -228 q 68 -328 78 -319 z "},";":{"ha":308,"x_min":-15,"x_max":279,"o":"m 255 548 q 243 536 255 548 q 199 524 231 524 q 143 548 167 524 q 119 604 119 572 q 143 660 119 636 q 199 683 167 683 q 255 660 231 683 q 279 604 279 636 q 255 548 279 572 m -14 -187 l -15 -179 q 81 -128 35 -168 q 129 -44 128 -89 q 119 -14 131 -26 q 97 3 108 -1 q 65 13 85 8 q 6 83 6 26 q 26 134 6 114 q 79 154 47 154 q 154 119 122 154 q 186 26 186 83 q 128 -115 186 -56 q -14 -187 71 -175 z "},"΄":{"ha":0,"x_min":-290,"x_max":-89,"o":"m -285 814 l -290 817 q -228 972 -268 863 q -183 1090 -189 1081 q -140 1117 -168 1117 q -104 1101 -119 1117 q -89 1067 -89 1085 q -99 1038 -89 1053 q -140 988 -106 1028 q -217 895 -174 947 q -285 814 -261 843 z "},"΅":{"ha":0,"x_min":-528,"x_max":-107,"o":"m -389 814 l -394 818 q -341 961 -374 863 q -301 1069 -308 1060 q -258 1097 -286 1097 q -224 1083 -239 1097 q -208 1047 -208 1068 q -218 1015 -208 1032 q -292 928 -225 1004 q -389 814 -360 851 m -422 874 q -431 865 -422 874 q -465 856 -440 856 q -509 874 -490 856 q -528 918 -528 893 q -509 961 -528 943 q -465 979 -490 979 q -422 961 -440 979 q -404 918 -404 943 q -422 874 -404 893 m -125 874 q -134 865 -125 874 q -168 856 -143 856 q -212 874 -193 856 q -231 918 -231 893 q -212 961 -231 943 q -168 979 -193 979 q -125 961 -143 979 q -107 918 -107 943 q -125 874 -107 893 z "},"Ά":{"ha":836,"x_min":-87,"x_max":778,"o":"m 344 993 q 303 943 338 983 q 226 851 269 903 q 158 769 182 799 l 153 774 q 213 926 174 818 q 260 1046 253 1035 q 303 1072 275 1072 q 338 1056 324 1072 q 353 1022 353 1040 q 344 993 353 1008 m 571 1028 l 688 178 q 719 49 700 86 q 778 8 738 13 l 776 0 l 461 0 l 463 8 q 569 146 588 17 l 542 354 l 214 354 l 161 260 q 105 151 124 192 q 79 77 86 111 q 88 28 72 43 q 143 8 104 13 l 142 0 l -87 0 l -86 8 q 9 74 -37 17 q 133 267 56 132 l 560 1028 l 571 1028 m 478 829 l 232 388 l 538 388 l 478 829 z "},"·":{"ha":239,"x_min":88,"x_max":247,"o":"m 168 524 q 111 548 135 524 q 88 604 88 572 q 111 660 88 636 q 168 683 135 683 q 224 660 200 683 q 247 604 247 636 q 224 548 247 572 q 168 524 200 524 z "},"Έ":{"ha":942,"x_min":83,"x_max":1008,"o":"m 285 1022 q 275 993 285 1010 q 235 944 268 983 q 156 851 201 904 q 89 769 111 799 l 83 774 q 145 928 106 819 q 190 1046 185 1036 q 233 1072 208 1072 q 269 1056 254 1072 q 285 1022 285 1040 m 328 1003 l 329 1011 l 1008 1011 l 983 803 l 975 803 q 904 955 947 921 q 746 989 861 989 l 547 989 l 451 538 l 607 538 q 737 565 697 538 q 813 674 776 593 l 821 674 l 757 369 l 749 369 q 717 483 746 450 q 601 515 689 515 l 446 515 l 356 88 q 397 22 343 22 l 561 22 q 738 60 676 22 q 889 233 800 99 l 897 233 l 815 0 l 115 0 l 117 8 q 208 47 182 8 q 251 174 233 85 l 393 838 q 403 894 400 874 q 406 939 407 915 q 398 974 406 963 q 373 994 390 986 q 328 1003 356 1003 z "},"Ή":{"ha":1090,"x_min":83,"x_max":1201,"o":"m 285 1022 q 275 993 285 1010 q 235 944 268 983 q 156 851 201 904 q 89 769 111 799 l 83 774 q 145 928 106 819 q 190 1046 185 1036 q 233 1072 208 1072 q 269 1056 254 1072 q 285 1022 285 1040 m 876 1003 l 878 1011 l 1201 1011 l 1200 1003 q 1109 965 1135 1003 q 1064 838 1083 926 l 924 174 q 913 53 901 97 q 989 8 924 8 l 988 0 l 664 0 l 665 8 q 756 47 731 8 q 801 174 782 85 l 872 511 l 446 511 l 374 174 q 363 117 367 138 q 360 72 360 96 q 369 37 361 49 q 394 17 376 25 q 439 8 411 8 l 438 0 l 115 0 l 117 8 q 208 47 182 8 q 251 174 233 85 l 393 838 q 403 894 400 874 q 406 939 407 915 q 398 974 406 963 q 373 994 390 986 q 328 1003 356 1003 l 329 1011 l 651 1011 l 650 1003 q 559 965 585 1003 q 515 838 533 926 l 451 536 l 878 536 l 942 838 q 953 958 964 914 q 876 1003 942 1003 z "},"Ί":{"ha":542,"x_min":83,"x_max":651,"o":"m 89 769 l 83 774 q 145 928 106 819 q 190 1046 185 1036 q 233 1072 208 1072 q 269 1056 254 1072 q 285 1022 285 1040 q 275 993 285 1010 q 235 944 268 983 q 156 851 201 904 q 89 769 111 799 m 438 0 l 115 0 l 117 8 q 208 47 182 8 q 251 174 233 85 l 393 838 q 403 894 400 874 q 406 939 407 915 q 398 974 406 963 q 373 994 390 986 q 328 1003 356 1003 l 329 1011 l 651 1011 l 650 1003 q 559 965 585 1003 q 515 838 533 926 l 374 174 q 363 117 367 138 q 360 72 360 96 q 369 37 361 49 q 394 17 376 25 q 439 8 411 8 l 438 0 z "},"Ό":{"ha":1099,"x_min":85,"x_max":1097,"o":"m 90 769 l 85 774 q 145 926 106 818 q 192 1046 185 1035 q 235 1072 207 1072 q 270 1056 256 1072 q 285 1022 285 1040 q 276 993 285 1008 q 235 943 269 983 q 158 851 201 903 q 90 769 114 799 m 558 -17 q 276 90 376 -17 q 175 381 175 197 q 242 694 175 547 q 433 935 308 842 q 713 1028 558 1028 q 996 921 894 1028 q 1097 631 1097 814 q 1031 317 1097 464 q 839 76 964 169 q 558 -17 714 -17 m 553 3 q 771 113 672 3 q 919 376 869 222 q 969 679 969 529 q 906 918 969 828 q 721 1008 842 1008 q 501 899 600 1008 q 353 637 403 790 q 303 332 303 483 q 367 93 303 183 q 553 3 432 3 z "},"Ύ":{"ha":1039,"x_min":113,"x_max":1201,"o":"m 263 1072 q 299 1056 283 1072 q 314 1022 314 1040 q 304 993 314 1010 q 264 944 297 983 q 185 851 231 904 q 118 769 140 799 l 113 774 q 174 928 135 819 q 219 1046 214 1036 q 263 1072 238 1072 m 971 1003 l 972 1011 l 1201 1011 l 1200 1003 q 1081 931 1144 994 q 928 740 1018 868 l 724 458 l 664 174 q 653 53 642 97 q 729 8 664 8 l 728 0 l 406 0 l 407 8 q 497 46 472 8 q 542 174 522 83 l 599 440 l 488 833 q 439 963 460 929 q 383 1003 418 997 l 385 1011 l 694 1011 l 693 1003 q 603 871 567 994 l 714 486 l 903 751 q 978 861 953 821 q 1015 933 1003 901 q 1015 981 1026 965 q 971 1003 1004 996 z "},"Ώ":{"ha":1107,"x_min":88,"x_max":1085,"o":"m 289 1022 q 279 993 289 1010 q 238 943 272 983 q 160 851 204 903 q 93 769 117 799 l 88 774 q 149 928 110 819 q 194 1046 189 1036 q 238 1072 210 1072 q 274 1056 258 1072 q 289 1022 289 1040 m 650 76 l 756 76 q 913 116 856 76 q 1025 236 971 156 l 1033 236 l 922 0 l 608 0 l 639 136 q 819 267 744 172 q 926 478 893 363 q 958 719 958 594 q 897 929 958 850 q 717 1008 835 1008 q 513 919 606 1008 q 373 702 421 831 q 325 444 325 574 q 453 136 325 201 l 422 0 l 126 0 l 115 236 l 124 236 q 185 116 144 156 q 326 76 226 76 l 414 76 l 425 125 q 258 271 315 174 q 200 494 200 368 q 347 870 200 713 q 708 1028 494 1028 q 981 933 876 1028 q 1085 675 1085 839 q 973 323 1085 468 q 660 121 861 178 l 650 76 z "},"ΐ":{"ha":331,"x_min":7,"x_max":463,"o":"m 181 814 l 175 818 q 228 960 196 863 q 268 1069 261 1058 q 311 1097 283 1097 q 346 1083 331 1097 q 361 1047 361 1068 q 351 1015 361 1032 q 277 928 344 1004 q 181 814 210 851 m 147 874 q 138 865 147 874 q 104 856 129 856 q 60 874 79 856 q 42 918 42 893 q 60 961 42 943 q 104 979 79 979 q 147 961 129 979 q 165 918 165 943 q 147 874 165 893 m 444 874 q 435 865 444 874 q 401 856 426 856 q 358 874 376 856 q 339 918 339 893 q 358 961 339 943 q 401 979 376 979 q 444 961 426 979 q 463 918 463 943 q 444 874 463 893 m 96 -17 q 40 138 7 -17 l 167 731 l 276 742 l 282 742 l 157 150 q 172 76 142 76 q 317 211 219 76 l 324 206 q 96 -17 206 -17 z "},"Α":{"ha":824,"x_min":-99,"x_max":767,"o":"m 560 1028 l 676 178 q 708 49 690 85 q 767 8 725 13 l 765 0 l 449 0 l 450 8 q 557 146 575 17 l 529 354 l 201 354 l 149 260 q 92 151 111 192 q 67 77 74 111 q 77 28 61 43 q 132 8 93 13 l 131 0 l -99 0 l -97 8 q -3 74 -50 17 q 121 267 43 132 l 549 1028 l 560 1028 m 467 829 l 219 388 l 525 388 l 467 829 z "},"Β":{"ha":815,"x_min":-50,"x_max":815,"o":"m 528 528 l 528 525 q 696 446 631 510 q 761 293 761 382 q 638 75 761 150 q 324 0 515 0 l -50 0 l -49 8 q 41 44 17 8 q 85 168 65 79 l 228 843 q 238 963 250 922 q 163 1003 226 1003 l 164 1011 l 514 1011 q 739 954 663 1011 q 815 803 815 897 q 734 624 815 693 q 528 528 653 554 m 494 989 l 435 989 q 371 939 381 989 l 286 538 l 397 538 q 610 608 532 538 q 689 803 689 678 q 638 939 689 889 q 494 989 588 989 m 303 22 q 542 101 453 22 q 632 314 632 181 q 570 460 632 406 q 397 515 508 515 l 282 515 l 196 111 q 192 69 193 89 q 217 35 190 49 q 303 22 244 22 z "},"Γ":{"ha":633,"x_min":-50,"x_max":736,"o":"m 736 1011 l 711 803 l 703 803 q 635 955 675 921 q 488 989 594 989 l 382 989 l 208 174 q 197 53 186 97 q 274 8 208 8 l 272 0 l -50 0 l -49 8 q 42 46 17 8 q 86 174 67 83 l 228 838 q 239 958 250 914 q 163 1003 228 1003 l 164 1011 l 736 1011 z "},"Δ":{"ha":764,"x_min":-61,"x_max":671,"o":"m 517 1025 l 528 1025 l 671 6 l 669 0 l -61 0 l -60 6 l 517 1025 m -1 54 l 539 54 l 435 829 l -1 54 z "},"Ε":{"ha":775,"x_min":-50,"x_max":843,"o":"m 163 1003 l 164 1011 l 843 1011 l 818 803 l 810 803 q 739 955 782 921 q 581 989 696 989 l 382 989 l 286 538 l 442 538 q 572 565 532 538 q 647 674 611 593 l 656 674 l 592 369 l 583 369 q 552 483 581 450 q 436 515 524 515 l 281 515 l 190 88 q 192 38 183 54 q 232 22 201 22 l 396 22 q 573 60 511 22 q 724 233 635 99 l 732 233 l 650 0 l -50 0 l -49 8 q 42 47 17 8 q 86 174 68 85 l 228 838 q 238 894 235 874 q 241 939 242 915 q 233 974 240 963 q 208 994 225 986 q 163 1003 190 1003 z "},"Ζ":{"ha":726,"x_min":-67,"x_max":832,"o":"m 204 1011 l 832 1011 l 832 1006 l 90 22 l 343 22 q 519 60 457 22 q 671 233 581 99 l 679 233 l 597 0 l -67 0 l -67 6 l 678 989 l 449 989 q 274 954 333 989 q 132 803 214 919 l 124 803 l 204 1011 z "},"Η":{"ha":925,"x_min":-50,"x_max":1035,"o":"m 711 1003 l 713 1011 l 1035 1011 l 1033 1003 q 943 965 968 1003 q 899 838 918 928 l 758 174 q 747 53 736 97 q 822 8 757 8 l 821 0 l 499 0 l 500 8 q 591 47 565 8 q 635 174 617 85 l 707 511 l 281 511 l 208 174 q 198 117 201 138 q 195 72 194 96 q 203 37 196 49 q 228 17 211 25 q 274 8 246 8 l 272 0 l -50 0 l -49 8 q 42 47 17 8 q 86 174 68 85 l 228 838 q 238 894 235 874 q 241 939 242 915 q 233 974 240 963 q 208 994 225 986 q 163 1003 190 1003 l 164 1011 l 486 1011 l 485 1003 q 394 965 419 1003 q 350 838 368 926 l 286 536 l 713 536 l 776 838 q 788 958 799 914 q 711 1003 776 1003 z "},"Θ":{"ha":985,"x_min":61,"x_max":985,"o":"m 444 -17 q 162 90 263 -17 q 61 381 61 197 q 128 694 61 547 q 319 935 194 842 q 599 1028 444 1028 q 883 921 781 1028 q 985 631 985 814 q 918 317 985 464 q 726 76 851 169 q 444 -17 600 -17 m 439 3 q 657 113 558 3 q 806 376 756 222 q 856 679 856 529 q 792 918 856 828 q 607 1008 728 1008 q 388 899 486 1008 q 239 637 289 790 q 189 332 189 483 q 253 93 189 183 q 439 3 318 3 m 297 360 l 289 360 l 354 665 l 363 665 q 384 558 361 590 q 482 525 407 525 l 572 525 q 684 558 647 525 q 751 665 721 590 l 760 665 l 694 360 l 686 360 q 665 467 689 435 q 567 500 642 500 l 476 500 q 365 467 401 500 q 297 360 328 435 z "},"Ι":{"ha":376,"x_min":-50,"x_max":486,"o":"m 272 0 l -50 0 l -49 8 q 42 47 17 8 q 86 174 68 85 l 228 838 q 238 894 235 874 q 241 939 242 915 q 233 974 240 963 q 208 994 225 986 q 163 1003 190 1003 l 164 1011 l 486 1011 l 485 1003 q 394 965 419 1003 q 350 838 368 926 l 208 174 q 198 117 201 138 q 195 72 194 96 q 203 37 196 49 q 228 17 211 25 q 274 8 246 8 l 272 0 z "},"Κ":{"ha":853,"x_min":-50,"x_max":975,"o":"m 350 843 l 208 168 q 198 50 186 92 q 274 8 210 8 l 272 0 l -50 0 l -49 8 q 41 44 17 8 q 85 168 65 79 l 228 843 q 238 961 250 919 q 163 1003 226 1003 l 164 1011 l 486 1011 l 485 1003 q 394 967 419 1003 q 350 843 369 932 m 975 1011 l 974 1003 q 663 783 875 979 l 425 565 q 640 158 536 300 q 806 8 744 17 l 804 0 q 690 -6 758 -6 q 585 31 632 -6 q 474 178 539 68 q 319 500 410 289 l 643 801 q 744 901 717 869 q 772 963 771 933 q 759 991 774 982 q 719 1003 744 1000 l 721 1011 l 975 1011 z "},"Λ":{"ha":824,"x_min":-99,"x_max":767,"o":"m 560 1028 l 676 178 q 708 49 690 85 q 767 8 725 13 l 765 0 l 449 0 l 450 8 q 557 146 575 17 l 467 829 l 149 260 q 92 151 111 192 q 67 77 74 111 q 77 28 61 43 q 132 8 93 13 l 131 0 l -99 0 l -97 8 q -3 74 -50 17 q 121 267 43 132 l 549 1028 l 560 1028 z "},"Μ":{"ha":1128,"x_min":-74,"x_max":1208,"o":"m 1208 1011 l 1207 1003 q 1115 965 1139 997 q 1076 839 1092 932 l 971 165 q 965 49 953 89 q 1038 8 976 8 l 1036 0 l 718 0 l 719 8 q 810 44 785 8 q 849 165 835 79 l 967 913 l 450 0 l 439 0 l 299 914 l 118 232 q 188 8 60 10 l 186 0 l -74 0 l -72 8 q 27 68 -8 14 q 92 232 63 122 l 256 850 q 255 961 276 929 q 176 1003 233 993 l 178 1011 l 407 1011 l 529 192 l 992 1011 l 1208 1011 z "}}}
